<?xml version="1.0" encoding="utf-8"?>
<!-- Generator: Adobe Illustrator 16.0.0, SVG Export Plug-In . SVG Version: 6.00 Build 0)  -->
<!DOCTYPE svg PUBLIC "-//W3C//DTD SVG 1.1//EN" "http://www.w3.org/Graphics/SVG/1.1/DTD/svg11.dtd">
<svg version="1.1" id="Layer_1" xmlns="http://www.w3.org/2000/svg" xmlns:xlink="http://www.w3.org/1999/xlink" x="0px" y="0px"
	 width="32px" height="32px" viewBox="0 0 32 32" enable-background="new 0 0 32 32" xml:space="preserve">
<g>
	<g>
		<path fill="#333333" d="M30.878,20.047L24.938,8.574c-0.511-1.019-1.561-1.716-2.778-1.716h-0.002h-0.002
			c-1.217,0-2.267,0.697-2.779,1.716l-4.181,8.076c-0.467-0.831-1.21-1.482-2.108-1.833c1.003-0.725,1.656-1.906,1.656-3.239
			c0-1.545-0.878-2.884-2.162-3.546C11.452,7.435,10.162,7.1,8.794,7.1H2.542c-1.286,0-2.324,1.04-2.324,2.323v11.634
			c0,1.283,1.039,2.322,2.324,2.322H4.8h4.503c1.304,0,2.544-0.27,3.671-0.751l0.428-0.207c0.024-0.012,0.047-0.025,0.071-0.037
			c0.407,0.674,1.143,1.127,1.988,1.127c0.941,0,1.751-0.559,2.117-1.364c0.183-0.425,0.593-0.726,1.078-0.75h7.005
			c0.486,0.023,0.896,0.324,1.078,0.75c0.364,0.805,1.175,1.364,2.117,1.364c1.284,0,2.322-1.042,2.322-2.322
			C31.178,20.773,31.071,20.383,30.878,20.047"/>
	</g>
</g>
</svg>
