<?xml version="1.0" standalone="no"?>
<!DOCTYPE svg PUBLIC "-//W3C//DTD SVG 20010904//EN"
 "http://www.w3.org/TR/2001/REC-SVG-20010904/DTD/svg10.dtd">
<svg version="1.0" xmlns="http://www.w3.org/2000/svg"
 width="157.000000pt" height="157.000000pt" viewBox="0 0 157.000000 157.000000"
 preserveAspectRatio="xMidYMid meet">
<metadata>
Created by potrace 1.11, written by Peter Selinger 2001-2013
</metadata>
<g transform="translate(0.000000,157.000000) scale(0.100000,-0.100000)"
fill="#000000" stroke="none">
<path d="M70 1451 l-74 -39 79 -40 80 -40 0 -78 0 -78 78 -38 77 -38 0 -80 0
-80 76 -37 77 -36 -77 -39 -76 -38 2 -236 3 -237 234 -117 233 -118 234 117
233 116 1 238 0 238 -75 36 c-41 19 -75 36 -75 38 0 1 34 19 75 39 l75 37 0
78 0 79 78 40 77 40 0 75 c0 42 2 78 5 80 3 3 38 21 79 42 l74 37 -79 40 -79
41 -157 -79 -158 -79 0 -76 0 -77 -149 74 c-83 41 -155 74 -162 74 -7 0 -79
-34 -160 -75 l-149 -75 0 78 0 77 -155 78 c-85 42 -159 77 -163 77 -4 -1 -41
-18 -82 -39z m564 -671 l148 -73 146 74 c80 41 149 76 154 77 4 2 8 -65 8
-150 l0 -153 -155 -78 -155 -77 -155 77 -155 77 0 154 c0 84 3 151 8 149 4 -2
74 -37 156 -77z"/>
</g>
</svg>
