<?xml version="1.0" encoding="utf-8"?>
<!-- Generator: Adobe Illustrator 16.0.0, SVG Export Plug-In . SVG Version: 6.00 Build 0)  -->
<!DOCTYPE svg PUBLIC "-//W3C//DTD SVG 1.1//EN" "http://www.w3.org/Graphics/SVG/1.1/DTD/svg11.dtd">
<svg version="1.1" id="Capa_1" xmlns="http://www.w3.org/2000/svg" xmlns:xlink="http://www.w3.org/1999/xlink" x="0px" y="0px"
	 width="19.754px" height="19.753px" viewBox="0 0 19.754 19.753" enable-background="new 0 0 19.754 19.753" xml:space="preserve">
<circle fill="#42A5F5" cx="9.877" cy="9.877" r="9.877"/>
<g>
	<path fill="#FFFFFF" d="M7.918,6.17c0,0.47-0.358,0.85-0.917,0.85c-0.537,0-0.896-0.38-0.884-0.85
		C6.105,5.678,6.464,5.309,7.012,5.309S7.906,5.678,7.918,6.17z M6.162,13.16V7.691h1.7v5.469H6.162z"/>
	<path fill="#FFFFFF" d="M9.226,9.436c0-0.682-0.022-1.264-0.045-1.745h1.477l0.078,0.75h0.033c0.224-0.347,0.783-0.873,1.689-0.873
		c1.118,0,1.957,0.738,1.957,2.349v3.244h-1.7v-3.031c0-0.705-0.246-1.186-0.861-1.186c-0.47,0-0.749,0.325-0.861,0.638
		c-0.045,0.101-0.066,0.269-0.066,0.425v3.154h-1.7V9.436z"/>
</g>
</svg>
