<?xml version="1.0" encoding="utf-8"?>
<!-- Generator: Adobe Illustrator 16.0.0, SVG Export Plug-In . SVG Version: 6.00 Build 0)  -->
<!DOCTYPE svg PUBLIC "-//W3C//DTD SVG 1.1//EN" "http://www.w3.org/Graphics/SVG/1.1/DTD/svg11.dtd">
<svg version="1.1" id="Capa_1" xmlns="http://www.w3.org/2000/svg" xmlns:xlink="http://www.w3.org/1999/xlink" x="0px" y="0px"
	 width="52.333px" height="19.75px" viewBox="0 0 52.333 19.75" enable-background="new 0 0 52.333 19.75" xml:space="preserve">
<g>
	<g>
		<defs>
			<polygon id="SVGID_1_" points="14.649,12.936 12.686,13.918 10.723,14.899 8.763,13.918 6.801,12.936 6.801,10.975 6.801,9.014 
				4.838,9.996 4.838,11.956 4.838,13.918 4.838,15.881 6.801,16.861 8.763,17.84 10.723,18.822 12.686,17.84 14.649,16.861 
				16.609,15.881 16.609,13.918 16.609,11.956 16.609,9.996 14.649,9.014 14.649,10.975 			"/>
		</defs>
		<use xlink:href="#SVGID_1_"  overflow="visible" fill="#FFFFFF"/>
		<clipPath id="SVGID_2_">
			<use xlink:href="#SVGID_1_"  overflow="visible"/>
		</clipPath>
		<rect x="4.838" y="9.014" clip-path="url(#SVGID_2_)" fill="#FFFFFF" width="11.771" height="9.808"/>
	</g>
	<g>
		<defs>
			<polygon id="SVGID_3_" points="18.571,1.167 16.61,2.147 16.609,2.147 14.649,3.128 14.649,5.089 12.686,4.109 10.723,3.128 
				8.763,4.109 6.801,5.089 6.801,3.128 4.838,2.147 2.876,1.167 0.917,2.147 2.876,3.128 2.876,5.089 4.838,6.069 4.838,8.032 
				6.801,9.014 8.763,9.996 10.723,10.975 12.686,9.996 14.649,9.014 16.609,8.032 16.609,6.069 18.571,5.089 18.571,3.128 
				20.533,2.147 			"/>
		</defs>
		<use xlink:href="#SVGID_3_"  overflow="visible" fill="#FFFFFF"/>
		<clipPath id="SVGID_4_">
			<use xlink:href="#SVGID_3_"  overflow="visible"/>
		</clipPath>
		<rect x="0.917" y="1.167" clip-path="url(#SVGID_4_)" fill="#FFFFFF" width="19.616" height="9.809"/>
	</g>
	<g>
		<defs>
			<path id="SVGID_5_" d="M24.964,12.329c-0.185-0.312-0.277-0.709-0.277-1.192c0-0.481,0.093-0.88,0.277-1.198
				c0.184-0.314,0.474-0.473,0.865-0.473c0.394,0,0.683,0.16,0.87,0.48c0.19,0.319,0.283,0.717,0.283,1.19
				c0,0.214-0.021,0.422-0.07,0.624c-0.047,0.201-0.119,0.381-0.213,0.533c-0.093,0.154-0.213,0.277-0.357,0.367
				c-0.146,0.093-0.316,0.137-0.513,0.137C25.438,12.797,25.148,12.641,24.964,12.329 M24.717,8.145
				c-0.342,0.158-0.637,0.377-0.884,0.665s-0.441,0.628-0.582,1.026c-0.143,0.396-0.214,0.829-0.214,1.3
				c0,0.474,0.071,0.907,0.214,1.303c0.141,0.396,0.335,0.735,0.582,1.016c0.247,0.284,0.542,0.505,0.884,0.661
				c0.341,0.158,0.711,0.236,1.112,0.236s0.772-0.078,1.119-0.236c0.345-0.156,0.642-0.377,0.889-0.661
				c0.248-0.28,0.442-0.62,0.583-1.016s0.212-0.829,0.212-1.303c0-0.471-0.071-0.904-0.212-1.3
				c-0.141-0.398-0.335-0.738-0.583-1.026c-0.247-0.288-0.544-0.507-0.889-0.665c-0.347-0.156-0.718-0.236-1.119-0.236
				S25.058,7.989,24.717,8.145"/>
		</defs>
		<use xlink:href="#SVGID_5_"  overflow="visible" fill="#FFFFFF"/>
		<clipPath id="SVGID_6_">
			<use xlink:href="#SVGID_5_"  overflow="visible"/>
		</clipPath>
		<rect x="23.038" y="7.909" clip-path="url(#SVGID_6_)" fill="#FFFFFF" width="5.595" height="6.443"/>
	</g>
	<g>
		<defs>
			<polygon id="SVGID_7_" points="40.652,14.198 42.222,14.198 42.222,12.374 42.222,10.795 42.222,8.633 40.652,7.821 			"/>
		</defs>
		<use xlink:href="#SVGID_7_"  overflow="visible" fill="#FFFFFF"/>
		<clipPath id="SVGID_8_">
			<use xlink:href="#SVGID_7_"  overflow="visible"/>
		</clipPath>
		<rect x="40.652" y="7.821" clip-path="url(#SVGID_8_)" fill="#FFFFFF" width="1.57" height="6.377"/>
	</g>
	<g>
		<defs>
			<path id="SVGID_9_" d="M35.381,14.198h0.034H35.381z M33.62,12.397c-0.19-0.281-0.293-0.74-0.293-1.378
				c0-1.052,0.366-1.578,1.011-1.578c0.436,0,0.815,0.159,1.078,0.46v2.475c-0.263,0.122-0.265,0.226-0.386,0.305
				c-0.15,0.094-0.375,0.141-0.625,0.141C34.083,12.821,33.813,12.68,33.62,12.397 M35.416,8.344
				c-0.263-0.111-0.35-0.211-0.545-0.293c-0.224-0.096-0.499-0.143-0.772-0.143c-0.385,0-0.738,0.076-1.039,0.23
				c-0.298,0.154-0.554,0.369-0.758,0.646c-0.204,0.28-0.362,0.611-0.469,0.996c-0.105,0.385-0.159,0.809-0.159,1.271
				c0,0.583,0.061,1.081,0.187,1.492c0.124,0.412,0.297,0.752,0.517,1.022c0.221,0.272,0.476,0.472,0.767,0.596
				c0.291,0.126,0.6,0.188,0.93,0.188c0.298,0,0.601-0.055,0.811-0.16c0.182-0.092,0.27-0.196,0.532-0.31v0.315h1.526h0.044V6.739
				V6.727V6.521l-1.57-0.813V8.344z"/>
		</defs>
		<use xlink:href="#SVGID_9_"  overflow="visible" fill="#FFFFFF"/>
		<clipPath id="SVGID_10_">
			<use xlink:href="#SVGID_9_"  overflow="visible"/>
		</clipPath>
		<rect x="31.673" y="5.708" clip-path="url(#SVGID_10_)" fill="#FFFFFF" width="5.313" height="8.645"/>
	</g>
	<g>
		<defs>
			<path id="SVGID_11_" d="M46.149,8.372v2.424v1.578v1.824h1.571v-3.363c0-0.53,0.106-0.893,0.29-1.094
				c0.184-0.199,0.451-0.3,0.789-0.3c0.337,0,0.58,0.103,0.761,0.307c0.181,0.203,0.255,0.581,0.255,1.13v3.32h1.57v-3.461
				c0-0.871-0.138-1.561-0.506-2.068c-0.369-0.505-0.923-0.76-1.709-0.76c-0.329,0-0.62,0.054-0.865,0.159
				c-0.248,0.105-0.323,0.235-0.585,0.383V7.558L46.149,8.372z"/>
		</defs>
		<use xlink:href="#SVGID_11_"  overflow="visible" fill="#FFFFFF"/>
		<clipPath id="SVGID_12_">
			<use xlink:href="#SVGID_11_"  overflow="visible"/>
		</clipPath>
		<rect x="46.149" y="7.558" clip-path="url(#SVGID_12_)" fill="#FFFFFF" width="5.236" height="6.64"/>
	</g>
</g>
</svg>
