<?xml version="1.0" encoding="utf-8"?>
<!-- Generator: Adobe Illustrator 16.0.0, SVG Export Plug-In . SVG Version: 6.00 Build 0)  -->
<!DOCTYPE svg PUBLIC "-//W3C//DTD SVG 1.1//EN" "http://www.w3.org/Graphics/SVG/1.1/DTD/svg11.dtd">
<svg version="1.1" id="Layer_1" xmlns="http://www.w3.org/2000/svg" xmlns:xlink="http://www.w3.org/1999/xlink" x="0px" y="0px"
	 width="27px" height="27px" viewBox="0 0 27 27" enable-background="new 0 0 27 27" xml:space="preserve">
<path fill="#3E4F5E" d="M21.539,3.296h-4.424C16.457,1.908,15.053,1,13.5,1c-1.552,0-2.958,0.908-3.615,2.296H5.463
	c-1.582,0-2.87,1.288-2.87,2.869v16.077c0,1.582,1.288,2.868,2.87,2.868h16.076c1.581,0,2.868-1.286,2.868-2.868V6.165
	C24.407,4.584,23.12,3.296,21.539,3.296z M13.5,3.869c0.632,0,1.148,0.511,1.148,1.148c0,0.637-0.517,1.147-1.148,1.147
	s-1.147-0.511-1.147-1.147C12.353,4.38,12.868,3.869,13.5,3.869z M15.797,20.64H7.759v-1.6h8.038V20.64z M19.241,16.048H7.759
	v-1.601h11.482V16.048z M19.241,11.454H7.759v-1.6h11.482V11.454z"/>
</svg>
