<?xml version="1.0" encoding="utf-8"?>
<!-- Generator: Adobe Illustrator 16.0.0, SVG Export Plug-In . SVG Version: 6.00 Build 0)  -->
<!DOCTYPE svg PUBLIC "-//W3C//DTD SVG 1.1//EN" "http://www.w3.org/Graphics/SVG/1.1/DTD/svg11.dtd">
<svg version="1.1" id="Layer_1" xmlns="http://www.w3.org/2000/svg" xmlns:xlink="http://www.w3.org/1999/xlink" x="0px" y="0px"
	 width="261.667px" height="50px" viewBox="0 0 261.667 50" enable-background="new 0 0 261.667 50" xml:space="preserve">
<g>
	<path fill="#FFFFFF" d="M49.356,17.647h6.629c1.687,0,3.015,0.464,3.859,1.309c0.655,0.656,0.993,1.456,0.993,2.45v0.041
		c0,1.771-1.016,2.723-2.112,3.293c1.731,0.588,2.934,1.581,2.934,3.584v0.043c0,2.638-2.173,4.053-5.464,4.053h-6.839V17.647z
		 M55.457,23.875c1.666,0,2.785-0.657,2.785-2.007v-0.042c0-1.16-0.93-1.879-2.596-1.879H51.91v3.928H55.457z M56.212,30.121
		c1.775,0,2.852-0.697,2.852-2.025V28.05c0-1.244-0.991-1.981-3.04-1.981H51.91v4.052H56.212z"/>
	<path fill="#FFFFFF" d="M63.755,28.367v-7.09h2.554v6.33c0,1.731,0.864,2.724,2.386,2.724c1.477,0,2.512-1.03,2.512-2.765v-6.289
		h2.553v11.141h-2.553v-1.727c-0.719,1.057-1.753,1.963-3.483,1.963C65.212,32.654,63.755,30.964,63.755,28.367"/>
	<path fill="#FFFFFF" d="M75.939,26.894v-0.046c0-3.187,2.258-5.804,5.445-5.804c3.546,0,5.338,2.786,5.338,5.994
		c0,0.232-0.02,0.463-0.039,0.719h-8.19c0.275,1.813,1.56,2.828,3.207,2.828c1.245,0,2.132-0.463,3.021-1.33l1.496,1.33
		c-1.055,1.265-2.506,2.088-4.558,2.088C78.429,32.673,75.939,30.331,75.939,26.894 M84.192,26.069
		c-0.167-1.647-1.144-2.933-2.829-2.933c-1.562,0-2.657,1.199-2.891,2.933H84.192z"/>
	<path fill="#FFFFFF" d="M88.88,21.277h2.553v1.732c0.721-1.057,1.755-1.964,3.484-1.964c2.51,0,3.969,1.688,3.969,4.284v7.088
		h-2.556v-6.328c0-1.73-0.867-2.723-2.384-2.723c-1.478,0-2.514,1.034-2.514,2.766v6.285H88.88V21.277z"/>
	<path fill="#FFFFFF" d="M100.937,26.914V26.87c0-3.186,2.531-5.824,5.947-5.824c3.424,0,5.934,2.597,5.934,5.78v0.044
		c0,3.165-2.531,5.804-5.971,5.804C103.448,32.673,100.937,30.078,100.937,26.914 M110.265,26.914V26.87
		c0-1.963-1.414-3.587-3.418-3.587c-2.049,0-3.356,1.604-3.356,3.543v0.044c0,1.944,1.415,3.589,3.394,3.589
		C108.959,30.458,110.265,28.833,110.265,26.914"/>
	<path fill="#FFFFFF" d="M114.091,30.966l1.141-1.733c1.202,0.908,2.512,1.372,3.65,1.372c1.097,0,1.73-0.464,1.73-1.201v-0.043
		c0-0.865-1.182-1.162-2.49-1.561c-1.646-0.467-3.482-1.138-3.482-3.275v-0.039c0-2.113,1.752-3.398,3.969-3.398
		c1.391,0,2.912,0.484,4.092,1.268l-1.012,1.814c-1.076-0.656-2.216-1.055-3.144-1.055c-0.993,0-1.563,0.462-1.563,1.119v0.038
		c0,0.804,1.204,1.144,2.512,1.565c1.625,0.506,3.461,1.242,3.461,3.249v0.039c0,2.345-1.815,3.503-4.135,3.503
		C117.234,32.628,115.484,32.065,114.091,30.966"/>
	<path fill="#FFFFFF" d="M136.576,17.544h2.406l6.5,14.875h-2.744l-1.5-3.567h-6.983l-1.521,3.567h-2.658L136.576,17.544z
		 M140.291,26.552l-2.556-5.908l-2.532,5.908H140.291z"/>
	<path fill="#FFFFFF" d="M147.347,17.14h2.744v2.428h-2.744V17.14z M147.453,21.277h2.551v11.143h-2.551V21.277z"/>
	<path fill="#FFFFFF" d="M152.921,21.277h2.552v2.512c0.695-1.668,1.985-2.805,3.947-2.723v2.701h-0.148
		c-2.237,0-3.799,1.459-3.799,4.413v4.237h-2.552V21.277z"/>
	<path fill="#FFFFFF" d="M160.228,26.894v-0.046c0-3.187,2.257-5.804,5.443-5.804c3.546,0,5.338,2.786,5.338,5.994
		c0,0.232-0.021,0.463-0.042,0.719h-8.187c0.27,1.813,1.562,2.828,3.206,2.828c1.247,0,2.132-0.463,3.017-1.33l1.502,1.33
		c-1.057,1.265-2.514,2.088-4.561,2.088C162.716,32.673,160.228,30.331,160.228,26.894 M168.476,26.069
		c-0.168-1.647-1.137-2.933-2.826-2.933c-1.562,0-2.658,1.199-2.891,2.933H168.476z"/>
	<path fill="#FFFFFF" d="M172.262,30.966l1.138-1.733c1.204,0.908,2.512,1.372,3.652,1.372c1.098,0,1.729-0.464,1.729-1.201v-0.043
		c0-0.865-1.18-1.162-2.488-1.561c-1.646-0.467-3.482-1.138-3.482-3.275v-0.039c0-2.113,1.752-3.398,3.969-3.398
		c1.391,0,2.911,0.484,4.092,1.268l-1.014,1.814c-1.076-0.656-2.215-1.055-3.141-1.055c-0.996,0-1.564,0.462-1.564,1.119v0.038
		c0,0.804,1.203,1.144,2.514,1.565c1.623,0.506,3.459,1.242,3.459,3.249v0.039c0,2.345-1.816,3.503-4.136,3.503
		C175.406,32.628,173.656,32.065,172.262,30.966"/>
	<path fill="#FFFFFF" d="M188.857,25.076v-0.039c0-4.201,3.145-7.643,7.618-7.643c2.722,0,4.368,0.947,5.782,2.301l-1.668,1.918
		c-1.182-1.097-2.447-1.834-4.137-1.834c-2.827,0-4.875,2.32-4.875,5.213v0.045c0,2.889,2.048,5.249,4.875,5.249
		c1.815,0,2.977-0.735,4.244-1.919l1.667,1.689c-1.544,1.604-3.231,2.617-5.994,2.617C192.064,32.673,188.857,29.318,188.857,25.076
		"/>
	<path fill="#FFFFFF" d="M204.417,17.14h2.743v2.428h-2.743V17.14z M204.521,21.277h2.544v11.143h-2.544V21.277z"/>
	<path fill="#FFFFFF" d="M209.867,28.367v-7.09h2.551v6.33c0,1.731,0.865,2.724,2.386,2.724c1.477,0,2.511-1.03,2.511-2.765v-6.289
		h2.553v11.141h-2.553v-1.727c-0.715,1.057-1.752,1.963-3.48,1.963C211.32,32.654,209.867,30.964,209.867,28.367"/>
	<path fill="#FFFFFF" d="M222.089,26.87v-0.044c0-3.689,2.512-5.781,5.172-5.781c1.836,0,2.994,0.93,3.798,1.965v-5.996h2.553
		v15.403h-2.553v-1.854c-0.823,1.162-1.983,2.09-3.798,2.09C224.642,32.652,222.089,30.562,222.089,26.87 M231.099,26.87v-0.044
		c0-2.149-1.519-3.565-3.229-3.565c-1.75,0-3.207,1.353-3.207,3.565v0.044c0,2.153,1.478,3.567,3.207,3.567
		C229.581,30.437,231.099,29,231.099,26.87"/>
	<path fill="#FFFFFF" d="M243.2,32.417v-1.369c-0.761,0.908-1.921,1.604-3.607,1.604c-2.112,0-3.974-1.202-3.974-3.44v-0.04
		c0-2.472,1.926-3.652,4.523-3.652c1.348,0,2.213,0.189,3.079,0.465v-0.212c0-1.537-0.972-2.384-2.744-2.384
		c-1.245,0-2.174,0.273-3.187,0.697l-0.697-2.047c1.225-0.55,2.43-0.93,4.243-0.93c3.293,0,4.897,1.73,4.897,4.707v6.602H243.2z
		 M243.263,27.757c-0.655-0.256-1.563-0.443-2.555-0.443c-1.604,0-2.551,0.654-2.551,1.73v0.042c0,1.055,0.947,1.646,2.148,1.646
		c1.692,0,2.957-0.95,2.957-2.344V27.757z"/>
	<path fill="#FFFFFF" d="M247.785,26.87v-0.044c0-3.689,2.512-5.781,5.171-5.781c1.836,0,2.997,0.93,3.8,1.965v-5.996h2.551v15.403
		h-2.551v-1.854c-0.826,1.162-1.984,2.09-3.8,2.09C250.339,32.652,247.785,30.562,247.785,26.87 M256.797,26.87v-0.044
		c0-2.149-1.521-3.565-3.229-3.565c-1.753,0-3.207,1.353-3.207,3.565v0.044c0,2.153,1.477,3.567,3.207,3.567
		C255.277,30.437,256.797,29,256.797,26.87"/>
	<path fill="#FFFFFF" d="M20.683,9.435c-0.121,0-0.217,0.098-0.217,0.219c0,0.119,0.096,0.215,0.217,0.215
		c0.118,0,0.212-0.096,0.212-0.215C20.895,9.533,20.801,9.435,20.683,9.435"/>
	<path fill="#FFFFFF" d="M31.618,12.783l-0.034-0.002c-1.127-0.044-2.203-0.451-3.242-0.844c-0.424-0.16-0.861-0.326-1.295-0.462
		c-0.853-0.272-1.614-0.421-2.325-0.456c-0.189-0.009-0.362-0.014-0.547-0.014c-0.479,0-1.153,0.045-1.573,0.453
		c-0.123-0.528-0.262-1.125-0.486-1.689c-0.213-0.537-0.529-1.173-1.1-1.344c-0.095-0.031-0.191-0.043-0.282-0.043
		c-0.567,0-0.999,0.506-1.21,0.81L19.43,9.33c-0.248,0.355-0.37,0.536-0.336,0.701c0.04,0.17,0.245,0.297,0.704,0.562
		c0.199,0.113,0.236,0.404,0.263,0.619l0.003,0.023c0.043,0.323,0.062,0.637,0.059,0.938c-0.655-0.676-1.658-0.939-2.563-1.111
		c-0.239-0.045-0.495-0.072-0.752-0.072c-1.044,0-2.062,0.391-2.735,0.682c-0.38,0.168-0.763,0.35-1.131,0.528
		c-0.713,0.343-1.449,0.693-2.213,0.929c-0.233,0.072-0.48,0.129-0.785,0.182H9.929c-0.002,0.004-0.009,0.004-0.021,0.004
		L9.89,13.318c-0.117,0.021-0.314,0.084-0.353,0.262s-0.015,0.297,0.228,0.486c0.558,0.318,1.238,0.471,2.071,0.471
		c0.174,0,0.347-0.006,0.542-0.018c0.25-0.017,0.504-0.048,0.77-0.084c0.384-0.049,0.777-0.098,1.156-0.098
		c0.261,0,0.488,0.023,0.695,0.07c0.622,0.145,0.991,0.761,1.316,1.302c0.08,0.136,0.156,0.265,0.236,0.385l0.003,0.009
		c0.151,0.226,0.401,0.605,0.387,0.887c-0.015,0.279-0.396,0.509-0.671,0.675c-0.072,0.048-0.145,0.089-0.197,0.126
		c-0.089,0.059-0.195,0.126-0.302,0.195c-0.621,0.396-1.474,0.939-1.374,1.67c0.045,0.357,0.342,0.648,0.711,0.691
		c0.029,0.008,0.064,0.008,0.098,0.008c0.261,0,0.493-0.122,0.719-0.237c0.094-0.05,0.193-0.099,0.286-0.14
		c0.29-0.118,0.596-0.18,0.89-0.18c0.502,0,0.986,0.17,1.434,0.506c0.146,0.109,0.277,0.243,0.406,0.373
		c0.137,0.138,0.281,0.279,0.443,0.397c0.129,0.095,0.373,0.193,0.578,0.193c0.203,0,0.338-0.103,0.377-0.284
		c0.073-0.362,0.069-0.739,0.069-1.107c-0.004-0.292-0.004-0.595,0.032-0.884c0.021-0.177,0.068-0.537,0.297-0.647
		c0.078-0.037,0.162-0.053,0.27-0.053c0.117,0,0.24,0.02,0.356,0.037c0.165,0.028,0.34,0.053,0.478,0.033
		c0.656-0.09,1.207-0.629,1.465-1.441c0.125-0.273,0.268-0.393,0.547-0.463c0.33-0.076,0.537-0.348,0.737-0.609
		c0.05-0.066,0.099-0.131,0.15-0.191c0.414-0.489,0.913-0.711,1.628-0.711c0.129,0,0.271,0.008,0.426,0.021
		c0.146,0.018,0.294,0.033,0.438,0.052c0.38,0.044,0.742,0.085,1.111,0.085c0.397,0,0.752-0.053,1.08-0.159
		c0.854-0.286,1.604-0.838,2.292-1.394l0.101-0.082c0.193-0.163,0.239-0.266,0.188-0.448C31.955,12.837,31.711,12.792,31.618,12.783
		 M16.916,15.322c-0.172-0.283-0.343-0.572-0.557-0.826c-0.499-0.606-1.157-0.871-2.143-0.871c-0.41,0-0.844,0.043-1.266,0.092
		c-0.413,0.041-0.844,0.086-1.248,0.086c-0.211,0-0.404-0.012-0.582-0.035c0.708-0.238,1.391-0.562,2.051-0.881
		c0.709-0.341,1.443-0.696,2.207-0.93c0.474-0.146,0.967-0.221,1.467-0.221c0.92,0,1.766,0.24,2.454,0.695
		c0.575,0.381,0.743,0.781,0.549,1.346c-0.205,0.598-0.562,1.188-1.063,1.752c-0.031,0.035-0.068,0.078-0.111,0.125
		c-0.216,0.26-0.578,0.693-0.885,0.693c-0.096,0-0.176-0.041-0.25-0.123C17.293,15.955,17.099,15.632,16.916,15.322 M22.681,16.16
		c-0.068,0.499-0.268,0.925-0.57,1.199c-0.27,0.248-0.566,0.3-0.959,0.3c-0.064,0-0.134-0.003-0.201-0.003
		c-0.072,0-0.141-0.004-0.216-0.004c-0.254,0-0.46,0.086-0.623,0.248c-0.474,0.48-0.464,1.531-0.458,2.229v0.227l-0.045-0.045
		c-0.602-0.557-1.16-1.084-2.006-1.213c-0.13-0.021-0.268-0.031-0.407-0.031c-0.254,0-0.522,0.035-0.8,0.102
		c-0.237,0.059-0.443,0.151-0.658,0.25c-0.088,0.037-0.168,0.072-0.256,0.111c-0.099,0.041-0.234,0.084-0.318,0.084
		c-0.025,0-0.042-0.002-0.051-0.013c-0.004-0.009-0.004-0.025,0.004-0.048c0.077-0.285,0.389-0.489,0.635-0.653l0.064-0.042
		c0.628-0.424,1.213-0.848,1.797-1.299c1.061-0.825,2.23-1.856,2.811-3.257c0.33-0.786,0.472-1.689,0.412-2.615l-0.003-0.054
		c-0.024-0.379-0.051-0.775-0.204-1.125c-0.123-0.287-0.352-0.423-0.589-0.562c-0.046-0.026-0.091-0.051-0.13-0.075
		c0.109-0.212,0.426-0.76,0.78-0.76c0.14,0,0.274,0.085,0.397,0.255c0.424,0.576,0.616,1.27,0.785,1.884
		c0.029,0.104,0.062,0.22,0.096,0.34C22.299,12.774,22.865,14.752,22.681,16.16 M29.944,13.917
		c-0.577,0.326-1.097,0.483-1.585,0.483H28.31c-0.32-0.007-0.643-0.048-0.956-0.092c-0.271-0.035-0.55-0.073-0.823-0.084
		c-0.678-0.033-1.207,0.076-1.629,0.328c-0.295,0.178-0.499,0.428-0.697,0.672c-0.143,0.176-0.291,0.354-0.47,0.506
		c-0.056,0.041-0.124,0.092-0.192,0.092h-0.004c-0.078-0.001-0.083-0.053-0.078-0.166c0-0.027,0.003-0.053,0-0.073
		c-0.012-0.255-0.051-0.507-0.082-0.753l-0.021-0.143c-0.059-0.428-0.123-0.881-0.229-1.327c-0.018-0.077-0.046-0.169-0.078-0.267
		c-0.125-0.392-0.277-0.882,0.026-1.133c0.187-0.149,0.499-0.178,0.71-0.197c0,0,0.238-0.021,0.498-0.025h0.096
		c0.285,0,0.58,0.02,0.871,0.057c0.539,0.072,1.105,0.215,1.789,0.44c0.367,0.122,0.736,0.259,1.098,0.394
		c0.829,0.309,1.685,0.629,2.574,0.781C30.431,13.617,30.185,13.781,29.944,13.917"/>
	<path fill="#FFFFFF" d="M39.166,20.519c-0.246-1.574-0.637-3.127-1.164-4.632c-0.512-1.438-1.15-2.833-1.918-4.156
		c-0.597-1.023-1.271-2.007-2.022-2.925C33.099,7.632,32.013,6.56,30.81,5.63c-1.169-0.903-2.447-1.667-3.803-2.25
		c-1.354-0.58-2.785-0.978-4.242-1.17c-1.486-0.193-3-0.176-4.479,0.056c-1.452,0.227-2.869,0.663-4.207,1.276
		c-1.346,0.617-2.607,1.409-3.76,2.34c-1.178,0.95-2.242,2.043-3.174,3.231c-0.924,1.165-1.722,2.424-2.398,3.749
		c-0.703,1.376-1.273,2.818-1.713,4.303c-0.454,1.547-0.77,3.139-0.938,4.742c-0.176,1.67-0.199,3.355-0.074,5.027
		c0.122,1.624,0.385,3.234,0.796,4.805c0.396,1.506,0.925,2.982,1.588,4.391c0.64,1.351,1.401,2.645,2.286,3.852
		c0.995,1.354,3.523,3.746,3.535,3.746c2.984,2.439,6.596,3.881,10.497,3.881h0.003c1.482,0,2.967-0.211,4.395-0.628
		c1.415-0.409,2.765-1.015,4.021-1.776c1.281-0.781,2.458-1.717,3.516-2.775c1.059-1.058,2-2.23,2.813-3.486
		c0.825-1.264,1.528-2.613,2.097-4.018c0.598-1.455,1.053-2.975,1.369-4.518c0.336-1.614,0.52-3.256,0.56-4.904
		C39.537,23.835,39.43,22.166,39.166,20.519 M5.917,31.398h-0.48l0.43-1.625c0.043-0.121,0.066-0.115,0.08-0.064
		C5.936,30.294,5.928,30.864,5.917,31.398 M6.154,26.966l-0.963-0.443C5.136,26.5,5.142,26.48,5.201,26.48h2.064
		c0.059,0,0.062,0.02,0.008,0.043l-0.924,0.443C6.295,26.993,6.205,26.993,6.154,26.966 M4.947,26.06l1.074-0.766
		c-0.006,0.25-0.008,0.506-0.012,0.766H4.947z M5.306,23.478h1.84c0.051,0,0.055,0.02,0.008,0.041l-0.82,0.387
		c-0.051,0.023-0.131,0.023-0.18,0.006l-0.857-0.396C5.25,23.494,5.253,23.478,5.306,23.478 M5.079,23.103l0.988-0.654
		c-0.005,0.204-0.007,0.426-0.013,0.654H5.079z M6.414,22.462l0.978,0.641H6.425C6.421,22.886,6.417,22.673,6.414,22.462
		 M6.458,25.298l1.084,0.762h-1.07C6.464,25.803,6.46,25.544,6.458,25.298 M6.558,31.398c-0.01-0.534-0.021-1.104-0.027-1.686
		c0.007-0.042,0.037-0.072,0.071,0.045l0.434,1.641H6.558z M20.725,45.966c-2.864,0-5.565-0.863-7.949-2.406
		c1.847-0.016,3.681,0.232,5.503,0.504c1.828,0.271,3.655,0.578,5.496,0.762c0.705,0.072,1.418,0.125,2.126,0.154
		C24.271,45.62,22.529,45.966,20.725,45.966 M29.121,43.259c-1.812,0.188-3.646,0.104-5.456-0.096
		c-1.811-0.194-3.606-0.504-5.409-0.762c-1.857-0.27-3.723-0.502-5.6-0.488c-0.639,0.008-1.273,0.039-1.908,0.102
		c-0.594-0.527-1.162-1.104-1.702-1.718c1.884-0.277,3.796-0.27,5.692-0.136c1.902,0.141,3.79,0.416,5.678,0.697
		c0.948,0.143,1.896,0.281,2.842,0.406c0.473,0.063,2.348,0.206,2.809,0.204c1.895,0,3.795-0.141,5.667-0.445
		C30.92,41.863,30.046,42.611,29.121,43.259 M33.429,39.007c-1.813,0.438-3.676,0.674-5.542,0.77
		c-0.93,0.049-1.869,0.074-2.803,0.027c-0.941-0.047-1.878-0.197-2.812-0.334c-1.879-0.269-3.76-0.569-5.647-0.779
		c-1.884-0.211-3.778-0.324-5.673-0.23c-1.027,0.052-2.057,0.169-3.07,0.363c-0.346-0.48-0.676-0.984-0.985-1.508
		c1.669-0.347,3.362-0.57,5.068-0.629c1.727-0.061,3.448,0.055,5.162,0.279c1.652,0.22,3.294,0.522,4.944,0.744
		c1.517,0.205,3.035,0.338,4.562,0.338h0.01c1.581,0,3.168-0.14,4.73-0.395c1.141-0.184,2.273-0.42,3.396-0.711
		C34.357,37.667,33.909,38.353,33.429,39.007 M8.222,33.199c-0.795-0.523-0.903-1.377-0.855-1.539l2.448-5.77
		c0.054-0.102,0.076-0.066,0.062,0L8.222,33.199z M9.843,27.757C9.804,30.341,9.77,32.75,9.757,33.9
		c-0.445-0.128-0.889-0.268-1.266-0.537l1.295-5.721C9.821,27.588,9.835,27.669,9.843,27.757 M9.193,22.697h1.84
		c0.049,0,0.051,0.018,0.008,0.041l-0.824,0.391c-0.047,0.027-0.125,0.027-0.172,0.006l-0.861-0.396
		C9.136,22.714,9.14,22.697,9.193,22.697 M8.964,22.323l0.971-0.64c-0.006,0.207-0.008,0.421-0.01,0.64H8.964z M10.32,21.697
		l0.959,0.626H10.33C10.325,22.105,10.323,21.898,10.32,21.697 M12.287,30.162c-0.033,1.24-0.064,2.477-0.082,3.434
		c-0.009,0.006-0.021,0.014-0.031,0.02l-0.82-3.568l0.438-1.041L12.287,30.162z M11.957,28.612l0.328-0.774
		c0.035-0.05,0.051-0.033,0.061,0.008c-0.01,0.499-0.025,1.029-0.039,1.578L11.957,28.612z M11.142,30.533l0.795,3.244
		c-0.278,0.115-0.625,0.18-0.924,0.221c-0.108,0.018-0.218,0.021-0.326,0.025c-0.062,0.01-0.132,0.018-0.195,0.01
		c-0.002-0.435-0.014-1.095-0.021-1.9L11.142,30.533z M10.46,31.365c-0.018-1.072-0.033-2.326-0.055-3.627
		c0.012-0.105,0.035-0.182,0.089-0.026l0.534,2.307L10.46,31.365z M11.232,29.537l-0.839-3.645
		c-0.008-0.067,0.005-0.104,0.062-0.002l1.167,2.722L11.232,29.537z M12.838,30.669v-0.531c-0.022-0.948-0.049-1.387-0.069-2.262
		c0.007-0.062,0.028-0.106,0.072-0.031l1.463,3.646c-0.24,0.479-0.283,0.644-0.652,1.032L12.838,30.669z M13.416,32.757
		c-0.146,0.168-0.342,0.327-0.508,0.461c-0.014-0.495-0.034-1.141-0.048-1.723L13.416,32.757z M14.9,31.361l1.673-3.591
		c-0.032,1.032-0.062,2.509-0.095,3.591h-0.682C15.542,31.361,15.148,31.378,14.9,31.361 M26.86,26.763h2.413
		c0.064,0,0.072,0.02,0.03,0.043c-0.007,0.006-1.099,0.523-1.099,0.523c-0.07,0.039-0.169,0.033-0.229,0.004l-1.129-0.518
		C26.785,26.785,26.79,26.763,26.86,26.763 M26.583,26.284l1.264-0.903c-0.004,0.27-0.012,0.869-0.012,0.903H26.583z M27.039,22.724
		c0,0,0.026-0.01,0.043-0.01h2.021c0.016,0,0.028,0.005,0.034,0.008h0.004l-0.004,0.002c0.016,0.007,0.008,0.02-0.027,0.035
		l-0.908,0.424c-0.049,0.025-0.134,0.025-0.188,0.003l-0.939-0.427C27.041,22.744,27.031,22.731,27.039,22.724 M26.823,22.293
		L27.9,21.52c-0.003,0.249-0.006,0.505-0.009,0.773H26.823z M28.277,21.534l1.088,0.76h-1.074
		C28.288,22.031,28.283,21.777,28.277,21.534 M28.331,25.38l1.258,0.903h-1.241C28.343,25.988,28.335,25.675,28.331,25.38
		 M31.986,24.409h2.064c0.057,0,0.064,0.021,0.011,0.045l-0.933,0.442c-0.049,0.024-0.135,0.024-0.189,0l-0.961-0.442
		C31.923,24.429,31.927,24.409,31.986,24.409 M31.728,23.99l1.08-0.771c-0.004,0.259-0.008,0.509-0.012,0.771H31.728z
		 M33.232,23.223l1.099,0.767h-1.085C33.244,23.73,33.24,23.478,33.232,23.223 M32.759,27.663c-0.035,2.499-0.079,5.187-0.105,7.079
		c-0.604,0.203-1.135,0.262-1.598,0.221l1.027-4.587l0.606-2.697C32.717,27.613,32.748,27.576,32.759,27.663 M32.62,26.589
		l-1.792,7.947l-0.775-2.133l0.005-0.016l2.451-5.879C32.575,26.39,32.646,26.31,32.62,26.589 M30.636,34.896
		c-0.561-0.125-1.006-0.397-1.346-0.695l0.583-1.393L30.636,34.896z M29.068,33.982c-0.348-0.367-0.547-0.731-0.625-0.887
		c-0.014-1.202-0.04-3-0.07-4.924l1.354,4.197L29.068,33.982z M26.113,33.012h-2.956l4.402-4.974L26.113,33.012z M27.8,28.167
		c-0.016,1.122-0.054,4.708-0.054,4.846h-1.323L27.8,28.167z M33.292,27.66c-0.003-0.082,0.038-0.056,0.068,0.019l1.234,5.331
		c-0.27,0.63-0.816,1.092-1.211,1.359C33.371,33.398,33.296,27.681,33.292,27.66 M34.91,32.982l-1.512-6.332
		c-0.046-0.384,0.056-0.247,0.131-0.104l2.76,6.436H34.91z M37.37,29.893c-0.2,1.011-0.466,2.007-0.79,2.979l-3.305-7.844
		l1.453-0.647c0.149-0.07,0.152-0.289,0.004-0.367c0,0-1.425-1.011-1.505-1.068l-0.036-2.406c0.178-0.022,0.342-0.101,0.519-0.129
		c0.194-0.029,0.374,0.004,0.563,0.038c0.17,0.028,0.346,0.044,0.512-0.004c0.16-0.046,0.305-0.134,0.432-0.239
		c-0.375-0.008-0.682-0.248-1.014-0.398c-0.17-0.078-0.351-0.121-0.533-0.143c-0.182-0.02-0.395-0.031-0.57,0.021
		c-0.02-0.141-0.035-0.284-0.061-0.443h-0.072c-0.116,0.66-0.109,1.38-0.117,2.047c-0.006,0.469-0.011,0.938-0.016,1.406
		c-0.004,0.083-0.004,0.165-0.006,0.25l-1.495,1.066c-0.146,0.074-0.148,0.291,0,0.365v0.004l1.41,0.647l-2.846,6.923l-1.468-4.45
		l1.625-0.761c0.168-0.09,0.174-0.338,0.006-0.43c0,0-1.527-1.072-1.729-1.217c-0.011-0.562-0.021-1.17-0.025-1.701l1.483-0.697
		V22.69c0.147-0.067,0.155-0.288,0.008-0.367c0,0-1.328-0.943-1.521-1.081c-0.016-1.093-0.025-2.184-0.041-3.272
		c0.084,0,0.169-0.032,0.248-0.053c0.097-0.029,0.191-0.058,0.285-0.072c0.189-0.034,0.373-0.007,0.562,0.028
		c0.181,0.031,0.364,0.051,0.542,0c0.16-0.048,0.301-0.135,0.43-0.238c-0.377-0.01-0.688-0.25-1.014-0.399
		c-0.169-0.079-0.352-0.122-0.532-0.144c-0.183-0.02-0.392-0.032-0.567,0.021c-0.016-0.143-0.035-0.285-0.064-0.445H28.05v0.004
		c-0.104,0.605-0.109,1.209-0.117,1.822c-0.002,0.555-0.005,1.109-0.014,1.665c-0.008,0.36-0.012,0.724-0.016,1.083l-1.51,1.078
		c-0.149,0.076-0.149,0.295,0,0.37l1.479,0.7h0.003c-0.006,0.526-0.014,1.148-0.024,1.703l-1.727,1.214
		c-0.173,0.088-0.173,0.339,0,0.427l1.594,0.764l-4.972,5.515c-0.096,0-0.718,0.005-0.809,0.118
		c-0.124,0.104-0.131,0.261-0.073,0.395c0.073,0.18,0.225,0.307,0.389,0.4c0.084,0.051,0.176,0.093,0.268,0.128
		c0.01,0.007,0.021,0.019,0.029,0.026c0,0,0.446,1.485,2.361,2.182l0,0c0,0,0.049,0.02,0.035,0.057
		c-0.002,0.012-0.008,0.015-0.014,0.02c-0.012,0.006-0.029,0.008-0.049,0.011c-1.828-0.111-3.633-0.413-5.438-0.694
		c-0.688-0.113-1.379-0.219-2.073-0.309c-0.466-0.059-0.932-0.113-1.402-0.198c-0.041-0.015-0.065-0.03-0.072-0.05v-0.002
		c-0.004-0.004-0.004-0.007-0.004-0.007v-0.012l0.004-0.005c0.002-0.013,0.014-0.025,0.018-0.035l0.02-0.007
		c2.543-0.761,3.078-2.613,3.078-2.613c0.033-0.017,0.064-0.034,0.098-0.051c0.068-0.032,0.138-0.062,0.199-0.102
		c0.162-0.093,0.316-0.218,0.389-0.397c0.059-0.137,0.051-0.292-0.078-0.396c-0.094-0.126-0.814-0.124-0.814-0.124l-0.004,0.008
		h-0.123c-0.006-0.398-0.016-1.424-0.035-2.089c0.072,0.03,0.162,0.004,0.236-0.018c0.094-0.026,0.188-0.059,0.285-0.073
		c0.195-0.05,0.385-0.038,0.584,0c0.189,0.031,0.379,0.062,0.572,0.012c0.168-0.041,0.32-0.134,0.451-0.242
		c-0.385-0.012-0.695-0.262-1.035-0.41c-0.18-0.078-0.371-0.123-0.561-0.139c-0.184-0.014-0.409-0.03-0.576,0.051
		c-0.011-0.16-0.026-0.296-0.043-0.399h-0.072c-0.1,0.567-0.1,2.544-0.104,3.308l-1.277,0.004c-0.041-1.392-0.101-3.251-0.133-4.441
		l1.103-2.369c0.153,0.064,0.329,0.079,0.485,0.136c0.174,0.059,0.309,0.162,0.453,0.278c0.134,0.109,0.271,0.219,0.436,0.273
		c0.178,0.056,0.371,0.049,0.553,0.02c-0.314-0.189-0.467-0.535-0.67-0.824c-0.105-0.15-0.237-0.279-0.383-0.389
		c-0.152-0.113-0.334-0.232-0.521-0.277c0.046-0.127,0.1-0.303,0.106-0.383c-0.007-0.018,0-0.039-0.033-0.061
		c-0.007,0-0.012-0.004-0.02-0.004c-0.049,0.008-0.062,0.038-0.096,0.077c-0.1,0.124-0.23,0.359-0.254,0.398l-1.178,2.532
		c-0.016-0.396-0.021-0.799-0.025-1.198c-0.002-0.5-0.025-1.001-0.109-1.495h-0.072c-0.104,0.602-0.107,1.206-0.112,1.822
		c-0.007,0.547-0.024,1.096-0.042,1.643l-2.032,4.212l-1.819-4.462c-0.012-0.556-0.028-1.107-0.035-1.659
		c-0.009-0.628-0.009-1.255-0.115-1.876h-0.069c-0.106,0.611-0.106,1.227-0.117,1.845c-0.005,0.56-0.021,1.124-0.035,1.685
		l-0.582,1.376l-1.421-3.314c-0.008-0.55-0.016-1.095-0.023-1.62l1.295-0.609c0.128-0.067,0.135-0.258,0.002-0.328
		c0,0-1.096-0.786-1.326-0.949c-0.018-1.143-0.025-2.284-0.045-3.427c0.084,0,0.166-0.032,0.248-0.053
		c0.092-0.029,0.186-0.058,0.283-0.072c0.192-0.034,0.373-0.007,0.561,0.028c0.18,0.031,0.361,0.051,0.54,0
		c0.159-0.048,0.304-0.135,0.435-0.238c-0.37-0.01-0.677-0.236-0.994-0.391c-0.168-0.078-0.346-0.129-0.532-0.15
		c-0.185-0.021-0.403-0.037-0.587,0.02c-0.016-0.15-0.034-0.301-0.059-0.449h-0.072c-0.126,0.73-0.111,1.465-0.121,2.203
		C9.965,19.58,9.955,20.287,9.943,21c-0.002,0.131-0.002,0.264-0.008,0.396l-1.321,0.947c-0.134,0.064-0.136,0.26,0,0.33
		l1.294,0.609c-0.005,0.59-0.021,1.553-0.021,1.62l-2.639,6.2l-0.387-1.428h0.34v-0.002h0.17c0.077,0,0.153-0.025,0.223-0.049
		c0.051-0.018,0.165-0.057,0.165-0.127c0-0.064-0.104-0.104-0.149-0.122c-0.072-0.028-0.157-0.054-0.238-0.054H6.765l-0.256-0.98
		c-0.008-0.4-0.014-0.809-0.021-1.205l1.457-0.686c0.147-0.074,0.149-0.287,0.005-0.365c0,0-1.398-0.992-1.498-1.058
		c-0.005-0.288-0.009-0.69-0.014-0.958l1.312-0.617c0.132-0.066,0.135-0.26,0.005-0.33c0,0-1.165-0.834-1.348-0.961
		c-0.013-0.954-0.021-1.596-0.025-1.665c0.15,0.014,0.315-0.073,0.459-0.103c0.168-0.031,0.328-0.017,0.492,0.013
		c0.158,0.031,0.319,0.054,0.479,0.017c0.151-0.041,0.285-0.119,0.408-0.221c-0.335-0.006-0.608-0.221-0.901-0.351
		c-0.149-0.069-0.312-0.11-0.478-0.127c-0.162-0.015-0.354-0.032-0.506,0.028C6.32,19.629,6.3,19.5,6.271,19.357H6.203
		C6.1,19.882,6.093,20.41,6.091,20.941c-0.008,0.455-0.014,0.765-0.023,1.221L4.726,23.12c-0.135,0.069-0.135,0.267,0,0.33
		l1.312,0.62c-0.005,0.271-0.005,0.673-0.011,0.958L4.55,26.082c-0.151,0.072-0.151,0.292-0.004,0.367l1.443,0.688
		c-0.006,0.396-0.017,0.797-0.02,1.193l-0.262,0.992H5.102c-0.074,0-0.155,0.023-0.222,0.047c-0.051,0.02-0.168,0.061-0.168,0.129
		c0,0.066,0.104,0.105,0.152,0.121c0.075,0.027,0.159,0.055,0.237,0.055h0.167c0,0,0,0.002,0.002,0.002h0.342l-0.455,1.723H4.431
		c-0.443-1.662-0.709-3.364-0.803-5.081c-0.098-1.716-0.025-3.441,0.217-5.146c0.223-1.577,0.598-3.138,1.121-4.644
		c0.5-1.436,1.137-2.82,1.912-4.125c0.408-0.688,0.854-1.352,1.342-1.991c1.973,0.661,4.527,0.054,4.527,0.054
		c2.303-0.413,3.734-0.348,4.566-0.219l0.451,0.078c0.047-0.281,0.079-0.482,0.164-0.75c-2.408-0.763-5.117-0.394-5.117-0.394
		c-1.641,0.152-2.641-0.183-3.156-0.468c0,0,1.035-1.102,1.881-1.71c0.742,0.534,1.678,0.799,2.557,0.955
		c0.58,0.104,1.17,0.147,1.745,0.28c0.584,0.132,1.164,0.306,1.726,0.502c0.203,0.068,0.469,0.199,0.587,0.254
		c0.104-0.231,0.253-0.449,0.403-0.66l-0.375-0.235c-0.74-0.427-1.441-0.649-2.227-0.882c-0.525-0.162-1.027-0.341-1.521-0.594
		c-0.668-0.343-1.08-0.795-1.115-0.826c0,0,1.142-0.7,2.221-1.098c0.498,0.706,1.424,1.1,2.058,1.645
		c0.892,0.758,1.366,1.474,1.409,1.551c0.207-0.158,0.405-0.271,0.674-0.374c-0.355-0.782-0.863-1.682-1.475-2.251
		c-0.279-0.254-0.697-0.706-0.812-1.156c0,0,1.436-0.361,2.537-0.377l0.412,3.625c0.153-0.027,0.386-0.024,0.386-0.024
		s0.146-0.003,0.386,0.024l0.41-3.623c0,0,0.975,0.047,1.769,0.205c0.44,0.087,0.774,0.174,0.774,0.174
		c-0.127,0.441-0.528,0.899-0.805,1.152c-0.622,0.581-1.105,1.465-1.464,2.258c0.211,0.094,0.448,0.187,0.667,0.369
		c0.418-0.621,0.933-1.148,1.405-1.553c0.618-0.539,1.546-0.957,2.047-1.645C26.04,4.744,26.6,4.96,27.489,5.416l0.663,0.378
		c-0.021,0.021-0.759,0.622-1.124,0.829c-0.479,0.273-0.997,0.432-1.517,0.594c-0.787,0.232-1.486,0.455-2.231,0.882l-0.378,0.23
		c0.148,0.186,0.289,0.408,0.412,0.663c0.133-0.063,0.387-0.186,0.581-0.252c0.567-0.196,1.144-0.37,1.733-0.502
		c0.57-0.133,1.158-0.176,1.738-0.28c0.871-0.151,1.813-0.431,2.551-0.955c0.934,0.724,1.881,1.711,1.881,1.711
		c-0.519,0.288-1.52,0.615-3.152,0.467c0,0-2.707-0.372-5.11,0.385c0.073,0.228,0.101,0.386,0.153,0.735l0.478-0.078
		c0.853-0.121,2.251-0.171,4.548,0.242c0,0,2.541,0.605,4.518-0.049c0.197,0.254,0.387,0.515,0.57,0.78
		c0.848,1.228,1.559,2.551,2.14,3.924c0.61,1.446,1.071,2.956,1.394,4.493c0.334,1.618,0.508,3.273,0.527,4.926
		C37.882,26.333,37.719,28.132,37.37,29.893"/>
</g>
</svg>
