<?xml version="1.0" encoding="utf-8"?>
<!-- Generator: Adobe Illustrator 18.0.0, SVG Export Plug-In . SVG Version: 6.00 Build 0)  -->
<!DOCTYPE svg PUBLIC "-//W3C//DTD SVG 1.1//EN" "http://www.w3.org/Graphics/SVG/1.1/DTD/svg11.dtd">
<svg version="1.1" id="Layer_1" xmlns="http://www.w3.org/2000/svg" xmlns:xlink="http://www.w3.org/1999/xlink" x="0px" y="0px"
	 viewBox="17 2.9 170 30.1" enable-background="new 17 2.9 170 30.1" xml:space="preserve">
<g>
	<g>
		<path fill="#292202" d="M48.1,13.2h4.4c1.1,0,2,0.3,2.6,0.9c0.4,0.4,0.7,1,0.7,1.6v0c0,1.2-0.7,1.8-1.4,2.2c1.1,0.4,1.9,1,1.9,2.4
			v0c0,1.7-1.4,2.7-3.6,2.7h-4.5L48.1,13.2L48.1,13.2L48.1,13.2z M52.1,17.4c1.1,0,1.8-0.4,1.8-1.3v0c0-0.8-0.6-1.2-1.7-1.2h-2.5
			v2.6L52.1,17.4L52.1,17.4z M52.6,21.5c1.2,0,1.9-0.5,1.9-1.3v0c0-0.8-0.7-1.3-2-1.3h-2.7v2.7H52.6z"/>
		<path fill="#292202" d="M57.6,20.3v-4.7h1.7v4.2c0,1.1,0.6,1.8,1.6,1.8c1,0,1.7-0.7,1.7-1.8v-4.2h1.7V23h-1.7v-1.1
			c-0.5,0.7-1.2,1.3-2.3,1.3C58.5,23.2,57.6,22,57.6,20.3"/>
		<path fill="#292202" d="M65.6,19.4L65.6,19.4c0-2.1,1.5-3.9,3.6-3.9c2.3,0,3.5,1.8,3.5,4c0,0.2,0,0.3,0,0.5h-5.4
			c0.2,1.2,1,1.9,2.1,1.9c0.8,0,1.4-0.3,2-0.9l1,0.9c-0.7,0.8-1.7,1.4-3,1.4C67.3,23.2,65.6,21.6,65.6,19.4 M71.1,18.8
			c-0.1-1.1-0.8-1.9-1.9-1.9c-1,0-1.8,0.8-1.9,1.9H71.1z"/>
		<path fill="#292202" d="M74.2,15.6h1.7v1.1c0.5-0.7,1.2-1.3,2.3-1.3c1.7,0,2.6,1.1,2.6,2.8V23h-1.7v-4.2c0-1.1-0.6-1.8-1.6-1.8
			c-1,0-1.7,0.7-1.7,1.8V23h-1.7L74.2,15.6L74.2,15.6z"/>
		<path fill="#292202" d="M82.1,19.4L82.1,19.4c0-2.1,1.7-3.9,3.9-3.9c2.3,0,3.9,1.7,3.9,3.8v0c0,2.1-1.7,3.8-3.9,3.8
			C83.8,23.2,82.1,21.5,82.1,19.4 M88.3,19.4L88.3,19.4c0-1.3-0.9-2.4-2.3-2.4c-1.4,0-2.2,1.1-2.2,2.3v0c0,1.3,0.9,2.4,2.2,2.4
			C87.4,21.7,88.3,20.6,88.3,19.4"/>
		<path fill="#292202" d="M90.8,22l0.8-1.1c0.8,0.6,1.7,0.9,2.4,0.9c0.7,0,1.1-0.3,1.1-0.8v0c0-0.6-0.8-0.8-1.6-1
			c-1.1-0.3-2.3-0.7-2.3-2.2v0c0-1.4,1.2-2.2,2.6-2.2c0.9,0,1.9,0.3,2.7,0.8l-0.7,1.2c-0.7-0.4-1.5-0.7-2.1-0.7c-0.7,0-1,0.3-1,0.7
			v0c0,0.5,0.8,0.8,1.7,1c1.1,0.3,2.3,0.8,2.3,2.1v0c0,1.5-1.2,2.3-2.7,2.3C92.9,23.1,91.7,22.8,90.8,22"/>
		<path fill="#292202" d="M105.7,13.2h1.6l4.3,9.8h-1.8l-1-2.4h-4.6l-1,2.4h-1.8L105.7,13.2z M108.1,19.1l-1.7-3.9l-1.7,3.9H108.1z"
			/>
		<path fill="#292202" d="M112.8,12.9h1.8v1.6h-1.8V12.9z M112.9,15.6h1.7V23h-1.7V15.6z"/>
		<path fill="#292202" d="M116.5,15.6h1.7v1.7c0.5-1.1,1.3-1.9,2.6-1.8v1.8h-0.1c-1.5,0-2.5,1-2.5,2.9V23h-1.7V15.6z"/>
		<path fill="#292202" d="M121.3,19.4L121.3,19.4c0-2.1,1.5-3.9,3.6-3.9c2.3,0,3.5,1.8,3.5,4c0,0.2,0,0.3,0,0.5H123
			c0.2,1.2,1,1.9,2.1,1.9c0.8,0,1.4-0.3,2-0.9l1,0.9c-0.7,0.8-1.7,1.4-3,1.4C122.9,23.2,121.3,21.6,121.3,19.4 M126.7,18.8
			c-0.1-1.1-0.8-1.9-1.9-1.9c-1,0-1.8,0.8-1.9,1.9H126.7z"/>
		<path fill="#292202" d="M129.2,22l0.8-1.1c0.8,0.6,1.7,0.9,2.4,0.9c0.7,0,1.1-0.3,1.1-0.8v0c0-0.6-0.8-0.8-1.6-1
			c-1.1-0.3-2.3-0.7-2.3-2.2v0c0-1.4,1.2-2.2,2.6-2.2c0.9,0,1.9,0.3,2.7,0.8l-0.7,1.2c-0.7-0.4-1.5-0.7-2.1-0.7c-0.7,0-1,0.3-1,0.7
			v0c0,0.5,0.8,0.8,1.7,1c1.1,0.3,2.3,0.8,2.3,2.1v0c0,1.5-1.2,2.3-2.7,2.3C131.3,23.1,130.2,22.8,129.2,22"/>
		<path fill="#292202" d="M140.2,18.2L140.2,18.2c0-2.8,2.1-5.1,5-5.1c1.8,0,2.9,0.6,3.8,1.5l-1.1,1.3c-0.8-0.7-1.6-1.2-2.7-1.2
			c-1.9,0-3.2,1.5-3.2,3.4v0c0,1.9,1.4,3.5,3.2,3.5c1.2,0,2-0.5,2.8-1.3l1.1,1.1c-1,1.1-2.1,1.7-4,1.7
			C142.3,23.2,140.2,21,140.2,18.2"/>
		<path fill="#292202" d="M150.5,12.9h1.8v1.6h-1.8V12.9z M150.6,15.6h1.7V23h-1.7V15.6z"/>
		<path fill="#292202" d="M154.1,20.3v-4.7h1.7v4.2c0,1.1,0.6,1.8,1.6,1.8c1,0,1.7-0.7,1.7-1.8v-4.2h1.7V23H159v-1.1
			c-0.5,0.7-1.2,1.3-2.3,1.3C155,23.2,154.1,22,154.1,20.3"/>
		<path fill="#292202" d="M162.2,19.3L162.2,19.3c0-2.5,1.7-3.8,3.4-3.8c1.2,0,2,0.6,2.5,1.3v-4h1.7V23h-1.7v-1.2
			c-0.5,0.8-1.3,1.4-2.5,1.4C163.8,23.2,162.2,21.8,162.2,19.3 M168.1,19.3L168.1,19.3c0-1.4-1-2.4-2.1-2.4c-1.2,0-2.1,0.9-2.1,2.4
			v0c0,1.4,1,2.4,2.1,2.4C167.1,21.7,168.1,20.7,168.1,19.3"/>
		<path fill="#292202" d="M176.1,23v-0.9c-0.5,0.6-1.3,1.1-2.4,1.1c-1.4,0-2.6-0.8-2.6-2.3v0c0-1.6,1.3-2.4,3-2.4
			c0.9,0,1.5,0.1,2,0.3v-0.1c0-1-0.6-1.6-1.8-1.6c-0.8,0-1.4,0.2-2.1,0.5l-0.5-1.4c0.8-0.4,1.6-0.6,2.8-0.6c2.2,0,3.2,1.1,3.2,3.1
			V23L176.1,23L176.1,23z M176.1,19.9c-0.4-0.2-1-0.3-1.7-0.3c-1.1,0-1.7,0.4-1.7,1.1v0c0,0.7,0.6,1.1,1.4,1.1c1.1,0,2-0.6,2-1.5
			L176.1,19.9L176.1,19.9z"/>
		<path fill="#292202" d="M179.1,19.3L179.1,19.3c0-2.5,1.7-3.8,3.4-3.8c1.2,0,2,0.6,2.5,1.3v-4h1.7V23h-1.7v-1.2
			c-0.5,0.8-1.3,1.4-2.5,1.4C180.8,23.2,179.1,21.8,179.1,19.3 M185.1,19.3L185.1,19.3c0-1.4-1-2.4-2.1-2.4c-1.2,0-2.1,0.9-2.1,2.4
			v0c0,1.4,1,2.4,2.1,2.4C184.1,21.7,185.1,20.7,185.1,19.3"/>
		<path fill="#292202" d="M29.1,7.8C29,7.8,29,7.9,29,8C29,8,29,8.1,29.1,8.1c0.1,0,0.1-0.1,0.1-0.1C29.3,7.9,29.2,7.8,29.1,7.8"/>
		<path fill="#292202" d="M36.3,10L36.3,10c-0.8,0-1.5-0.3-2.2-0.6c-0.3-0.1-0.6-0.2-0.9-0.3c-0.6-0.2-1.1-0.3-1.5-0.3
			c-0.1,0-0.2,0-0.4,0c-0.3,0-0.8,0-1,0.3c-0.1-0.4-0.2-0.7-0.3-1.1c-0.1-0.4-0.3-0.8-0.7-0.9c-0.1,0-0.1,0-0.2,0
			c-0.4,0-0.7,0.3-0.8,0.5l-0.1,0.1C28.1,8,28,8.1,28.1,8.2c0,0.1,0.2,0.2,0.5,0.4c0.1,0.1,0.2,0.3,0.2,0.4l0,0c0,0.2,0,0.4,0,0.6
			c-0.4-0.4-1.1-0.6-1.7-0.7c-0.2,0-0.3,0-0.5,0c-0.7,0-1.4,0.3-1.8,0.5c-0.3,0.1-0.5,0.2-0.7,0.3c-0.5,0.2-1,0.5-1.5,0.6
			c-0.2,0-0.3,0.1-0.5,0.1h0c0,0,0,0,0,0l0,0c-0.1,0-0.2,0.1-0.2,0.2c0,0.1,0,0.2,0.1,0.3c0.4,0.2,0.8,0.3,1.4,0.3
			c0.1,0,0.2,0,0.4,0c0.2,0,0.3,0,0.5-0.1c0.3,0,0.5-0.1,0.8-0.1c0.2,0,0.3,0,0.5,0c0.4,0.1,0.7,0.5,0.9,0.9
			c0.1,0.1,0.1,0.2,0.2,0.3l0,0c0.1,0.1,0.3,0.4,0.3,0.6c0,0.2-0.3,0.3-0.4,0.4c0,0-0.1,0.1-0.1,0.1c-0.1,0-0.1,0.1-0.2,0.1
			c-0.4,0.3-1,0.6-0.9,1.1c0,0.2,0.2,0.4,0.5,0.5c0,0,0,0,0.1,0c0.2,0,0.3-0.1,0.5-0.2c0.1,0,0.1-0.1,0.2-0.1
			c0.2-0.1,0.4-0.1,0.6-0.1c0.3,0,0.6,0.1,0.9,0.3c0.1,0.1,0.2,0.2,0.3,0.2c0.1,0.1,0.2,0.2,0.3,0.3c0.1,0.1,0.2,0.1,0.4,0.1
			c0.1,0,0.2-0.1,0.2-0.2c0.1-0.2,0-0.5,0-0.7c0-0.2,0-0.4,0-0.6c0-0.1,0-0.4,0.2-0.4c0.1,0,0.1,0,0.2,0c0.1,0,0.2,0,0.2,0
			c0.1,0,0.2,0,0.3,0c0.4-0.1,0.8-0.4,1-1c0.1-0.2,0.2-0.3,0.4-0.3c0.2-0.1,0.4-0.2,0.5-0.4c0,0,0.1-0.1,0.1-0.1
			c0.3-0.3,0.6-0.5,1.1-0.5c0.1,0,0.2,0,0.3,0c0.1,0,0.2,0,0.3,0c0.3,0,0.5,0.1,0.7,0.1c0.3,0,0.5,0,0.7-0.1
			c0.6-0.2,1.1-0.6,1.5-0.9l0.1-0.1c0.1-0.1,0.2-0.2,0.1-0.3C36.6,10.1,36.4,10,36.3,10 M26.6,11.7c-0.1-0.2-0.2-0.4-0.4-0.5
			c-0.3-0.4-0.8-0.6-1.4-0.6c-0.3,0-0.6,0-0.8,0.1c-0.3,0-0.6,0.1-0.8,0.1c-0.1,0-0.3,0-0.4,0c0.5-0.2,0.9-0.4,1.4-0.6
			c0.5-0.2,1-0.5,1.5-0.6c0.3-0.1,0.6-0.1,1-0.1c0.6,0,1.2,0.2,1.6,0.5c0.4,0.3,0.5,0.5,0.4,0.9c-0.1,0.4-0.4,0.8-0.7,1.2
			c0,0,0,0.1-0.1,0.1c-0.1,0.2-0.4,0.5-0.6,0.5c-0.1,0-0.1,0-0.2-0.1C26.9,12.1,26.8,11.9,26.6,11.7 M30.4,12.3
			c0,0.3-0.2,0.6-0.4,0.8c-0.2,0.2-0.4,0.2-0.6,0.2c0,0-0.1,0-0.1,0c0,0-0.1,0-0.1,0c-0.2,0-0.3,0.1-0.4,0.2c-0.3,0.3-0.3,1-0.3,1.5
			V15l0,0c-0.4-0.4-0.8-0.7-1.3-0.8c-0.1,0-0.2,0-0.3,0c-0.2,0-0.3,0-0.5,0.1c-0.2,0-0.3,0.1-0.4,0.2c-0.1,0-0.1,0-0.2,0.1
			c-0.1,0-0.2,0.1-0.2,0.1c0,0,0,0,0,0c0,0,0,0,0,0c0.1-0.2,0.3-0.3,0.4-0.4l0,0c0.4-0.3,0.8-0.6,1.2-0.9c0.7-0.5,1.5-1.2,1.9-2.2
			c0.2-0.5,0.3-1.1,0.3-1.7l0,0c0-0.3,0-0.5-0.1-0.7c-0.1-0.2-0.2-0.3-0.4-0.4c0,0-0.1,0-0.1,0c0.1-0.1,0.3-0.5,0.5-0.5
			c0.1,0,0.2,0.1,0.3,0.2c0.3,0.4,0.4,0.8,0.5,1.2c0,0.1,0,0.1,0.1,0.2C30.2,10,30.6,11.3,30.4,12.3 M35.2,10.8
			c-0.4,0.2-0.7,0.3-1,0.3h0c-0.2,0-0.4,0-0.6-0.1c-0.2,0-0.4,0-0.5-0.1c-0.4,0-0.8,0.1-1.1,0.2c-0.2,0.1-0.3,0.3-0.5,0.4
			c-0.1,0.1-0.2,0.2-0.3,0.3c0,0-0.1,0.1-0.1,0.1h0c0,0-0.1,0,0-0.1c0,0,0,0,0-0.1c0-0.2,0-0.3-0.1-0.5l0-0.1c0-0.3-0.1-0.6-0.1-0.9
			c0,0,0-0.1-0.1-0.2c-0.1-0.3-0.2-0.6,0-0.7c0.1-0.1,0.3-0.1,0.5-0.1c0,0,0.2,0,0.3,0h0.1c0.2,0,0.4,0,0.6,0c0.4,0,0.7,0.1,1.2,0.3
			c0.2,0.1,0.5,0.2,0.7,0.3c0.5,0.2,1.1,0.4,1.7,0.5C35.6,10.6,35.4,10.7,35.2,10.8"/>
		<path fill="#292202" d="M41.3,15.1c-0.2-1-0.4-2.1-0.8-3.1c-0.3-1-0.8-1.9-1.3-2.7C38.9,8.7,38.5,8,38,7.4
			c-0.6-0.8-1.4-1.5-2.1-2.1c-0.8-0.6-1.6-1.1-2.5-1.5c-0.9-0.4-1.8-0.6-2.8-0.8c-1-0.1-2-0.1-3,0c-1,0.2-1.9,0.4-2.8,0.8
			c-0.9,0.4-1.7,0.9-2.5,1.5c-0.8,0.6-1.5,1.4-2.1,2.1c-0.6,0.8-1.1,1.6-1.6,2.5c-0.5,0.9-0.8,1.9-1.1,2.8c-0.3,1-0.5,2.1-0.6,3.1
			c-0.1,1.1-0.1,2.2,0,3.3c0.1,1.1,0.3,2.1,0.5,3.2c0.3,1,0.6,2,1,2.9c0.4,0.9,0.9,1.7,1.5,2.5c0.7,0.9,2.3,2.5,2.3,2.5
			c2,1.6,4.4,2.6,6.9,2.6h0c1,0,2-0.1,2.9-0.4c0.9-0.3,1.8-0.7,2.7-1.2c0.8-0.5,1.6-1.1,2.3-1.8c0.7-0.7,1.3-1.5,1.9-2.3
			c0.5-0.8,1-1.7,1.4-2.7c0.4-1,0.7-2,0.9-3c0.2-1.1,0.3-2.1,0.4-3.2C41.6,17.3,41.5,16.2,41.3,15.1 M19.4,22.3h-0.3l0.3-1.1
			c0-0.1,0-0.1,0.1,0C19.4,21.6,19.4,22,19.4,22.3 M19.5,19.4l-0.6-0.3c0,0,0,0,0,0h1.4c0,0,0,0,0,0l-0.6,0.3
			C19.6,19.4,19.6,19.4,19.5,19.4 M18.7,18.8l0.7-0.5c0,0.2,0,0.3,0,0.5H18.7z M19,17.1h1.2c0,0,0,0,0,0l-0.5,0.3c0,0-0.1,0-0.1,0
			L19,17.1C18.9,17.1,18.9,17.1,19,17.1 M18.8,16.8l0.7-0.4c0,0.1,0,0.3,0,0.4H18.8z M19.7,16.4l0.6,0.4h-0.6
			C19.7,16.7,19.7,16.6,19.7,16.4 M19.7,18.3l0.7,0.5h-0.7C19.7,18.6,19.7,18.5,19.7,18.3 M19.8,22.3c0-0.4,0-0.7,0-1.1c0,0,0,0,0,0
			l0.3,1.1H19.8z M29.1,32c-1.9,0-3.7-0.6-5.2-1.6c1.2,0,2.4,0.2,3.6,0.3c1.2,0.2,2.4,0.4,3.6,0.5c0.5,0,0.9,0.1,1.4,0.1
			C31.5,31.7,30.3,32,29.1,32 M34.7,30.2c-1.2,0.1-2.4,0.1-3.6-0.1c-1.2-0.1-2.4-0.3-3.6-0.5c-1.2-0.2-2.5-0.3-3.7-0.3
			c-0.4,0-0.8,0-1.3,0.1c-0.4-0.4-0.8-0.7-1.1-1.1c1.2-0.2,2.5-0.2,3.8-0.1c1.3,0.1,2.5,0.3,3.8,0.5c0.6,0.1,1.3,0.2,1.9,0.3
			c0.3,0,1.5,0.1,1.9,0.1c1.2,0,2.5-0.1,3.7-0.3C35.9,29.2,35.3,29.7,34.7,30.2 M37.5,27.4c-1.2,0.3-2.4,0.4-3.7,0.5
			c-0.6,0-1.2,0-1.8,0c-0.6,0-1.2-0.1-1.9-0.2c-1.2-0.2-2.5-0.4-3.7-0.5c-1.2-0.1-2.5-0.2-3.7-0.1c-0.7,0-1.4,0.1-2,0.2
			c-0.2-0.3-0.4-0.6-0.6-1c1.1-0.2,2.2-0.4,3.3-0.4c1.1,0,2.3,0,3.4,0.2c1.1,0.1,2.2,0.3,3.3,0.5c1,0.1,2,0.2,3,0.2h0
			c1,0,2.1-0.1,3.1-0.3c0.8-0.1,1.5-0.3,2.2-0.5C38.2,26.5,37.9,26.9,37.5,27.4 M20.9,23.5c-0.5-0.3-0.6-0.9-0.6-1l1.6-3.8
			c0-0.1,0.1,0,0,0L20.9,23.5z M22,19.9c0,1.7,0,3.3-0.1,4.1c-0.3-0.1-0.6-0.2-0.8-0.4L22,19.9C21.9,19.8,22,19.9,22,19.9
			 M21.5,16.6h1.2c0,0,0,0,0,0l-0.5,0.3c0,0-0.1,0-0.1,0L21.5,16.6C21.5,16.6,21.5,16.6,21.5,16.6 M21.4,16.3l0.6-0.4
			c0,0.1,0,0.3,0,0.4H21.4z M22.3,15.9l0.6,0.4h-0.6C22.3,16.2,22.3,16.1,22.3,15.9 M23.6,21.5c0,0.8,0,1.6-0.1,2.3c0,0,0,0,0,0
			L23,21.4l0.3-0.7L23.6,21.5z M23.4,20.5l0.2-0.5c0,0,0,0,0,0c0,0.3,0,0.7,0,1L23.4,20.5z M22.8,21.8l0.5,2.1
			C23.2,24,22.9,24,22.7,24c-0.1,0-0.1,0-0.2,0c0,0-0.1,0-0.1,0c0-0.3,0-0.7,0-1.3L22.8,21.8z M22.4,22.3c0-0.7,0-1.5,0-2.4
			c0-0.1,0-0.1,0.1,0l0.3,1.5L22.4,22.3z M22.9,21.1l-0.6-2.4c0,0,0-0.1,0,0l0.8,1.8L22.9,21.1z M23.9,21.8v-0.4c0-0.6,0-0.9,0-1.5
			c0,0,0-0.1,0,0l1,2.4c-0.2,0.3-0.2,0.4-0.4,0.7L23.9,21.8z M24.3,23.2c-0.1,0.1-0.2,0.2-0.3,0.3c0-0.3,0-0.8,0-1.1L24.3,23.2z
			 M25.3,22.3l1.1-2.4c0,0.7,0,1.7-0.1,2.4h-0.5C25.7,22.3,25.5,22.3,25.3,22.3 M33.2,19.3h1.6c0,0,0.1,0,0,0c0,0-0.7,0.3-0.7,0.3
			c0,0-0.1,0-0.1,0L33.2,19.3C33.1,19.3,33.2,19.3,33.2,19.3 M33,18.9l0.8-0.6c0,0.2,0,0.6,0,0.6H33z M33.3,16.6
			C33.3,16.6,33.3,16.6,33.3,16.6l1.4,0c0,0,0,0,0,0h0h0c0,0,0,0,0,0l-0.6,0.3c0,0-0.1,0-0.1,0L33.3,16.6
			C33.3,16.6,33.3,16.6,33.3,16.6 M33.2,16.3l0.7-0.5c0,0.2,0,0.3,0,0.5H33.2z M34.1,15.8l0.7,0.5h-0.7C34.1,16.1,34.1,16,34.1,15.8
			 M34.2,18.4l0.8,0.6h-0.8C34.2,18.8,34.2,18.6,34.2,18.4 M36.6,17.7h1.4c0,0,0,0,0,0L37.3,18c0,0-0.1,0-0.1,0L36.6,17.7
			C36.5,17.7,36.5,17.7,36.6,17.7 M36.4,17.4l0.7-0.5c0,0.2,0,0.3,0,0.5H36.4z M37.4,16.9l0.7,0.5h-0.7
			C37.4,17.3,37.4,17.1,37.4,16.9 M37.1,19.9c0,1.7-0.1,3.4-0.1,4.7c-0.4,0.1-0.7,0.2-1.1,0.1l0.7-3L37.1,19.9
			C37.1,19.8,37.1,19.8,37.1,19.9 M37,19.2l-1.2,5.3L35.3,23l0,0L37,19.2C37,19,37,19,37,19.2 M35.7,24.6c-0.4-0.1-0.7-0.3-0.9-0.5
			l0.4-0.9L35.7,24.6z M34.7,24c-0.2-0.2-0.4-0.5-0.4-0.6c0-0.8,0-2,0-3.3l0.9,2.8L34.7,24z M32.7,23.4h-2l2.9-3.3L32.7,23.4z
			 M33.8,20.2c0,0.7,0,3.1,0,3.2h-0.9L33.8,20.2z M37.4,19.9C37.4,19.8,37.5,19.8,37.4,19.9l0.9,3.5c-0.2,0.4-0.5,0.7-0.8,0.9
			C37.5,23.6,37.5,19.9,37.4,19.9 M38.5,23.4l-1-4.2c0-0.3,0-0.2,0.1-0.1l1.8,4.3H38.5z M40.1,21.3c-0.1,0.7-0.3,1.3-0.5,2l-2.2-5.2
			l1-0.4c0.1,0,0.1-0.2,0-0.2c0,0-0.9-0.7-1-0.7l0-1.6c0.1,0,0.2-0.1,0.3-0.1c0.1,0,0.2,0,0.4,0c0.1,0,0.2,0,0.3,0
			c0.1,0,0.2-0.1,0.3-0.2c-0.2,0-0.5-0.2-0.7-0.3c-0.1-0.1-0.2-0.1-0.4-0.1c-0.1,0-0.3,0-0.4,0c0-0.1,0-0.2,0-0.3h0
			c-0.1,0.4-0.1,0.9-0.1,1.4c0,0.3,0,0.6,0,0.9c0,0.1,0,0.1,0,0.2l-1,0.7c-0.1,0.1-0.1,0.2,0,0.2l0,0l0.9,0.4l-1.9,4.6l-1-2.9
			l1.1-0.5c0.1-0.1,0.1-0.2,0-0.3c0,0-1-0.7-1.1-0.8c0-0.4,0-0.8,0-1.1l1-0.5l0,0c0.1,0,0.1-0.2,0-0.2c0,0-0.9-0.6-1-0.7
			c0-0.7,0-1.4,0-2.2c0.1,0,0.1,0,0.2,0c0.1,0,0.1,0,0.2,0c0.1,0,0.2,0,0.4,0c0.1,0,0.2,0,0.4,0c0.1,0,0.2-0.1,0.3-0.2
			c-0.3,0-0.5-0.2-0.7-0.3c-0.1-0.1-0.2-0.1-0.4-0.1c-0.1,0-0.3,0-0.4,0c0-0.1,0-0.2,0-0.3h0v0c-0.1,0.4-0.1,0.8-0.1,1.2
			c0,0.4,0,0.7,0,1.1c0,0.2,0,0.5,0,0.7l-1,0.7c-0.1,0.1-0.1,0.2,0,0.2l1,0.5h0c0,0.4,0,0.8,0,1.1L32.7,19c-0.1,0.1-0.1,0.2,0,0.3
			l1.1,0.5l-3.3,3.6c-0.1,0-0.5,0-0.5,0.1c-0.1,0.1-0.1,0.2-0.1,0.3c0,0.1,0.2,0.2,0.3,0.3c0.1,0,0.1,0.1,0.2,0.1c0,0,0,0,0,0
			c0,0,0.3,1,1.6,1.4l0,0c0,0,0,0,0,0c0,0,0,0,0,0c0,0,0,0,0,0c-1.2-0.1-2.4-0.3-3.6-0.5c-0.5-0.1-0.9-0.1-1.4-0.2
			c-0.3,0-0.6-0.1-0.9-0.1c0,0,0,0-0.1,0v0c0,0,0,0,0,0v0c0,0,0,0,0,0c0,0,0,0,0,0c0,0,0,0,0,0c1.7-0.5,2-1.7,2-1.7c0,0,0,0,0.1,0
			c0,0,0.1,0,0.1-0.1c0.1-0.1,0.2-0.1,0.3-0.3c0-0.1,0-0.2-0.1-0.3c-0.1-0.1-0.5-0.1-0.5-0.1l0,0h-0.1c0-0.3,0-0.9,0-1.4
			c0.1,0,0.1,0,0.2,0c0.1,0,0.1,0,0.2-0.1c0.1,0,0.3,0,0.4,0c0.1,0,0.3,0,0.4,0c0.1,0,0.2-0.1,0.3-0.2c-0.3,0-0.5-0.2-0.7-0.3
			c-0.1-0.1-0.2-0.1-0.4-0.1c-0.1,0-0.3,0-0.4,0c0-0.1,0-0.2,0-0.3h0c-0.1,0.4-0.1,1.7-0.1,2.2l-0.8,0c0-0.9-0.1-2.1-0.1-2.9
			l0.7-1.6c0.1,0,0.2,0.1,0.3,0.1c0.1,0,0.2,0.1,0.3,0.2c0.1,0.1,0.2,0.1,0.3,0.2c0.1,0,0.2,0,0.4,0c-0.2-0.1-0.3-0.4-0.4-0.5
			c-0.1-0.1-0.2-0.2-0.3-0.3c-0.1-0.1-0.2-0.2-0.3-0.2c0-0.1,0.1-0.2,0.1-0.3c0,0,0,0,0,0c0,0,0,0,0,0c0,0,0,0-0.1,0.1
			c-0.1,0.1-0.2,0.2-0.2,0.3L26.7,19c0-0.3,0-0.5,0-0.8c0-0.3,0-0.7-0.1-1h0c-0.1,0.4-0.1,0.8-0.1,1.2c0,0.4,0,0.7,0,1.1l-1.3,2.8
			l-1.2-2.9c0-0.4,0-0.7,0-1.1c0-0.4,0-0.8-0.1-1.2h0c-0.1,0.4-0.1,0.8-0.1,1.2c0,0.4,0,0.7,0,1.1l-0.4,0.9L22.3,18
			c0-0.4,0-0.7,0-1.1l0.9-0.4c0.1,0,0.1-0.2,0-0.2c0,0-0.7-0.5-0.9-0.6c0-0.8,0-1.5,0-2.3c0.1,0,0.1,0,0.2,0c0.1,0,0.1,0,0.2,0
			c0.1,0,0.2,0,0.4,0c0.1,0,0.2,0,0.4,0c0.1,0,0.2-0.1,0.3-0.2c-0.2,0-0.4-0.2-0.7-0.3c-0.1-0.1-0.2-0.1-0.4-0.1c-0.1,0-0.3,0-0.4,0
			c0-0.1,0-0.2,0-0.3h0c-0.1,0.5-0.1,1-0.1,1.5c0,0.5,0,0.9,0,1.4c0,0.1,0,0.2,0,0.3l-0.9,0.6c-0.1,0-0.1,0.2,0,0.2L22,17
			c0,0.4,0,1,0,1.1l-1.7,4.1L20,21.2h0.2v0h0.1c0,0,0.1,0,0.1,0c0,0,0.1,0,0.1-0.1c0,0-0.1-0.1-0.1-0.1c0,0-0.1,0-0.2,0h-0.4
			l-0.2-0.6c0-0.3,0-0.5,0-0.8l1-0.4c0.1-0.1,0.1-0.2,0-0.2c0,0-0.9-0.7-1-0.7c0-0.2,0-0.5,0-0.6l0.9-0.4c0.1,0,0.1-0.2,0-0.2
			c0,0-0.8-0.6-0.9-0.6c0-0.6,0-1.1,0-1.1c0.1,0,0.2,0,0.3-0.1c0.1,0,0.2,0,0.3,0c0.1,0,0.2,0,0.3,0c0.1,0,0.2-0.1,0.3-0.1
			c-0.2,0-0.4-0.1-0.6-0.2c-0.1,0-0.2-0.1-0.3-0.1c-0.1,0-0.2,0-0.3,0c0-0.1,0-0.2,0-0.3h0c-0.1,0.3-0.1,0.7-0.1,1
			c0,0.3,0,0.5,0,0.8l-0.9,0.6c-0.1,0-0.1,0.2,0,0.2l0.9,0.4c0,0.2,0,0.4,0,0.6l-1,0.7c-0.1,0-0.1,0.2,0,0.2l1,0.5
			c0,0.3,0,0.5,0,0.8L19.2,21h-0.4c0,0-0.1,0-0.1,0c0,0-0.1,0-0.1,0.1c0,0,0.1,0.1,0.1,0.1c0.1,0,0.1,0,0.2,0h0.1c0,0,0,0,0,0h0.2
			l-0.3,1.1h-0.5c-0.3-1.1-0.5-2.2-0.5-3.4c-0.1-1.1,0-2.3,0.1-3.4c0.1-1,0.4-2.1,0.7-3.1c0.3-0.9,0.8-1.9,1.3-2.7
			c0.3-0.5,0.6-0.9,0.9-1.3c1.3,0.4,3,0,3,0c1.5-0.3,2.5-0.2,3-0.1l0.3,0.1c0-0.2,0.1-0.3,0.1-0.5c-1.6-0.5-3.4-0.3-3.4-0.3
			c-1.1,0.1-1.7-0.1-2.1-0.3c0,0,0.7-0.7,1.2-1.1c0.5,0.4,1.1,0.5,1.7,0.6c0.4,0.1,0.8,0.1,1.2,0.2c0.4,0.1,0.8,0.2,1.1,0.3
			c0.1,0,0.3,0.1,0.4,0.2c0.1-0.2,0.2-0.3,0.3-0.4l-0.2-0.2c-0.5-0.3-1-0.4-1.5-0.6c-0.3-0.1-0.7-0.2-1-0.4
			c-0.4-0.2-0.7-0.5-0.7-0.5c0,0,0.8-0.5,1.5-0.7c0.3,0.5,0.9,0.7,1.4,1.1c0.6,0.5,0.9,1,0.9,1c0.1-0.1,0.3-0.2,0.4-0.2
			c-0.2-0.5-0.6-1.1-1-1.5c-0.2-0.2-0.5-0.5-0.5-0.8c0,0,0.9-0.2,1.7-0.2l0.3,2.4c0.1,0,0.3,0,0.3,0s0.1,0,0.3,0l0.3-2.4
			c0,0,0.6,0,1.2,0.1c0.3,0.1,0.5,0.1,0.5,0.1c-0.1,0.3-0.4,0.6-0.5,0.8c-0.4,0.4-0.7,1-1,1.5c0.1,0.1,0.3,0.1,0.4,0.2
			c0.3-0.4,0.6-0.8,0.9-1c0.4-0.4,1-0.6,1.4-1.1c0.1,0,0.5,0.2,1,0.5l0.4,0.3c0,0-0.5,0.4-0.7,0.5c-0.3,0.2-0.7,0.3-1,0.4
			c-0.5,0.2-1,0.3-1.5,0.6l-0.3,0.2c0.1,0.1,0.2,0.3,0.3,0.4c0.1,0,0.3-0.1,0.4-0.2C31.6,7.2,32,7.1,32.4,7c0.4-0.1,0.8-0.1,1.1-0.2
			c0.6-0.1,1.2-0.3,1.7-0.6c0.6,0.5,1.2,1.1,1.2,1.1c-0.3,0.2-1,0.4-2.1,0.3c0,0-1.8-0.2-3.4,0.3c0,0.1,0.1,0.3,0.1,0.5l0.3-0.1
			c0.6-0.1,1.5-0.1,3,0.2c0,0,1.7,0.4,3,0c0.1,0.2,0.3,0.3,0.4,0.5c0.6,0.8,1,1.7,1.4,2.6c0.4,1,0.7,2,0.9,3
			c0.2,1.1,0.3,2.2,0.3,3.3C40.5,19,40.4,20.2,40.1,21.3"/>
	</g>
</g>
</svg>
