<?xml version="1.0" encoding="utf-8"?>
<!-- Generator: Adobe Illustrator 16.0.0, SVG Export Plug-In . SVG Version: 6.00 Build 0)  -->
<!DOCTYPE svg PUBLIC "-//W3C//DTD SVG 1.1//EN" "http://www.w3.org/Graphics/SVG/1.1/DTD/svg11.dtd">
<svg version="1.1" id="Capa_1" xmlns="http://www.w3.org/2000/svg" xmlns:xlink="http://www.w3.org/1999/xlink" x="0px" y="0px"
	 width="9.688px" height="9.688px" viewBox="0 0 9.688 9.688" enable-background="new 0 0 9.688 9.688" xml:space="preserve">
<g>
	<path fill="#FFFFFF" d="M6.218,4.204l3.033-3.09L8.51,0.409l-3.014,3.07c-0.012-0.006-0.025-0.014-0.037-0.02
		C4.917,3.211,4.307,3.297,3.862,3.633l2.207,2.182C6.131,5.731,6.187,5.637,6.233,5.54C6.434,5.096,6.415,4.61,6.218,4.204z"/>
	<path fill="#FFFFFF" d="M3.36,4.047C2.412,4.637,1.424,5.12,0.366,5.415c0.131,0.254,0.272,0.496,0.425,0.73l1.077-0.383
		L1.017,6.479c0.222,0.311,0.46,0.6,0.716,0.875L3.043,6.53L2.117,7.743c0.28,0.266,0.572,0.512,0.885,0.744l1.163-1.166
		L3.477,8.823c0.197,0.141,0.498,0.314,0.755,0.459c0.265-1.055,0.771-2.037,1.372-2.99L3.36,4.047z"/>
</g>
</svg>
