<?xml version="1.0" encoding="utf-8"?>
<!-- Generator: Adobe Illustrator 16.0.0, SVG Export Plug-In . SVG Version: 6.00 Build 0)  -->
<!DOCTYPE svg PUBLIC "-//W3C//DTD SVG 1.1//EN" "http://www.w3.org/Graphics/SVG/1.1/DTD/svg11.dtd">
<svg version="1.1" id="Capa_1" xmlns="http://www.w3.org/2000/svg" xmlns:xlink="http://www.w3.org/1999/xlink" x="0px" y="0px"
	 width="28.587px" height="22.765px" viewBox="0 0 28.587 22.765" enable-background="new 0 0 28.587 22.765" xml:space="preserve">
<g>
	<g>
		<!-- fill="#FF386A" -->
		<polygon fill="#FFFFFF" points="5.574,7.185 7.149,17.83 9.76,6.949 19.406,6.784 19.35,4.805 5.201,5.146 		"/>
		<g transform="matrix( 1, 0, 0, 1, 0,0) ">
			<g>
				<g id="a_9_">
					<path fill="#FFFFFF" d="M24.484,6.712c-0.056-0.037-0.122-0.129-0.194-0.129h-4.153l-0.366-2.04
						c-0.009-0.087-0.05-0.138-0.121-0.195c-0.065-0.057-0.142-0.063-0.231-0.063H4.803c-0.073,0-0.142,0.035-0.207,0.074
						C4.54,4.396,4.495,4.456,4.461,4.521C4.437,4.588,4.429,4.659,4.438,4.73l2.437,14.41c-0.002,0.021-0.002,0.045,0,0.061
						c0.008,0.019,0.125,0.23,0.125,0.23c0.047,0.034,0.107,0.063,0.157,0.069c0.02,0.008,0.051,0.021,0.07,0.021h14.627
						c0.087,0,0.165-0.038,0.231-0.094c0.068-0.055,0.108-0.126,0.123-0.209l2.436-12.062c0.017-0.07,0.009-0.18-0.025-0.252
						C24.595,6.843,24.551,6.753,24.484,6.712 M4.803,4.284l14.311,0.861l0.292,1.438H9.675c-0.087,0-0.164,0.099-0.231,0.155
						C9.375,6.791,9.331,6.896,9.31,6.978L7.263,17.167L5.229,5.146h13.962 M21.55,18.659H7.677L9.968,7.448h13.871L21.55,18.659z"
						/>
				</g>
			</g>
		</g>
	</g>
</g>
</svg>
