<?xml version="1.0" encoding="utf-8"?>
<!-- Generator: Adobe Illustrator 16.0.0, SVG Export Plug-In . SVG Version: 6.00 Build 0)  -->
<!DOCTYPE svg PUBLIC "-//W3C//DTD SVG 1.1//EN" "http://www.w3.org/Graphics/SVG/1.1/DTD/svg11.dtd">
<svg version="1.1" id="Capa_1" xmlns="http://www.w3.org/2000/svg" xmlns:xlink="http://www.w3.org/1999/xlink" x="0px" y="0px"
	 width="60.75px" height="32.333px" viewBox="0 0 60.75 32.333" enable-background="new 0 0 60.75 32.333" xml:space="preserve">
<g>
	<g>
		<path fill="#FFFFFF" d="M29.135,1.046c-3.06,0.031-6.1,0.265-8.979,0.704l6.32,23.4c0.787-0.108,1.681-0.188,2.693-0.213
			L29.135,1.046z"/>
		<path fill="#FFFFFF" d="M41.303,2.003l-6.359,23.513c1.293,0.311,2.201,0.665,2.627,0.85L49.412,4.377
			C47.127,3.362,44.367,2.561,41.303,2.003z"/>
		<path fill="#FFFFFF" d="M23.578,25.795c0.392-0.129,0.85-0.258,1.383-0.377L18.633,1.997c-2.523,0.461-4.889,1.082-6.963,1.885
			L23.578,25.795z"/>
		<path fill="#FFFFFF" d="M20.516,23.368l-4.924,2.924c-0.123,0.072-0.258,0.109-0.391,0.109c-0.264,0-0.517-0.137-0.661-0.377
			c-0.216-0.365-0.097-0.834,0.268-1.053l4.974-2.953l-1.683-3.098l-5.137,3.051c-0.12,0.073-0.257,0.109-0.392,0.109
			c-0.261,0-0.516-0.136-0.659-0.377c-0.215-0.363-0.095-0.834,0.267-1.049l5.187-3.083l-1.857-3.419l-5.137,3.055
			c-0.122,0.074-0.257,0.109-0.39,0.109c-0.263,0-0.518-0.135-0.662-0.379c-0.215-0.361-0.096-0.834,0.268-1.049l5.188-3.084
			L13.119,9.76l-5.123,3.043c-0.123,0.073-0.258,0.107-0.393,0.107c-0.26,0-0.518-0.133-0.658-0.375
			c-0.217-0.365-0.098-0.834,0.267-1.051l5.174-3.07l-2.121-3.909l0.106-0.059c-0.268,0.12-0.559,0.231-0.813,0.356L1.073,9.822
			l12.474,21.413l8.24-4.643c0,0,0.123-0.084,0.363-0.211L20.516,23.368z"/>
		<path fill="#FFFFFF" d="M39.779,1.764c-2.899-0.443-5.988-0.691-9.113-0.727l0.035,23.903c1.002,0.035,1.916,0.136,2.736,0.269
			L39.779,1.764z"/>
	</g>
	<path fill="#FFFFFF" d="M50.801,5.038L38.904,27.122l7.434,4.424L58.763,9.417L50.801,5.038z M43.696,25.867
		c-0.737,0-1.333-0.596-1.333-1.325c0-0.735,0.596-1.33,1.333-1.33c0.729,0,1.325,0.595,1.325,1.33
		C45.021,25.271,44.426,25.867,43.696,25.867z M47.892,23.485c-0.736,0-1.333-0.591-1.333-1.325c0-0.733,0.597-1.328,1.333-1.328
		c0.735,0,1.328,0.595,1.328,1.328C49.22,22.894,48.627,23.485,47.892,23.485z M47.892,18.651c-0.739,0-1.333-0.598-1.333-1.332
		c0-0.732,0.594-1.328,1.333-1.328c0.735,0,1.328,0.596,1.328,1.328C49.22,18.053,48.627,18.651,47.892,18.651z M49.907,10.344
		c0-0.736,0.595-1.33,1.327-1.33c0.738,0,1.329,0.594,1.329,1.33c0,0.732-0.591,1.327-1.329,1.327
		C50.502,11.671,49.907,11.077,49.907,10.344z M51.945,16.546c-0.736,0-1.327-0.598-1.327-1.331c0-0.734,0.591-1.33,1.327-1.33
		c0.733,0,1.328,0.596,1.328,1.33C53.273,15.949,52.679,16.546,51.945,16.546z"/>
</g>
</svg>
