<?xml version="1.0" encoding="utf-8"?>
<!-- Generator: Adobe Illustrator 16.0.0, SVG Export Plug-In . SVG Version: 6.00 Build 0)  -->
<!DOCTYPE svg PUBLIC "-//W3C//DTD SVG 1.1//EN" "http://www.w3.org/Graphics/SVG/1.1/DTD/svg11.dtd">
<svg version="1.1" id="Layer_1" xmlns="http://www.w3.org/2000/svg" xmlns:xlink="http://www.w3.org/1999/xlink" x="0px" y="0px"
	 width="69.667px" height="27.667px" viewBox="0 0 69.667 27.667" enable-background="new 0 0 69.667 27.667" xml:space="preserve">
<path fill="#99C25F" d="M67.667,22.991c0,1.657-1.343,3-3,3h-60c-1.657,0-3-1.343-3-3v-18c0-1.657,1.343-3,3-3h60
	c1.657,0,3,1.343,3,3V22.991z"/>
<text transform="matrix(1 0 0 1 15.3965 16.7422)" fill="#FFFFFF" font-family="'Chalet-NewYorkNineteenEighty'" font-size="9">Descargar</text>
<g>
	<path fill="#FFFFFF" d="M9.667,14.506c-0.21,0-0.38-0.172-0.38-0.381v-1.643c0-0.212,0.17-0.383,0.38-0.383
		c0.21,0,0.381,0.171,0.381,0.383v1.643C10.048,14.334,9.877,14.506,9.667,14.506z"/>
	<polygon fill="#FFFFFF" points="8.481,13.759 10.853,13.759 9.667,15.463 	"/>
	<path fill="#FFFFFF" d="M9.667,16.783c-1.719,0-3.118-1.398-3.118-3.118s1.399-3.118,3.118-3.118s3.119,1.398,3.119,3.118
		S11.386,16.783,9.667,16.783z M9.667,11.309c-1.299,0-2.356,1.058-2.356,2.356c0,1.3,1.058,2.356,2.356,2.356
		c1.299,0,2.357-1.057,2.357-2.356C12.024,12.366,10.966,11.309,9.667,11.309z"/>
</g>
</svg>
