<?xml version="1.0" encoding="utf-8"?>
<!-- Generator: Adobe Illustrator 16.0.0, SVG Export Plug-In . SVG Version: 6.00 Build 0)  -->
<!DOCTYPE svg PUBLIC "-//W3C//DTD SVG 1.1//EN" "http://www.w3.org/Graphics/SVG/1.1/DTD/svg11.dtd">
<svg version="1.1" id="Capa_1" xmlns="http://www.w3.org/2000/svg" xmlns:xlink="http://www.w3.org/1999/xlink" x="0px" y="0px"
	 width="13.833px" height="13.667px" viewBox="0 0 13.833 13.667" enable-background="new 0 0 13.833 13.667" xml:space="preserve">
<g>
	<path fill="#F8971D" d="M6.969,8.493c-0.414,0-0.75-0.336-0.75-0.75V4.507c0-0.414,0.336-0.75,0.75-0.75s0.75,0.336,0.75,0.75
		v3.235C7.719,8.157,7.383,8.493,6.969,8.493z"/>
	<polygon fill="#F8971D" points="4.633,7.023 9.305,7.023 6.969,10.378 	"/>
	<path fill="#F8971D" d="M6.969,12.98c-3.386,0-6.142-2.755-6.142-6.141c0-3.387,2.756-6.142,6.142-6.142s6.142,2.755,6.142,6.142
		C13.111,10.225,10.355,12.98,6.969,12.98z M6.969,2.198c-2.56,0-4.642,2.082-4.642,4.642c0,2.559,2.082,4.641,4.642,4.641
		s4.642-2.082,4.642-4.641C11.611,4.28,9.529,2.198,6.969,2.198z"/>
</g>
</svg>
