<?xml version="1.0" encoding="utf-8"?>
<!-- Generator: Adobe Illustrator 16.0.0, SVG Export Plug-In . SVG Version: 6.00 Build 0)  -->
<!DOCTYPE svg PUBLIC "-//W3C//DTD SVG 1.1//EN" "http://www.w3.org/Graphics/SVG/1.1/DTD/svg11.dtd">
<svg version="1.1" id="Layer_1" xmlns="http://www.w3.org/2000/svg" xmlns:xlink="http://www.w3.org/1999/xlink" x="0px" y="0px"
	 width="63.612px" height="64px" viewBox="0 0 63.612 64" enable-background="new 0 0 63.612 64" xml:space="preserve">
<path fill="#00B3E3" d="M61.843,54.987c0,3.851-3.15,7-7,7h-46c-3.85,0-7-3.149-7-7v-46c0-3.85,3.15-7,7-7h46c3.85,0,7,3.15,7,7
	V54.987z"/>
<path fill="#FFFFFF" d="M17.843,24.26v-3.953c0-0.37,0.127-0.683,0.381-0.938c0.256-0.254,0.566-0.381,0.937-0.381h3.956v-2.637
	h2.636v2.637h13.182v-2.637h2.636v2.637h3.955c0.369,0,0.681,0.127,0.937,0.381c0.253,0.256,0.382,0.568,0.382,0.938v3.953H17.843z
	 M46.843,26.896v19.772c0,0.354-0.129,0.66-0.382,0.923c-0.255,0.265-0.567,0.396-0.937,0.396H19.161
	c-0.371,0-0.681-0.132-0.937-0.396c-0.254-0.263-0.381-0.569-0.381-0.923V26.896H46.843z M20.48,34.806h2.637v-2.637H20.48V34.806z
	 M20.48,40.078h2.637v-2.636H20.48V40.078z M20.48,45.352h2.637v-2.638H20.48V45.352z M25.752,34.806h2.636v-2.637h-2.636V34.806z
	 M25.752,40.078h2.636v-2.636h-2.636V40.078z M25.752,45.352h2.636v-2.638h-2.636V45.352z M31.025,34.806h2.637v-2.637h-2.637
	V34.806z M31.025,40.078h2.637v-2.636h-2.637V40.078z M31.025,45.352h2.637v-2.638h-2.637V45.352z M36.298,34.806h2.636v-2.637
	h-2.636V34.806z M36.298,40.078h2.636v-2.636h-2.636V40.078z M36.298,45.352h2.636v-2.638h-2.636V45.352z M41.57,34.806h2.636
	v-2.637H41.57V34.806z M41.57,40.078h2.636v-2.636H41.57V40.078z M41.57,45.352h2.636v-2.638H41.57V45.352z"/>
</svg>
