<?xml version="1.0" encoding="utf-8"?>
<!-- Generator: Adobe Illustrator 16.0.0, SVG Export Plug-In . SVG Version: 6.00 Build 0)  -->
<!DOCTYPE svg PUBLIC "-//W3C//DTD SVG 1.1//EN" "http://www.w3.org/Graphics/SVG/1.1/DTD/svg11.dtd">
<svg version="1.1" id="Layer_1" xmlns="http://www.w3.org/2000/svg" xmlns:xlink="http://www.w3.org/1999/xlink" x="0px" y="0px"
	 width="63.612px" height="64px" viewBox="0 0 63.612 64" enable-background="new 0 0 63.612 64" xml:space="preserve">
<path fill="#00B3E3" d="M61.841,55.477c0,3.851-3.15,7-7,7h-46c-3.85,0-7-3.149-7-7v-46c0-3.85,3.15-7,7-7h46c3.85,0,7,3.15,7,7
	V55.477z"/>
<path fill="#FFFFFF" d="M22.528,47.257h-2.688V17.696h2.688V47.257z M46.714,31.133V17.696c-0.718,1.452-1.625,2.486-2.728,3.104
	c-1.103,0.618-2.244,0.883-3.427,0.793c-1.182-0.089-2.419-0.312-3.708-0.672c-1.29-0.356-2.54-0.716-3.749-1.074
	s-2.334-0.582-3.373-0.672s-1.961,0.175-2.768,0.793c-0.807,0.617-1.388,1.652-1.746,3.104v13.437
	c1.074-1.075,2.216-1.828,3.425-2.258c1.209-0.429,2.352-0.586,3.426-0.47c1.074,0.117,2.167,0.322,3.279,0.619
	c1.11,0.295,2.176,0.562,3.198,0.805S40.55,35.545,41.5,35.5s1.872-0.421,2.768-1.129C45.163,33.664,45.979,32.584,46.714,31.133"/>
</svg>
