<?xml version="1.0" encoding="utf-8"?>
<!-- Generator: Adobe Illustrator 16.0.0, SVG Export Plug-In . SVG Version: 6.00 Build 0)  -->
<!DOCTYPE svg PUBLIC "-//W3C//DTD SVG 1.1//EN" "http://www.w3.org/Graphics/SVG/1.1/DTD/svg11.dtd">
<svg version="1.1" id="Layer_1" xmlns="http://www.w3.org/2000/svg" xmlns:xlink="http://www.w3.org/1999/xlink" x="0px" y="0px"
	 width="63.611px" height="64px" viewBox="0 0 63.611 64" enable-background="new 0 0 63.611 64" xml:space="preserve">
<path fill="#19C3E3" d="M61.741,55.122c0,3.851-3.15,7-7,7h-46c-3.85,0-7-3.149-7-7v-46c0-3.85,3.15-7,7-7h46c3.85,0,7,3.15,7,7
	V55.122z"/>
<g>
	<g>
		<path fill="#FFFFFF" d="M31.742,36.541c-1.105,0-2.005-0.898-2.005-2v-8.648c0-1.108,0.9-2.004,2.005-2.004
			s2.003,0.896,2.003,2.004v8.648C33.745,35.643,32.847,36.541,31.742,36.541z"/>
		<polygon fill="#FFFFFF" points="25.502,32.613 37.984,32.613 31.742,41.578 		"/>
		<path fill="#FFFFFF" d="M31.742,48.527c-9.048,0-16.407-7.357-16.407-16.406c0-9.047,7.359-16.404,16.407-16.404
			c9.045,0,16.408,7.357,16.408,16.404C48.15,41.17,40.787,48.527,31.742,48.527z M31.742,19.722
			c-6.836,0-12.399,5.564-12.399,12.399c0,6.834,5.563,12.396,12.399,12.396c6.835,0,12.398-5.562,12.398-12.396
			C44.14,25.286,38.577,19.722,31.742,19.722z"/>
	</g>
</g>
</svg>
