<?xml version="1.0" encoding="utf-8"?>
<!-- Generator: Adobe Illustrator 16.0.0, SVG Export Plug-In . SVG Version: 6.00 Build 0)  -->
<!DOCTYPE svg PUBLIC "-//W3C//DTD SVG 1.1//EN" "http://www.w3.org/Graphics/SVG/1.1/DTD/svg11.dtd">
<svg version="1.1" id="Layer_1" xmlns="http://www.w3.org/2000/svg" xmlns:xlink="http://www.w3.org/1999/xlink" x="0px" y="0px"
	 width="63.612px" height="64px" viewBox="0 0 63.612 64" enable-background="new 0 0 63.612 64" xml:space="preserve">
<path fill="#3E4F5E" d="M32.249,45.979l-0.406-0.539c-1.522-2.037-3.986-4.66-7.392-7.87c-1.194-1.136-2.07-1.992-2.634-2.568
	c-0.562-0.577-1.211-1.306-1.943-2.185c-0.734-0.879-1.251-1.687-1.555-2.424c-0.301-0.738-0.458-1.486-0.471-2.246
	c-0.037-2.162,0.742-4.07,2.341-5.725c1.597-1.653,3.486-2.5,5.664-2.538c2.361-0.041,4.367,0.99,6.023,3.092
	c1.662-2.159,3.673-3.259,6.035-3.3c2.13-0.037,4.008,0.745,5.637,2.342c1.629,1.6,2.462,3.479,2.5,5.643
	c0.013,0.759-0.119,1.512-0.394,2.261c-0.275,0.747-0.765,1.571-1.468,2.476c-0.702,0.904-1.326,1.654-1.869,2.25
	s-1.391,1.481-2.542,2.657c-3.295,3.326-5.667,6.032-7.115,8.121L32.249,45.979z M36.876,34.259l0.292-0.303
	c1.038-1.042,1.829-1.855,2.373-2.443c0.543-0.588,1.063-1.248,1.563-1.984c0.498-0.735,0.745-1.332,0.736-1.795
	c-0.019-1.172-0.433-2.146-1.24-2.926c-0.804-0.778-1.678-1.16-2.619-1.145c-1.222,0.021-2.3,0.718-3.233,2.086L31.9,30.034
	l-2.897-4.259c-0.865-1.289-1.891-1.925-3.08-1.904c-0.991,0.018-1.887,0.438-2.69,1.261c-0.803,0.824-1.194,1.803-1.175,2.943
	c0.008,0.445,0.27,1.019,0.786,1.72c0.515,0.7,1.033,1.316,1.554,1.843c0.521,0.528,1.319,1.294,2.393,2.299l0.553,0.536
	c1.562,1.458,3.158,3.091,4.792,4.896C33.461,37.826,35.042,36.123,36.876,34.259"/>
</svg>
