<?xml version="1.0" encoding="utf-8"?>
<!-- Generator: Adobe Illustrator 16.0.0, SVG Export Plug-In . SVG Version: 6.00 Build 0)  -->
<!DOCTYPE svg PUBLIC "-//W3C//DTD SVG 1.1//EN" "http://www.w3.org/Graphics/SVG/1.1/DTD/svg11.dtd">
<svg version="1.1" id="Layer_1" xmlns="http://www.w3.org/2000/svg" xmlns:xlink="http://www.w3.org/1999/xlink" x="0px" y="0px"
	 width="14.425px" height="12.195px" viewBox="0 0 14.425 12.195" enable-background="new 0 0 14.425 12.195" xml:space="preserve">
<path fill="#FFFFFF" d="M2.229,7.482V6.65H0V5.543h2.229V4.711l1.841,1.387L2.229,7.482z M5.557,0h-1.11v12.195h1.11V0z
	 M8.881,1.662V0.553c0-0.156-0.055-0.285-0.166-0.393S8.475,0,8.326,0H7.218C7.063,0,6.932,0.053,6.825,0.16
	C6.718,0.268,6.664,0.396,6.664,0.553v1.109c0,0.148,0.054,0.277,0.161,0.389C6.932,2.16,7.063,2.217,7.218,2.217h1.108
	c0.148,0,0.277-0.057,0.389-0.166C8.826,1.939,8.881,1.811,8.881,1.662z M13.316,4.988V3.879c0-0.154-0.056-0.285-0.166-0.393
	c-0.111-0.107-0.24-0.16-0.389-0.16H7.218c-0.154,0-0.286,0.053-0.393,0.16C6.718,3.594,6.664,3.725,6.664,3.879v1.109
	c0,0.148,0.054,0.277,0.161,0.389c0.106,0.109,0.238,0.166,0.393,0.166h5.544c0.148,0,0.277-0.057,0.389-0.166
	C13.261,5.266,13.316,5.137,13.316,4.988z M11.099,8.314V7.205c0-0.154-0.057-0.285-0.165-0.393
	c-0.111-0.105-0.241-0.162-0.389-0.162H7.218c-0.154,0-0.286,0.057-0.393,0.162C6.718,6.92,6.664,7.051,6.664,7.205v1.109
	c0,0.148,0.054,0.277,0.161,0.389c0.106,0.109,0.238,0.166,0.393,0.166h3.327c0.147,0,0.277-0.057,0.389-0.166
	C11.042,8.592,11.099,8.463,11.099,8.314z M14.425,11.641v-1.107c0-0.156-0.056-0.287-0.165-0.395
	c-0.112-0.107-0.241-0.16-0.39-0.16H7.218c-0.154,0-0.286,0.053-0.393,0.16c-0.107,0.107-0.161,0.238-0.161,0.395v1.107
	c0,0.148,0.054,0.277,0.161,0.389c0.106,0.111,0.238,0.166,0.393,0.166h6.652c0.148,0,0.277-0.055,0.39-0.166
	C14.369,11.918,14.425,11.789,14.425,11.641z"/>
</svg>
