<?xml version="1.0" encoding="utf-8"?>
<!-- Generator: Adobe Illustrator 16.0.0, SVG Export Plug-In . SVG Version: 6.00 Build 0)  -->
<!DOCTYPE svg PUBLIC "-//W3C//DTD SVG 1.1//EN" "http://www.w3.org/Graphics/SVG/1.1/DTD/svg11.dtd">
<svg version="1.1" id="Capa_1" xmlns="http://www.w3.org/2000/svg" xmlns:xlink="http://www.w3.org/1999/xlink" x="0px" y="0px"
	 width="16.557px" height="14px" viewBox="0 0 16.557 14" enable-background="new 0 0 16.557 14" xml:space="preserve">
<path fill="#5D5D5D" d="M3.054,7.958V7.126H0.825V6.019h2.229V5.187l1.841,1.387L3.054,7.958z M6.382,0.474h-1.11v12.195h1.11V0.474
	z M9.706,2.136V1.029c0-0.156-0.055-0.287-0.166-0.395c-0.111-0.105-0.24-0.16-0.389-0.16H8.043c-0.154,0-0.286,0.055-0.393,0.16
	C7.543,0.742,7.489,0.873,7.489,1.029v1.107c0,0.148,0.054,0.277,0.161,0.389c0.106,0.111,0.238,0.166,0.393,0.166h1.108
	c0.148,0,0.277-0.055,0.389-0.166S9.706,2.285,9.706,2.136z M14.142,5.464V4.355c0-0.156-0.056-0.287-0.166-0.395
	c-0.111-0.105-0.24-0.16-0.389-0.16H8.043c-0.154,0-0.286,0.055-0.393,0.16C7.543,4.068,7.489,4.199,7.489,4.355v1.109
	c0,0.146,0.054,0.277,0.161,0.389c0.106,0.109,0.238,0.166,0.393,0.166h5.544c0.148,0,0.277-0.057,0.389-0.166
	C14.086,5.742,14.142,5.611,14.142,5.464z M11.924,8.791V7.681c0-0.156-0.056-0.287-0.165-0.393
	c-0.111-0.107-0.241-0.162-0.389-0.162H8.043c-0.154,0-0.286,0.055-0.393,0.162C7.543,7.394,7.489,7.525,7.489,7.681v1.109
	c0,0.146,0.054,0.277,0.161,0.389c0.106,0.109,0.238,0.166,0.393,0.166h3.327c0.147,0,0.277-0.057,0.389-0.166
	C11.868,9.068,11.924,8.937,11.924,8.791z M15.25,12.117v-1.109c0-0.154-0.056-0.285-0.165-0.395c-0.112-0.107-0.241-0.16-0.39-0.16
	H8.043c-0.154,0-0.286,0.053-0.393,0.16c-0.107,0.109-0.161,0.24-0.161,0.395v1.109c0,0.148,0.054,0.275,0.161,0.387
	c0.106,0.111,0.238,0.166,0.393,0.166h6.652c0.148,0,0.277-0.055,0.39-0.166C15.194,12.392,15.25,12.265,15.25,12.117z"/>
</svg>
