<?xml version="1.0" encoding="utf-8"?>
<!-- Generator: Adobe Illustrator 16.0.0, SVG Export Plug-In . SVG Version: 6.00 Build 0)  -->
<!DOCTYPE svg PUBLIC "-//W3C//DTD SVG 1.1//EN" "http://www.w3.org/Graphics/SVG/1.1/DTD/svg11.dtd">
<svg version="1.1" id="Capa_1" xmlns="http://www.w3.org/2000/svg" xmlns:xlink="http://www.w3.org/1999/xlink" x="0px" y="0px"
	 width="52.5px" height="43.167px" viewBox="0 0 52.5 43.167" enable-background="new 0 0 52.5 43.167" xml:space="preserve">
<g>
	<path fill="#FFFFFF" d="M29.473,8.914c2.165,0,3.92-1.752,3.92-3.92c0-2.166-1.755-3.924-3.92-3.924
		c-2.169,0-3.924,1.758-3.924,3.924C25.549,7.162,27.304,8.914,29.473,8.914z"/>
	<path fill="#FFFFFF" d="M28.516,35.146c-0.568,0.383-1.533,1.051-1.533,1.051l-0.48,1.053l-0.668,0.664h-1.244l-2.965,2.063h29.573
		l-1.34-1.174l-1.058-0.971l-1.717,0.137l-1.145-1.221c0,0-0.862-1.42-0.862-1.711c0-0.285,0.187-1.336-0.099-1.521
		c-0.285-0.197-1.244-0.77-1.244-0.77l-2.297,0.102l-1.25-1.531l-1.245-1.725l-1.524-0.285c0,0-0.963,0.092-1.34,0.568
		c-0.387,0.484-1.248,0.865-2.106,1.252c-0.239,0.107-0.491,0.229-0.725,0.35l-11.566-9.43l5.586-10.92l-5.642-8.225H9.753
		l-1.557,8.063L5.892,9.126C5.394,8.732,4.677,8.822,4.269,9.32c-0.398,0.492-0.32,1.223,0.172,1.625l4.477,3.654l-2.818,3.043
		l0.211,10.617l-2.79,10.305c-0.33,1.225,0.391,2.484,1.613,2.816c0.2,0.051,0.409,0.078,0.601,0.078
		c1.014,0,1.943-0.672,2.223-1.697l2.951-10.941l0.453-8.27l5.871,6.93l-5.481,10.107c-0.597,1.121-0.189,2.514,0.93,3.115
		c0.344,0.191,0.718,0.279,1.096,0.279c0.816,0,1.604-0.436,2.022-1.201l6.962-12.865l-2.793-3.303l11.521,9.391l-0.775,1.086
		C30.713,34.089,29.09,34.763,28.516,35.146z M18.421,19.39l-2.375-1.936l4.432-1.932L18.421,19.39z M12.532,7.291L15.4,7.671
		l-3.728,3.832L12.532,7.291z"/>
</g>
</svg>
