<?xml version="1.0" encoding="utf-8"?>
<!-- Generator: Adobe Illustrator 19.2.0, SVG Export Plug-In . SVG Version: 6.00 Build 0)  -->
<svg version="1.1" id="Layer_1" xmlns="http://www.w3.org/2000/svg" xmlns:xlink="http://www.w3.org/1999/xlink" x="0px" y="0px"
	 viewBox="0 0 195 428" style="enable-background:new 0 0 195 428;" xml:space="preserve">
<style type="text/css">
	.st0{fill:#E1BD9D;}
	.st1{clip-path:url(#SVGID_2_);fill:#E1BD9D;}
	.st2{clip-path:url(#SVGID_4_);fill:#E1BD9D;}
	.st3{fill:#FFFFFF;}
	.st4{fill:#F8F4D3;}
	.st5{fill:#9B6DAD;}
	.st6{fill:#825D25;}
	.st7{fill:#101418;}
	.st8{fill:#5178F2;}
	.st9{fill:#935BA3;}
	.st10{fill:#3D649E;}
	.st11{fill:#D9DADC;}
	.st12{fill:#A1D9DD;}
	.st13{fill:#8AC9C9;}
	.st14{fill:#9A9C9F;}
	.st15{fill:#E9E9E7;}
	.st16{clip-path:url(#SVGID_6_);fill:#BFBFC0;}
	.st17{fill:none;stroke:#000000;stroke-width:0.1391;stroke-miterlimit:10;}
	.st18{fill:#F1F1F2;stroke:#663300;stroke-width:2.2132;stroke-miterlimit:10;}
	.st19{fill:#C1ACAB;}
	.st20{fill:#BEBEBE;}
</style>
<g>
	<g>
		<g>
			<polygon class="st0" points="75,406 33.5,409.2 62.6,387.1 62.6,264.2 75,271.2 			"/>
			<polygon class="st0" points="86.6,406 128.1,409.2 99.5,394 99.5,271.2 86.6,271.2 			"/>
			<g>
				<g>
					<defs>
						<rect id="SVGID_1_" x="70.8" y="271.2" width="4.2" height="134.8"/>
					</defs>
					<clipPath id="SVGID_2_">
						<use xlink:href="#SVGID_1_"  style="overflow:visible;"/>
					</clipPath>
					<rect x="70.8" y="271.2" class="st1" width="4.2" height="134.8"/>
				</g>
			</g>
			<path class="st0" d="M130,78c0.2-1.8,0.3-3.7,0.3-5.6c0-27.6-22.3-49.9-49.9-49.9c-27.6,0-49.9,22.3-49.9,49.9
				c0,1.9,0.1,3.8,0.3,5.7c-2.8,0.7-4.9,3.3-4.9,6.3c0,3.6,2.9,6.5,6.5,6.5c0.5,0,1.1-0.1,1.6-0.2c7.3,18.5,25.3,31.6,46.4,31.6
				c21.2,0,39.3-13.2,46.5-31.8c0.7,0.3,1.5,0.4,2.3,0.4c3.6,0,6.5-2.9,6.5-6.5C135.7,81.2,133.2,78.4,130,78"/>
			<path class="st0" d="M80.4,150.3c0,0-17.1-15.5-17.1-24.9v-4.1c0-9.4,7.7-17.1,17.1-17.1c9.4,0,17.1,7.7,17.1,17.1v4.1"/>
			<g>
				<g>
					<defs>
						<rect id="SVGID_3_" x="63.2" y="22.5" width="72.5" height="127.8"/>
					</defs>
					<clipPath id="SVGID_4_">
						<use xlink:href="#SVGID_3_"  style="overflow:visible;"/>
					</clipPath>
					<path class="st2" d="M130,78c0.2-1.8,0.3-3.7,0.3-5.6c0-27.6-22.3-49.9-49.9-49.9c-1.1,0-2.2,0-3.3,0.1
						c26,1.7,46.6,23.3,46.6,49.8c0,1.9-0.1,3.7-0.3,5.6c0,4.5-0.8,8-3.1,12.5c-4.4,11.3-12.8,20.6-23.5,26.2l-4.3,2
						c-4.8,1.9-12.1,3.1-29.3,0.6c0,0,8.8,3.3,16.6,3.3c4.2,0,4.9-0.2,8.3-0.4c3.4,0,3.4,3.5,3.4,3.5c0,8.6-5.2,21.9-13.5,23.1
						c0.8,0.1,1.6,1.6,2.4,1.6c9.4,0,17.1-15.5,17.1-24.9v-4.1c0-0.7-0.1-1.3-0.1-2c13.5-4.9,24.3-15.5,29.5-28.9
						c0.7,0.3,1.5,0.4,2.3,0.4c3.6,0,6.5-2.9,6.5-6.5C135.7,81.2,133.2,78.4,130,78"/>
				</g>
			</g>
			<path class="st3" d="M72.6,102.9c0.7,5.3,13.4,9.5,15.9-0.6C83.2,102.5,77.9,102.7,72.6,102.9"/>
			<path d="M92.4,77.5c3.9-0.5,4.5,6.1,0.4,6C89.1,83.7,88.7,77.8,92.4,77.5"/>
			<path d="M67.1,77.5c3.7-1.3,5.5,4.6,1.9,5.6C65.4,84.8,63.4,78.5,67.1,77.5"/>
			<path class="st4" d="M97,123.7l-17.9,24.4l-16.4-24.4c0,0-0.1,1.5-2.5,1.9v125.9h17.1l22.3,0.1V125.2
				C96.9,124.6,97,123.7,97,123.7"/>
			<rect x="60.3" y="155.6" class="st5" width="39.4" height="5.6"/>
			<rect x="60.3" y="169.8" class="st5" width="39.4" height="5.6"/>
			<rect x="60.3" y="185" class="st5" width="39.4" height="5.5"/>
			<rect x="60.3" y="199.2" class="st5" width="39.4" height="19.5"/>
			<rect x="60.3" y="226.7" class="st5" width="39.4" height="5.5"/>
			<path class="st6" d="M74,401.8c-1.9-0.2-3.8-0.3-5.6-0.6c-2-0.3-4-0.9-5.9-1.4c-3.8-1-7.5-2.2-11.2-3.4c-0.8-0.3-1.5-0.5-2.2-0.9
				c-0.3-0.2-1-1.1-1.4-1.1s-1.7,1.1-2,1.2c-0.8,0.5-1.7,1-2.6,1.5c-3.1,1.6-6.3,3.1-9.6,4.5c-2.6,1.2-5.7,2.2-5.4,4.8
				c0.3,2.5,4.1,2.8,6.8,2.8c8.2-0.2,16.4,0,24.5,0c2.2,0,4.7-0.1,6.9-0.2c3.5-0.1,4.7,0.1,6.8-0.3c1.3-0.3,2.4-0.6,2.6-1.5
				c0.1-0.6,0-1.9,0-2.5c0-2-0.3-2.1-0.4-2.5C75.4,401.8,74.4,402.2,74,401.8C72,401.5,74.3,402.1,74,401.8"/>
			<path class="st6" d="M86.5,401.8c1.8-0.2,3.7-0.3,5.5-0.6c2-0.3,4-0.9,5.8-1.4c3.7-1,7.4-2.2,11-3.4c0.8-0.3,1.5-0.5,2.2-0.9
				c0.3-0.2,1-1.1,1.4-1.1c0.3,0,1.7,1.1,2,1.2c0.8,0.5,1.7,1,2.6,1.5c3,1.6,6.3,3.1,9.5,4.5c2.6,1.2,5.6,2.2,5.3,4.8
				c-0.3,2.5-4,2.8-6.7,2.8c-8.1-0.2-16.2,0-24.2,0c-2.2,0-4.6-0.1-6.8-0.2c-3.4-0.1-4.6,0.1-6.7-0.3c-1.3-0.3-2.4-0.6-2.6-1.5
				c-0.1-0.6,0-1.9,0-2.5c0-2,0.3-2.1,0.4-2.5C85.1,401.8,86.1,402.2,86.5,401.8C88.5,401.5,86.2,402.1,86.5,401.8"/>
			<path class="st7" d="M116.1,34.6c-2.7-2.6-5.8-4.9-8.7-6.8c-6.6-4.4-14.1-7.4-22-8.3c-1.2-0.1-2.4-0.2-3.7-0.2
				c-17.1-0.7-34.3,8-43.7,22.4c-7.3,10.6-8.3,37-7.8,36.6c45.5-38.4,100.1-3.8,99.7-0.2c1.1-11.3-2.4-33.2-11.5-41.3
				C117.6,36.1,116.9,35.4,116.1,34.6"/>
			<path class="st8" d="M118.7,245.6h-0.2c0-0.3,0.1-0.6,0.1-0.9H43.1c0,0.3,0.1,0.6,0.1,0.9h-0.9l-8.9,54.1h94.8L118.7,245.6z"/>
			<path class="st9" d="M129.5,233.6c-0.9-6.4-2.2-10.8-3.3-13.8v-27.5c0,0,0.7-27.6-9.1-48.3c-1.3-3.3-3.7-7.9-8-12.2
				c-3.2-3.5-7-6.2-11.6-8l0,0v141.7h33.4v-1.1c0.1-3.6,0.1-7,0.1-10.1C131.3,246.1,130.6,239.2,129.5,233.6"/>
			<path class="st5" d="M63.2,265.5V123.7l0,0c-4.5,1.7-8.3,4.5-11.6,8c-4.3,4.3-6.8,9-8.1,12.3c-9.8,20.7-9.1,48.3-9.1,48.3v27.5
				c-1.1,3-2.3,7.4-3.3,13.8c-1.1,5.7-1.8,12.5-1.5,20.7c0,3.2,0,6.7,0.1,10.4v0.8L63.2,265.5L63.2,265.5z"/>
			<path class="st10" d="M56.2,119.9c4.4,0.2,5.6,2.6,5.6,3.7v15.6c-1.8-1.3-5.8-0.2-7.1,2.8l-3.3,9.3l-0.6-26.2
				C50.9,125.1,50.9,119.7,56.2,119.9"/>
			<path class="st10" d="M103.6,119.9c-4.4,0.2-6.2,2.8-6.2,3.9l0.1,15.3c3.4-1.3,6.3-0.1,7.6,2.9l3.7,9.3l0.3-26.2
				C109.2,125.1,108.9,119.7,103.6,119.9"/>
			<path class="st7" d="M35.3,90.5c5.5,14.1,17.2,25.1,31.8,29.6v28.5c0,6.2-35.4,6.6-35.4,0V90.8c0.4,0.1,0.8,0.1,1.3,0.1
				C33.8,91,34.6,90.8,35.3,90.5"/>
			<path class="st5" d="M135.9,230.9c0,0-6.7-4.5-8.3-13.6c0,8,0.1,16.9,0.1,16.9l0.9,21.6l-26.5,0.4l0.4-108.6
				c0,0,19.2-1,26.9,19.7l10.8,49.5L135.9,230.9z"/>
			<path class="st7" d="M126.9,90.5c-5.5,14.1-17.2,25.1-31.8,29.6v28.5c0,6.2,35.4,6.6,35.4,0V90.8c-0.4,0.1-0.8,0.1-1.3,0.1
				C128.4,91,127.6,90.8,126.9,90.5"/>
			<path class="st0" d="M161.6,215.3c0,0-0.9,12-16.1,7.3c-15.2-4.7-9.5,8.2-9.5,8.2s4.7,6.5,15.6,6.6c10.9,0.1,23.8-12.4,23.8-12.4
				L161.6,215.3z"/>
			<path class="st9" d="M145.7,213.5c0,0,5,1.5,6.2,10.2l-15.9,9.9c0,0-2.2,1.9-3.6-0.7c-1.6-3-3.7-7.1-3.7-7.1s-1-2.2,1.6-3.9
				C133,220.1,145.7,213.5,145.7,213.5"/>
			<polygon class="st11" points="52.8,280 54.2,277.5 74.3,289.7 72.9,292.1 			"/>
			<path class="st11" d="M98.8,305.6c4.2-7.5,1.5-17.1-6-21.3c-7.5-4.2-17.1-1.5-21.3,6s-1.5,17.1,6,21.3
				C85.1,315.9,94.6,313.2,98.8,305.6 M78.9,309.3c-6.2-3.5-8.5-11.4-5-17.6s11.4-8.5,17.6-5c6.2,3.5,8.5,11.4,5,17.6
				S85.1,312.8,78.9,309.3"/>
			<path class="st12" d="M91.5,286.7c-6.3-3.5-14.1-1.2-17.6,5l22.6,12.6C100,298.1,97.7,290.2,91.5,286.7"/>
			<path class="st13" d="M96.5,304.3l-22.6-12.6c-3.5,6.3-1.2,14.1,5,17.6S93,310.5,96.5,304.3"/>
			<path class="st3" d="M82.6,288.5c-0.2-0.4,0.1-0.9,0.5-1.1c0.2-0.1,3.7-1.5,7.2,0.4c4.9,2.7,5.4,7.6,5.4,7.8
				c0,0.5-0.3,0.9-0.8,0.9s-0.9-0.3-0.9-0.8c0-0.2-0.5-4.2-4.5-6.4c-2.8-1.5-5.7-0.4-5.7-0.3C83.3,289.2,82.8,289,82.6,288.5
				L82.6,288.5"/>
			<path class="st14" d="M72.6,302.4c-2.5-7,1.2-14.6,8.1-17.1c7-2.5,14.6,1.2,17.1,8.1c2.5,7-1.2,14.6-8.1,17.1
				C82.7,313,75.1,309.3,72.6,302.4 M97.2,293.6c-2.4-6.6-9.7-10.1-16.3-7.8c-6.6,2.3-10.1,9.7-7.8,16.3c2.3,6.6,9.7,10.1,16.3,7.8
				C96.1,307.6,99.6,300.3,97.2,293.6"/>
			<path class="st6" d="M33.9,267.8c1-1.8,3.2-2.5,4.9-1.6l24.1,13.6c1.7,0.9,2.2,3.2,1.2,5c-1,1.8-3.2,2.5-4.9,1.6l-24.1-13.6
				C33.4,271.8,32.9,269.6,33.9,267.8"/>
			<path class="st0" d="M54.9,256.3v-64.5L37.7,192v77.5c0,8.3,5.2,15,11.7,15s11.7-6.7,11.7-15C61.1,263.8,58.6,258.9,54.9,256.3"
				/>
			<path class="st9" d="M54,196.1H36.7c-2.4,0-4.3-1.9-4.3-4.3s1.9-4.3,4.3-4.3H54c2.4,0,4.3,1.9,4.3,4.3
				C58.3,194.2,56.3,196.1,54,196.1"/>
			<path class="st15" d="M159,214.3c1,0.2,1.6,1.2,1.5,2.2c-0.2,1-1.2,1.6-2.2,1.4s-1.7-1.2-1.5-2.2C157,214.8,158,214.1,159,214.3"
				/>
		</g>
		<path d="M129.9,69.9c-0.3-1.6-3.1-2.1-3.2-2.1c-3.6-0.5-6.8-0.8-9.7-1c-4.4-0.3-8.3-0.4-11.9-0.4c-5.2,0-9.8,0.3-14.3,0.8
			C87.6,67.6,84,68,80.5,68c-3.6-0.1-7.1-0.4-10.3-0.8c-4.5-0.5-9.2-0.8-14.3-0.8c-3.6,0-7.5,0.1-11.9,0.4c-2.9,0.2-6.1,0.5-9.7,1
			c0,0-2.9,0.5-3.2,2.1c-0.2,1.2-0.3,3.4,0.7,4.7c1.4,1.7,2,3.3,2.1,5.4c0.2,4.2,1.4,8.3,3.6,12.2c2.2,3.8,5.4,6,9.7,6.6
			c2.9,0.4,5.7,0.6,8.4,0.6s5.3-0.2,7.8-0.6c6-1,10.2-4.4,12-9.8c1-2.8,1.6-5.8,2.2-8.7c0.2-0.8,0.3-1.6,0.5-2.4
			c0.4-1.9,1-2.2,2.3-2.2c1.2,0,1.9,0.4,2.3,2.2c0.2,0.8,0.4,1.6,0.5,2.4c0.6,2.9,1.3,5.9,2.2,8.7c1.9,5.5,6,8.8,12,9.8
			c2.5,0.4,5.2,0.6,7.8,0.6c2.7,0,5.5-0.2,8.4-0.6c4.3-0.6,7.6-2.8,9.7-6.6c2.2-3.9,3.4-8,3.6-12.2c0.1-2.1,0.7-3.7,2.1-5.4
			C130.2,73.3,130.1,71.1,129.9,69.9 M98.9,93.7c-5.9-1-9.1-4.4-9.8-10.4c-0.1-1-0.2-1.9-0.3-2.9c0-0.7-0.1-1.3-0.1-2
			c-0.2-2.2,0.8-3.8,2.8-4.6c2.6-1,5.3-1.6,7.8-1.9c2.3-0.2,4.4-0.4,6.4-0.4c3.6,0,6.9,0.4,9.9,1.2c4.7,1.3,5.7,2.7,5.5,7.3
			c-0.2,3-0.7,5.8-1.6,8.1c-1.3,3.3-4.1,5.1-8.7,5.6c-1.2,0.1-2.5,0.2-3.8,0.2c-0.6,0-1.3,0.1-1.9,0.1c-0.5-0.1-1.1-0.1-1.7-0.1
			C101.9,94.1,100.4,94,98.9,93.7 M57.6,94.2c-0.6,0-1.1,0.1-1.7,0.1c-0.7,0-1.3-0.1-1.9-0.1c-1.3-0.1-2.6-0.1-3.8-0.2
			c-4.6-0.5-7.5-2.3-8.7-5.6c-0.9-2.4-1.5-5.2-1.6-8.1c-0.3-4.6,0.8-6,5.5-7.3c3.1-0.8,6.3-1.2,9.9-1.2c2,0,4.1,0.1,6.4,0.4
			c2.5,0.3,5.2,0.9,7.8,1.9c2.1,0.8,3,2.3,2.8,4.6c-0.1,0.7-0.1,1.3-0.1,2c-0.1,1-0.1,1.9-0.2,2.9c-0.8,6-4,9.3-9.8,10.4
			C60.6,94,59.1,94.1,57.6,94.2"/>
		<g>
			<g>
				<defs>
					<path id="SVGID_5_" d="M54,94.2c-1.3-0.1-2.6-0.1-3.8-0.2c-4.6-0.5-7.5-2.3-8.7-5.6c-0.9-2.4-1.5-5.2-1.6-8.1
						c-0.3-4.6,0.8-6,5.5-7.3c3.1-0.8,6.3-1.3,9.9-1.3c2,0,4.1,0.1,6.4,0.4c2.5,0.3,5.2,0.9,7.8,1.9c2.1,0.7,3,2.3,2.8,4.6
						c-0.1,0.7-0.1,1.3-0.1,2c-0.1,1-0.1,1.9-0.2,2.9c-0.8,6-4,9.3-9.8,10.4c-1.5,0.3-3,0.4-4.4,0.4c-0.6,0-1.1,0.1-1.7,0.1
						C55.3,94.2,54.6,94.2,54,94.2 M103.3,94.2c-1.4-0.1-2.9-0.2-4.4-0.4c-5.9-1-9.1-4.4-9.8-10.4c-0.1-0.9-0.2-1.9-0.3-2.9
						c0-0.7-0.1-1.3-0.1-2c-0.2-2.2,0.8-3.8,2.8-4.6c2.6-1,5.3-1.6,7.8-1.9c2.3-0.3,4.4-0.4,6.4-0.4c3.6,0,6.9,0.4,9.9,1.3
						c4.7,1.3,5.7,2.7,5.5,7.3c-0.2,3-0.7,5.8-1.6,8.1c-1.3,3.3-4.1,5.1-8.7,5.6c-1.2,0.1-2.5,0.2-3.8,0.2c-0.6,0-1.3,0.1-1.9,0.1
						C104.5,94.2,103.9,94.2,103.3,94.2 M90.7,67.2C87.5,67.6,84,68,80.4,68c-3.6-0.1-7.1-0.4-10.3-0.8c-4.5-0.6-9.2-0.8-14.3-0.8
						c-3.6,0-7.5,0.1-11.9,0.4c-2.9,0.2-6.1,0.5-9.7,1c0,0-2.9,0.5-3.2,2.1c-0.2,1.2-0.3,3.4,0.7,4.7c1.4,1.7,2,3.3,2.1,5.4
						c0.2,4.2,1.4,8.3,3.6,12.2c2.2,3.8,5.4,6,9.7,6.6c2.9,0.4,5.7,0.6,8.4,0.6s5.3-0.2,7.8-0.6c6-1,10.2-4.4,12-9.8
						c1-2.8,1.6-5.8,2.2-8.7c0.2-0.8,0.3-1.6,0.5-2.4c0.4-1.9,1-2.2,2.3-2.2c1.2,0,1.9,0.4,2.3,2.2c0.2,0.8,0.3,1.6,0.5,2.4
						c0.6,2.9,1.3,5.9,2.2,8.7c1.9,5.5,6,8.8,12,9.8c2.5,0.4,5.2,0.6,7.8,0.6c2.7,0,5.5-0.2,8.4-0.6c4.3-0.6,7.6-2.8,9.7-6.6
						c2.2-3.9,3.4-8,3.6-12.2c0.1-2.1,0.7-3.7,2.1-5.4c1-1.3,0.9-3.5,0.7-4.7c-0.3-1.6-3.1-2.1-3.2-2.1c-3.6-0.5-6.8-0.8-9.7-1
						c-4.4-0.3-8.3-0.4-11.9-0.4C99.9,66.4,95.2,66.6,90.7,67.2"/>
				</defs>
				<clipPath id="SVGID_6_">
					<use xlink:href="#SVGID_5_"  style="overflow:visible;"/>
				</clipPath>
				<path class="st16" d="M83.7,82.1c0.5,1.5-7.2,1.5-6.4,0c1.3-2.7,1-13.2-3.9-16c-3.1-1.8,17-2.3,14.3,0
					C82.8,70.2,82.5,78.2,83.7,82.1"/>
			</g>
		</g>
		<path class="st17" d="M77.2,67.9c1.6,2.4,2.4,6.8,2,8"/>
		<path class="st17" d="M83.7,67.9c-1.6,2.4-2.4,6.7-2.1,8"/>
		<line class="st17" x1="80.5" y1="68" x2="80.5" y2="75.6"/>
		<g>
			
				<rect x="124.7" y="176.6" transform="matrix(0.2221 -0.975 0.975 0.2221 -74.1781 302.2267)" class="st18" width="55.3" height="42"/>
			<g>
				<path class="st19" d="M165.3,194.8c0,0.1-0.2,0.2-0.3,0.2l-22.9-5.2c-0.2,0-0.3-0.2-0.3-0.3c0-0.1,0.2-0.2,0.3-0.2l22.9,5.2
					C165.2,194.6,165.3,194.7,165.3,194.8"/>
				<path class="st19" d="M164,200.8c0,0.1-0.2,0.2-0.4,0.2l-22.9-5.2c-0.2,0-0.3-0.2-0.3-0.3c0-0.1,0.2-0.2,0.3-0.2l22.9,5.2
					C163.9,200.6,164,200.7,164,200.8"/>
			</g>
			<g>
				<path class="st19" d="M168,183c0,0.1-0.2,0.2-0.3,0.2l-22.9-5.2c-0.2,0-0.3-0.2-0.3-0.3c0-0.1,0.2-0.2,0.4-0.2l22.9,5.2
					C167.9,182.7,168.1,182.8,168,183"/>
				<path class="st19" d="M166.7,188.9c0,0.1-0.2,0.2-0.4,0.2l-22.9-5.2c-0.2,0-0.3-0.2-0.2-0.3c0-0.1,0.2-0.2,0.3-0.2l22.9,5.2
					C166.6,188.7,166.7,188.8,166.7,188.9"/>
			</g>
			<polyline class="st20" points="159.2,167.4 162.4,168.2 163.5,175.2 151.9,172.6 156.2,166.8 161.4,167.9 			"/>
			<g>
				<path class="st19" d="M162.6,206.6c0,0.1-0.2,0.2-0.3,0.2l-22.9-5.2c-0.2,0-0.3-0.2-0.3-0.3c0-0.1,0.2-0.2,0.4-0.2l22.9,5.2
					C162.6,206.4,162.7,206.5,162.6,206.6"/>
				<path class="st19" d="M161.3,212.6c0,0.1-0.2,0.2-0.4,0.2l-22.9-5.2c-0.2,0-0.3-0.2-0.2-0.3c0-0.1,0.2-0.2,0.3-0.2l22.9,5.2
					C161.2,212.3,161.3,212.5,161.3,212.6"/>
			</g>
		</g>
		<path class="st0" d="M177.8,218.5c1.4,6.4-2,12.6-7.8,13.9c-5.7,1.3-11.5-2.9-13-9.3c-1.4-6.4,2-12.6,7.7-13.9
			C170.6,207.9,176.4,212.1,177.8,218.5"/>
	</g>
</g>
</svg>
