<?xml version="1.0" encoding="utf-8"?>
<!-- Generator: Adobe Illustrator 16.0.0, SVG Export Plug-In . SVG Version: 6.00 Build 0)  -->
<!DOCTYPE svg PUBLIC "-//W3C//DTD SVG 1.1//EN" "http://www.w3.org/Graphics/SVG/1.1/DTD/svg11.dtd">
<svg version="1.1" id="Layer_1" xmlns="http://www.w3.org/2000/svg" xmlns:xlink="http://www.w3.org/1999/xlink" x="0px" y="0px"
	 width="27px" height="27px" viewBox="0 0 27 27" enable-background="new 0 0 27 27" xml:space="preserve">
<g>
	<g>
		<circle fill="#3E4F5E" cx="14.135" cy="17.208" r="2.67"/>
		<path fill="#3E4F5E" d="M15.84,1.583H6.275c-1.315,0-2.379,1.286-2.379,2.602L3.884,23.253c0,1.315,1.064,2.33,2.379,2.33h14.359
			c1.315,0,2.377-0.743,2.377-2.058V9.178L15.84,1.583z M14.135,21.006c-0.949,0-1.815-0.352-2.481-0.93l-1.889,1.889l-0.798-0.798
			l1.951-1.951c-0.366-0.583-0.581-1.271-0.581-2.009c0-2.094,1.704-3.798,3.798-3.798c2.095,0,3.798,1.704,3.798,3.798
			S16.229,21.006,14.135,21.006z M15,9.583V3.797l6.221,5.786H15z"/>
	</g>
</g>
</svg>
