<?xml version="1.0" encoding="utf-8"?>
<!-- Generator: Adobe Illustrator 16.0.0, SVG Export Plug-In . SVG Version: 6.00 Build 0)  -->
<!DOCTYPE svg PUBLIC "-//W3C//DTD SVG 1.1//EN" "http://www.w3.org/Graphics/SVG/1.1/DTD/svg11.dtd">
<svg version="1.1" id="Capa_1" xmlns="http://www.w3.org/2000/svg" xmlns:xlink="http://www.w3.org/1999/xlink" x="0px" y="0px"
	 width="16.67px" height="11.333px" viewBox="0 0 16.67 11.333" enable-background="new 0 0 16.67 11.333" xml:space="preserve">
<path fill="#4D4D4D" d="M8.381,0.656c-5.066,0-8.074,5.018-8.074,5.018s3.008,5.018,8.074,5.018c4.967,0,7.981-5.018,7.981-5.018
	S13.348,0.656,8.381,0.656z"/>
<path class="back" fill="#FFFFFF" d="M8.334,2.162c1.957,0,3.513,1.555,3.513,3.512s-1.556,3.512-3.513,3.512S4.823,7.631,4.823,5.674
	S6.377,2.162,8.334,2.162z"/>
<path fill="#4D4D4D" d="M8.334,3.666c-1.104,0-2.006,0.904-2.006,2.008S7.231,7.68,8.334,7.68s2.008-0.902,2.008-2.006
	c0-0.301-0.058-0.549-0.158-0.801c-0.15,0.201-0.344,0.299-0.596,0.299c-0.401,0-0.752-0.352-0.752-0.752
	c0-0.252,0.096-0.445,0.297-0.596C8.883,3.723,8.635,3.666,8.334,3.666L8.334,3.666z"/>
</svg>
