<?xml version="1.0" encoding="utf-8"?>
<!-- Generator: Adobe Illustrator 16.0.0, SVG Export Plug-In . SVG Version: 6.00 Build 0)  -->
<!DOCTYPE svg PUBLIC "-//W3C//DTD SVG 1.1//EN" "http://www.w3.org/Graphics/SVG/1.1/DTD/svg11.dtd">
<svg version="1.1" id="Layer_1" xmlns="http://www.w3.org/2000/svg" xmlns:xlink="http://www.w3.org/1999/xlink" x="0px" y="0px"
	 width="24.306px" height="23.25px" viewBox="0 0 24.306 23.25" enable-background="new 0 0 24.306 23.25" xml:space="preserve">
<path fill="#3E4F5E" d="M22.644,4.937v16.686c0,0.198-0.068,0.368-0.206,0.512c-0.138,0.143-0.311,0.214-0.52,0.214H3.583
	c-0.199,0-0.368-0.071-0.511-0.214c-0.143-0.144-0.214-0.313-0.214-0.512V4.937c0-0.198,0.071-0.369,0.214-0.513
	C3.215,4.281,3.385,4.21,3.583,4.21h18.335c0.209,0,0.382,0.071,0.52,0.214C22.575,4.567,22.644,4.738,22.644,4.937 M20.995,5.858
	H4.506v12.153l4.073-3.002l4.914,2.16l-1.221-2.572l4.831-5.244l3.892,4.75V5.858z M10.064,8.415
	c0.428,0.428,0.643,0.95,0.643,1.565s-0.215,1.139-0.643,1.566c-0.43,0.43-0.951,0.644-1.566,0.644
	c-0.616,0-1.138-0.214-1.567-0.644c-0.429-0.428-0.643-0.951-0.643-1.566S6.502,8.843,6.93,8.415
	C7.36,7.986,7.881,7.771,8.497,7.771C9.113,7.771,9.634,7.986,10.064,8.415"/>
</svg>
