<?xml version="1.0" encoding="utf-8"?>
<!-- Generator: Adobe Illustrator 16.0.0, SVG Export Plug-In . SVG Version: 6.00 Build 0)  -->
<!DOCTYPE svg PUBLIC "-//W3C//DTD SVG 1.1//EN" "http://www.w3.org/Graphics/SVG/1.1/DTD/svg11.dtd">
<svg version="1.1" id="Layer_1" xmlns="http://www.w3.org/2000/svg" xmlns:xlink="http://www.w3.org/1999/xlink" x="0px" y="0px"
	 width="168.341px" height="29.236px" viewBox="-62.625 -2.583 168.341 29.236"
	 enable-background="new -62.625 -2.583 168.341 29.236" xml:space="preserve">
<path fill="#FFFFFF" d="M105.716,22.999c0,2.018-1.637,3.654-3.655,3.654H-58.971c-2.019,0-3.654-1.637-3.654-3.654V1.07
	c0-2.02,1.636-3.654,3.654-3.654h161.031c2.019,0,3.655,1.635,3.655,3.654V22.999z"/>
<g>
	
		<text transform="matrix(1 0 0 1 -29.3296 16.1797)" fill="#19C3E3" font-family="'Chalet-NewYorkNineteenEighty'" font-size="12.1815">¡Seguinos en Twitter!</text>
</g>
<g>
	<g>
		<path id="XMLID_9_" fill="#19C3E3" d="M-35.819,6.697c-0.644,0.279-1.333,0.469-2.061,0.553c0.743-0.438,1.311-1.129,1.579-1.953
			c-0.693,0.406-1.461,0.699-2.279,0.857c-0.655-0.688-1.586-1.115-2.617-1.115c-1.981,0-3.588,1.58-3.588,3.529
			c0,0.279,0.032,0.547,0.092,0.807c-2.982-0.148-5.626-1.553-7.395-3.691c-0.31,0.521-0.488,1.127-0.488,1.775
			c0,1.225,0.635,2.307,1.596,2.939c-0.585-0.018-1.14-0.176-1.624-0.441c0,0.014,0,0.029,0,0.045c0,0.453,0.088,0.881,0.245,1.279
			c0.439,1.108,1.426,1.946,2.633,2.185c-0.301,0.08-0.617,0.123-0.946,0.123c-0.23,0-0.456-0.021-0.675-0.062
			c0.458,1.402,1.783,2.424,3.353,2.453c-1.23,0.947-2.776,1.513-4.457,1.513c-0.291,0-0.575-0.018-0.856-0.051
			c1.588,1.002,3.475,1.588,5.5,1.588c5.609,0,9.055-3.886,9.966-7.918c0.158-0.713,0.242-1.43,0.242-2.133
			c0-0.152-0.002-0.307-0.01-0.457C-36.906,8.025-36.297,7.402-35.819,6.697z"/>
	</g>
</g>
</svg>
