<?xml version="1.0" encoding="utf-8"?>
<!-- Generator: Adobe Illustrator 16.0.0, SVG Export Plug-In . SVG Version: 6.00 Build 0)  -->
<!DOCTYPE svg PUBLIC "-//W3C//DTD SVG 1.1//EN" "http://www.w3.org/Graphics/SVG/1.1/DTD/svg11.dtd">
<svg version="1.1" id="Layer_1" xmlns="http://www.w3.org/2000/svg" xmlns:xlink="http://www.w3.org/1999/xlink" x="0px" y="0px"
	 width="168.341px" height="30.452px" viewBox="-3.209 0 168.341 30.452" enable-background="new -3.209 0 168.341 30.452"
	 xml:space="preserve">
<path fill="#19C3E3" d="M165.131,26.19c0,2.019-1.637,3.654-3.654,3.654H0.444c-2.019,0-3.654-1.637-3.654-3.654V4.261
	c0-2.021,1.636-3.654,3.654-3.654h161.031c2.02,0,3.656,1.635,3.656,3.654V26.19L165.131,26.19z"/>
<g>
	<g enable-background="new    ">
		<path fill="#FFFFFF" d="M31.036,10.908h1.607v1.596h-1.607V10.908z M31.036,13.428h1.607v5.942h-1.607V13.428z"/>
		<path fill="#FFFFFF" d="M40.729,13.477h-1.606c0-0.73-0.608-1.278-1.632-1.278c-0.853,0-1.645,0.329-1.645,0.974
			c0,0.585,0.572,0.792,1.863,1.06c2.01,0.402,3.275,0.901,3.275,2.63c0,1.632-1.363,2.655-3.494,2.655
			c-1.656,0-3.458-0.914-3.458-2.947h1.606c0,0.999,0.999,1.474,1.852,1.474c0.926,0,1.887-0.329,1.887-1.133
			c0-0.535-0.438-0.864-1.996-1.169c-1.559-0.304-3.142-0.767-3.142-2.581c0-1.449,1.278-2.46,3.251-2.46
			C39.719,10.701,40.729,12.138,40.729,13.477z"/>
		<path fill="#FFFFFF" d="M43.459,16.862c0.207,0.768,0.816,1.242,1.571,1.242c0.536,0,1.06-0.231,1.327-0.73h1.717
			c-0.365,1.278-1.473,2.144-3.031,2.144c-1.766,0-3.215-1.462-3.215-3.275c0-1.814,1.449-3.301,3.215-3.301
			c1.85,0,3.385,1.438,3.152,3.921H43.459z M46.602,15.548c-0.195-0.73-0.805-1.193-1.571-1.193c-0.731,0-1.315,0.463-1.546,1.193
			H46.602z"/>
		<path fill="#FFFFFF" d="M55.396,19.054c0,2.082-1.242,3.385-3.251,3.385c-1.498,0-2.801-0.864-3.045-2.191h1.766
			c0.207,0.499,0.841,0.693,1.279,0.693c1.133,0,1.644-0.742,1.644-1.862v-0.305c-0.487,0.463-1.12,0.73-1.851,0.73
			c-1.632,0-2.983-1.412-2.983-3.263c0-1.863,1.352-3.276,2.983-3.276c0.768,0,1.424,0.293,1.924,0.804V13.1h1.534V19.054z
			 M52.182,14.452c-0.89,0-1.607,0.779-1.607,1.802c0,0.998,0.718,1.766,1.607,1.766c0.889,0,1.606-0.791,1.606-1.766
			C53.789,15.256,53.071,14.452,52.182,14.452z"/>
		<path fill="#FFFFFF" d="M62.266,19.371h-1.533v-0.572c-0.391,0.45-0.938,0.719-1.596,0.719c-1.486,0-2.473-1.108-2.473-2.752V13.1
			h1.607v3.665c0,0.353,0.123,1.229,1.17,1.229c0.719,0,1.217-0.536,1.217-1.229V13.1h1.607V19.371z"/>
		<path fill="#FFFFFF" d="M65.375,12.418h-1.607v-1.497h1.607V12.418z M65.375,19.371h-1.607V13.1h1.607V19.371z"/>
		<path fill="#FFFFFF" d="M72.487,19.371h-1.607v-3.665c0-0.365-0.109-1.242-1.169-1.242c-0.719,0-1.218,0.536-1.218,1.242v3.665
			h-1.607V13.1h1.534v0.608c0.401-0.475,0.95-0.768,1.62-0.768c1.473,0,2.447,1.108,2.447,2.765V19.371z"/>
		<path fill="#FFFFFF" d="M79.869,16.242c0,1.875-1.425,3.275-3.166,3.275s-3.153-1.4-3.153-3.275c0-1.876,1.412-3.301,3.153-3.301
			S79.869,14.366,79.869,16.242z M78.249,16.254c0-1.084-0.693-1.839-1.546-1.839s-1.546,0.755-1.546,1.839
			c0,1.06,0.693,1.79,1.546,1.79S78.249,17.313,78.249,16.254z"/>
		<path fill="#FFFFFF" d="M83.512,19.517c-1.596,0-2.777-0.841-2.972-2.192h1.632c0.219,0.536,0.865,0.73,1.34,0.73
			c0.645,0,1.132-0.194,1.132-0.56c0-0.354-0.22-0.499-1.315-0.67c-1.119-0.171-2.617-0.475-2.617-1.875
			c0-0.986,0.864-2.01,2.679-2.01c1.437,0,2.509,0.779,2.716,1.961h-1.669c-0.097-0.292-0.45-0.523-1.047-0.523
			c-0.743,0-1.048,0.268-1.048,0.499c0,0.329,0.463,0.438,1.242,0.561c1.559,0.255,2.68,0.597,2.68,1.96
			C86.264,18.64,85.12,19.517,83.512,19.517z"/>
		<path fill="#FFFFFF" d="M92.393,16.862c0.207,0.768,0.815,1.242,1.57,1.242c0.535,0,1.059-0.231,1.327-0.73h1.717
			c-0.365,1.278-1.474,2.144-3.032,2.144c-1.766,0-3.215-1.462-3.215-3.275c0-1.814,1.449-3.301,3.215-3.301
			c1.852,0,3.385,1.438,3.154,3.921H92.393z M95.534,15.548c-0.194-0.73-0.803-1.193-1.57-1.193c-0.73,0-1.315,0.463-1.547,1.193
			H95.534z"/>
		<path fill="#FFFFFF" d="M103.854,19.371h-1.607v-3.665c0-0.365-0.11-1.242-1.17-1.242c-0.719,0-1.217,0.536-1.217,1.242v3.665
			h-1.607V13.1h1.533v0.608c0.402-0.475,0.951-0.768,1.62-0.768c1.474,0,2.448,1.108,2.448,2.765V19.371z"/>
		<path fill="#FFFFFF" d="M112.37,12.418v6.953h-1.607v-6.953h-2.266v-1.497h6.137v1.497H112.37z"/>
		<path fill="#FFFFFF" d="M121.479,19.371h-1.655l-1.132-4.152l-1.133,4.152h-1.668l-1.949-6.271h1.705l1.096,4.383l1.145-4.383
			h1.607l1.145,4.383l1.096-4.383h1.705L121.479,19.371z"/>
		<path fill="#FFFFFF" d="M125.842,12.418h-1.607v-1.497h1.607V12.418z M125.842,19.371h-1.607V13.1h1.607V19.371z"/>
		<path fill="#FFFFFF" d="M132.784,16.753c0,1.583-1.07,2.765-2.752,2.765c-1.68,0-2.764-1.182-2.764-2.765v-5.248h1.607V13.1h3.848
			v1.51h-3.848v2.228c0,0.573,0.354,1.157,1.156,1.157c0.792,0,1.146-0.584,1.146-1.157v-0.596h1.606V16.753z"/>
		<path fill="#FFFFFF" d="M139.35,16.753c0,1.583-1.071,2.765-2.752,2.765c-1.68,0-2.764-1.182-2.764-2.765v-5.248h1.607V13.1h3.848
			v1.51h-3.848v2.228c0,0.573,0.354,1.157,1.156,1.157c0.791,0,1.145-0.584,1.145-1.157v-0.596h1.607V16.753z"/>
		<path fill="#FFFFFF" d="M141.813,16.862c0.207,0.768,0.815,1.242,1.57,1.242c0.535,0,1.059-0.231,1.328-0.73h1.717
			c-0.365,1.278-1.475,2.144-3.033,2.144c-1.766,0-3.215-1.462-3.215-3.275c0-1.814,1.449-3.301,3.215-3.301
			c1.852,0,3.385,1.438,3.154,3.921H141.813z M144.954,15.548c-0.193-0.73-0.803-1.193-1.57-1.193c-0.73,0-1.315,0.463-1.547,1.193
			H144.954z"/>
		<path fill="#FFFFFF" d="M153.274,16.022h-1.607v-0.316c0-0.365-0.109-1.242-1.17-1.242c-0.719,0-1.217,0.536-1.217,1.242v3.665
			h-1.607V13.1h1.533v0.608c0.402-0.475,0.951-0.768,1.621-0.768c1.473,0,2.447,1.108,2.447,2.765V16.022z"/>
		<path fill="#FFFFFF" d="M156.125,16.85h-1.607v-5.93h1.607V16.85z M156.125,19.371h-1.607v-1.595h1.607V19.371z"/>
	</g>
</g>
<g>
	<g>
		<path id="XMLID_9_" fill="#FFFFFF" d="M23.597,9.888c-0.644,0.279-1.333,0.469-2.061,0.553c0.743-0.438,1.311-1.129,1.579-1.953
			c-0.693,0.406-1.461,0.699-2.279,0.857C20.181,8.657,19.25,8.23,18.219,8.23c-1.981,0-3.588,1.58-3.588,3.529
			c0,0.279,0.032,0.547,0.092,0.807c-2.982-0.147-5.626-1.553-7.395-3.69c-0.31,0.521-0.488,1.127-0.488,1.774
			c0,1.226,0.635,2.308,1.596,2.939c-0.585-0.019-1.14-0.176-1.624-0.441c0,0.015,0,0.029,0,0.045c0,0.453,0.088,0.881,0.245,1.279
			c0.439,1.108,1.426,1.946,2.633,2.185c-0.301,0.08-0.617,0.123-0.946,0.123c-0.23,0-0.456-0.021-0.675-0.062
			c0.458,1.402,1.783,2.424,3.353,2.453c-1.23,0.946-2.776,1.513-4.457,1.513c-0.291,0-0.575-0.018-0.856-0.051
			c1.588,1.002,3.475,1.588,5.5,1.588c5.609,0,9.055-3.886,9.966-7.918c0.158-0.713,0.242-1.43,0.242-2.133
			c0-0.152-0.002-0.308-0.01-0.457C22.509,11.217,23.119,10.594,23.597,9.888z"/>
	</g>
</g>
</svg>
