<?xml version="1.0" encoding="utf-8"?>
<!-- Generator: Adobe Illustrator 16.0.0, SVG Export Plug-In . SVG Version: 6.00 Build 0)  -->
<!DOCTYPE svg PUBLIC "-//W3C//DTD SVG 1.1//EN" "http://www.w3.org/Graphics/SVG/1.1/DTD/svg11.dtd">
<svg version="1.1" id="Layer_1" xmlns="http://www.w3.org/2000/svg" xmlns:xlink="http://www.w3.org/1999/xlink" x="0px" y="0px"
	 width="16.473px" height="16.473px" viewBox="0 0 16.473 16.473" enable-background="new 0 0 16.473 16.473" xml:space="preserve">
<path fill="#3E4F5E" d="M13.792,1.292H2.68c-0.768,0-1.389,0.622-1.389,1.389v11.112c0,0.768,0.621,1.389,1.389,1.389h11.112
	c0.768,0,1.389-0.621,1.389-1.389V2.681C15.181,1.914,14.56,1.292,13.792,1.292z M5.458,13.793H2.68v-2.777h2.778V13.793z
	 M5.458,9.626H2.68V6.848h2.778V9.626z M5.458,5.459H2.68V2.681h2.778V5.459z M9.625,13.793H6.847v-2.777h2.778V13.793z
	 M9.625,9.626H6.847V6.848h2.778V9.626z M9.625,5.459H6.847V2.681h2.778V5.459z M13.792,13.793h-2.778v-2.777h2.778V13.793z
	 M13.792,9.626h-2.778V6.848h2.778V9.626z M13.792,5.459h-2.778V2.681h2.778V5.459z"/>
</svg>
