<?xml version="1.0" encoding="utf-8"?>
<!-- Generator: Adobe Illustrator 16.0.0, SVG Export Plug-In . SVG Version: 6.00 Build 0)  -->
<!DOCTYPE svg PUBLIC "-//W3C//DTD SVG 1.1//EN" "http://www.w3.org/Graphics/SVG/1.1/DTD/svg11.dtd">
<svg version="1.1" id="Layer_1" xmlns="http://www.w3.org/2000/svg" xmlns:xlink="http://www.w3.org/1999/xlink" x="0px" y="0px"
	 width="13.205px" height="12.195px" viewBox="0 0 13.205 12.195" enable-background="new 0 0 13.205 12.195" xml:space="preserve">
<path fill="#FFFFFF" d="M12.197,5.887V7.76c0,1.219-0.436,2.264-1.304,3.133s-1.911,1.303-3.132,1.303H4.436
	c-1.221,0-2.264-0.434-3.133-1.303C0.435,10.023,0,8.979,0,7.76V4.434C0,3.215,0.435,2.17,1.303,1.301C2.172,0.434,3.215,0,4.436,0
	h3.326C8.206,0,8.674,0.084,9.17,0.254L7.197,2.217h-3.87c-0.304,0-0.565,0.107-0.782,0.326C2.326,2.762,2.217,3.021,2.217,3.326
	v5.543c0,0.303,0.109,0.564,0.328,0.781c0.217,0.219,0.479,0.328,0.782,0.328h5.544c0.303,0,0.562-0.109,0.781-0.328
	c0.219-0.217,0.326-0.479,0.326-0.781V8.104L12.197,5.887z M6.93,8.336l6.275-6.285l-1.508-1.52L6.93,5.311L5.299,3.68L3.792,5.188
	L6.93,8.336z"/>
</svg>
