<?xml version="1.0" encoding="utf-8"?>
<!-- Generator: Adobe Illustrator 16.0.0, SVG Export Plug-In . SVG Version: 6.00 Build 0)  -->
<!DOCTYPE svg PUBLIC "-//W3C//DTD SVG 1.1//EN" "http://www.w3.org/Graphics/SVG/1.1/DTD/svg11.dtd">
<svg version="1.1" id="Capa_1" xmlns="http://www.w3.org/2000/svg" xmlns:xlink="http://www.w3.org/1999/xlink" x="0px" y="0px"
	 width="16.557px" height="14px" viewBox="0 0 16.557 14" enable-background="new 0 0 16.557 14" xml:space="preserve">
<path fill="#5D5D5D" d="M14.154,6.789v1.875c0,1.219-0.436,2.264-1.304,3.133s-1.911,1.301-3.132,1.301H6.393
	c-1.221,0-2.264-0.432-3.133-1.301c-0.868-0.869-1.303-1.914-1.303-3.133V5.338c0-1.221,0.435-2.264,1.303-3.133
	c0.869-0.869,1.912-1.303,3.133-1.303h3.326c0.444,0,0.912,0.084,1.408,0.254L9.154,3.119h-3.87c-0.304,0-0.565,0.109-0.782,0.328
	C4.283,3.666,4.175,3.926,4.175,4.229v5.545c0,0.303,0.108,0.563,0.327,0.781c0.217,0.219,0.479,0.326,0.782,0.326h5.544
	c0.303,0,0.563-0.107,0.781-0.326s0.326-0.479,0.326-0.781V9.006L14.154,6.789z M8.887,9.24l6.275-6.287l-1.508-1.52L8.887,6.215
	L7.256,4.584L5.749,6.092L8.887,9.24z"/>
</svg>
