<?xml version="1.0" encoding="utf-8"?>
<!-- Generator: Adobe Illustrator 16.0.0, SVG Export Plug-In . SVG Version: 6.00 Build 0)  -->
<!DOCTYPE svg PUBLIC "-//W3C//DTD SVG 1.1//EN" "http://www.w3.org/Graphics/SVG/1.1/DTD/svg11.dtd">
<svg version="1.1" id="Capa_1" xmlns="http://www.w3.org/2000/svg" xmlns:xlink="http://www.w3.org/1999/xlink" x="0px" y="0px"
	 width="47px" height="49.306px" viewBox="0 0 47 49.306" enable-background="new 0 0 47 49.306" xml:space="preserve">
<g>
	<defs>
		<polygon id="SVGID_1_" points="3.473,33.333 3.951,22.313 13.012,4.929 22.167,1 28.863,6.487 34.056,8.257 40.793,16.18 
			42.487,16.644 43.408,17.486 42.734,20.546 44.777,28.099 44.204,32.108 40.704,36.014 34.49,38.379 27.625,37.155 17.101,48.431 
					"/>
	</defs>
	<use xlink:href="#SVGID_1_"  overflow="visible" fill="#FFFFFF"/>
	<clipPath id="SVGID_2_">
		<use xlink:href="#SVGID_1_"  overflow="visible"/>
	</clipPath>
	<polygon clip-path="url(#SVGID_2_)" fill="#19C3E3" points="10.429,9.378 10.236,8.858 14.335,7.317 14.843,7.777 19.882,4.792 
		19.882,4.502 18.502,2.021 18.99,1.749 20.441,4.354 20.441,5.112 14.774,8.462 14.213,7.956 	"/>
	<polygon clip-path="url(#SVGID_2_)" fill="#19C3E3" points="14.32,14.804 10.097,9.821 10.521,9.46 14.454,14.101 19.238,11.534 
		18.23,9.695 18.719,9.43 19.996,11.763 	"/>
	<polygon clip-path="url(#SVGID_2_)" fill="#19C3E3" points="17.756,10.108 16.116,7.319 16.596,7.038 17.992,9.412 19.934,8.615 
		18.546,5.853 19.043,5.603 20.703,8.903 	"/>
	<polygon clip-path="url(#SVGID_2_)" fill="#19C3E3" points="20.771,12.751 19.463,11.88 19.771,11.417 20.75,12.067 23.618,9.885 
		24.382,10.282 26.409,8.983 26.231,7.864 28.835,5.961 29.166,6.411 26.833,8.11 27.015,9.253 24.415,10.925 23.675,10.54 	"/>
	<polygon clip-path="url(#SVGID_2_)" fill="#19C3E3" points="24.772,15.621 20.774,12.632 21.108,12.185 24.748,14.907 
		25.769,14.017 24.998,12.923 25.755,12.139 24.346,10.702 24.745,10.315 26.529,12.138 25.719,12.978 26.514,14.107 	"/>
	<polygon clip-path="url(#SVGID_2_)" fill="#19C3E3" points="17.088,16.67 14.429,14.675 14.763,14.229 17.159,16.027 
		18.238,15.544 17.184,12.914 17.702,12.708 18.952,15.831 	"/>
	<polygon clip-path="url(#SVGID_2_)" fill="#19C3E3" points="10.498,16.907 8.314,13.241 8.791,12.956 10.695,16.149 14.035,14.212 
		14.315,14.69 	"/>
	<polygon clip-path="url(#SVGID_2_)" fill="#19C3E3" points="16.515,18.733 11.792,17.886 10.527,16.7 10.908,16.292 12.05,17.366 
		16.197,18.112 17.113,16.229 17.612,16.47 	"/>
	
		<rect x="15.607" y="19.111" transform="matrix(0.3564 0.9343 -0.9343 0.3564 28.9084 -3.1922)" clip-path="url(#SVGID_2_)" fill="#19C3E3" width="2.329" height="0.555"/>
	<polygon clip-path="url(#SVGID_2_)" fill="#19C3E3" points="11.845,23.286 9.159,18.833 11.712,17.384 11.985,17.868 9.929,19.034 
		11.996,22.458 13.555,21.222 15.623,21.007 18.584,19.401 23.968,21.962 28.778,19.545 25.051,15.659 24.408,17.996 22.739,18.68 
		21.26,19.1 19.047,18.649 19.047,16.648 18.258,15.888 18.643,15.486 19.604,16.411 19.604,18.194 21.238,18.528 22.558,18.155 
		23.944,17.585 24.594,15.229 24.82,14.949 25.167,14.975 29.702,19.703 23.972,22.582 18.602,20.024 15.735,21.556 13.774,21.758 	
		"/>
	<polygon clip-path="url(#SVGID_2_)" fill="#19C3E3" points="19.621,16.905 19.25,16.493 20.718,15.171 20.718,12.634 
		21.276,12.634 21.276,15.419 	"/>
	<polygon clip-path="url(#SVGID_2_)" fill="#19C3E3" points="18.537,35.813 17.02,33.837 17.981,32.438 16.776,31.142 
		15.609,25.785 14.492,25.897 12.332,23.74 8.493,26.216 7.77,25.313 6.199,26.309 4.779,24.452 10.644,20.763 10.94,21.237 
		5.59,24.599 6.332,25.567 7.893,24.577 8.615,25.476 12.408,23.03 14.699,25.319 16.151,25.235 17.289,30.876 18.694,32.384 
		17.706,33.819 18.653,35.054 20.673,33.646 23.16,33.646 24.069,33.397 23.39,32.532 22.691,32.532 21.553,30.206 21.553,28.081 
		19.619,21.386 20.703,20.537 21.455,18.638 21.979,18.829 21.169,20.878 20.257,21.592 22.109,28.044 22.109,30.142 23.036,31.977 
		23.661,31.977 25.026,33.715 23.195,34.201 20.847,34.201 	"/>
	<polygon clip-path="url(#SVGID_2_)" fill="#19C3E3" points="15.774,30.615 10.65,24.54 11.078,24.182 15.886,29.884 16.589,29.438 
		16.886,29.909 	"/>
	
		<rect x="9.257" y="26.091" transform="matrix(0.4493 0.8934 -0.8934 0.4493 33.9803 9.1918)" clip-path="url(#SVGID_2_)" fill="#19C3E3" width="0.555" height="12.136"/>
	<polygon clip-path="url(#SVGID_2_)" fill="#19C3E3" points="2.8,21.979 3.214,21.715 6.508,25.879 6.093,26.146 	"/>
	
		<rect x="8.095" y="37.394" transform="matrix(0.642 0.7667 -0.7667 0.642 34.7037 1.0187)" clip-path="url(#SVGID_2_)" fill="#19C3E3" width="16.332" height="0.557"/>
	<polygon clip-path="url(#SVGID_2_)" fill="#19C3E3" points="8.562,39.604 8.186,39.193 11.535,36.161 12.54,36.368 14.325,35.294 
		14.611,35.77 12.64,36.958 11.7,36.762 	"/>
	<polygon clip-path="url(#SVGID_2_)" fill="#19C3E3" points="16.922,45.667 14.426,42.886 12.624,44.16 12.303,43.706 14.51,42.147 
		16.981,44.899 20.142,42.302 20.493,42.733 	"/>
	
		<rect x="17.29" y="34.872" transform="matrix(0.5935 0.8048 -0.8048 0.5935 36.5155 0.6966)" clip-path="url(#SVGID_2_)" fill="#19C3E3" width="0.557" height="3.254"/>
	<polygon clip-path="url(#SVGID_2_)" fill="#19C3E3" points="17.234,25.054 15.458,21.399 15.958,21.157 17.49,24.313 
		20.144,23.035 20.383,23.537 	"/>
	
		<rect x="16.257" y="24.168" transform="matrix(0.4409 0.8976 -0.8976 0.4409 31.7659 -0.8135)" clip-path="url(#SVGID_2_)" fill="#19C3E3" width="0.557" height="1.845"/>
	<polygon clip-path="url(#SVGID_2_)" fill="#19C3E3" points="41.288,36.495 40.729,36.479 40.918,30.026 40.768,30.026 
		39.385,30.35 36.422,31.108 36.341,33.148 32.992,34.779 29.903,34.556 29.903,32.766 30.739,31.563 30.754,23.302 31.722,20.334 
		30.742,19.888 33.99,15.878 35.336,16.038 35.856,14.833 34.78,13.301 37.011,11.308 37.381,11.726 35.521,13.386 36.492,14.767 
		35.684,16.642 34.228,16.466 31.626,19.679 32.404,20.034 31.294,23.431 31.294,31.738 30.459,32.938 30.459,34.039 32.883,34.214 
		35.8,32.797 35.882,30.673 39.251,29.806 40.704,29.478 41.492,29.471 	"/>
	
		<rect x="31.247" y="36.092" transform="matrix(0.026 0.9997 -0.9997 0.026 68.7371 2.1969)" clip-path="url(#SVGID_2_)" fill="#19C3E3" width="3.988" height="0.559"/>
	<polygon clip-path="url(#SVGID_2_)" fill="#19C3E3" points="44.55,30.493 43.591,29.191 41.929,29.191 42.007,21.911 
		37.416,21.692 37.416,18.688 41.206,15.703 41.553,16.14 37.973,18.956 37.973,21.163 42.572,21.382 42.491,28.636 43.871,28.636 
		44.997,30.163 	"/>
	<polygon clip-path="url(#SVGID_2_)" fill="#19C3E3" points="37.54,20.843 34.202,20.824 33.264,20.483 31.259,20.159 
		31.347,19.608 33.406,19.946 34.346,20.285 37.54,20.285 	"/>
	<polygon clip-path="url(#SVGID_2_)" fill="#19C3E3" points="24.307,33.991 24.124,33.467 25.598,32.952 25.831,31.977 
		27.681,31.977 27.308,25.254 26.877,20.883 27.43,20.83 27.863,25.212 28.271,32.532 26.271,32.532 26.068,33.378 	"/>
	<polygon clip-path="url(#SVGID_2_)" fill="#19C3E3" points="26.943,37.874 24.81,35.878 24.16,36.259 22.436,34.323 22.851,33.954 
		24.272,35.548 24.886,35.187 27.323,37.469 	"/>
	<rect x="21.542" y="28.143" clip-path="url(#SVGID_2_)" fill="#19C3E3" width="6.204" height="0.559"/>
	<rect x="27.615" y="26.132" clip-path="url(#SVGID_2_)" fill="#19C3E3" width="14.674" height="0.556"/>
	<polygon clip-path="url(#SVGID_2_)" fill="#19C3E3" points="36.617,30.48 36.06,30.829 36.356,20.517 36.913,20.534 	"/>
	
		<rect x="36.634" y="23.746" transform="matrix(0.9995 0.0317 -0.0317 0.9995 0.7815 -1.2402)" clip-path="url(#SVGID_2_)" fill="#19C3E3" width="5.729" height="0.559"/>
	
		<rect x="29.246" y="19.437" transform="matrix(0.9961 0.0886 -0.0886 0.9961 1.8656 -2.6048)" clip-path="url(#SVGID_2_)" fill="#19C3E3" width="2.061" height="0.555"/>
	
		<rect x="33.543" y="26.587" transform="matrix(0.043 0.9991 -0.9991 0.043 61.4454 -5.9352)" clip-path="url(#SVGID_2_)" fill="#19C3E3" width="0.556" height="5.039"/>
</g>
</svg>
