<?xml version="1.0" encoding="utf-8"?>
<!-- Generator: Adobe Illustrator 16.0.0, SVG Export Plug-In . SVG Version: 6.00 Build 0)  -->
<!DOCTYPE svg PUBLIC "-//W3C//DTD SVG 1.1//EN" "http://www.w3.org/Graphics/SVG/1.1/DTD/svg11.dtd">
<svg version="1.1" id="Layer_1" xmlns="http://www.w3.org/2000/svg" xmlns:xlink="http://www.w3.org/1999/xlink" x="0px" y="0px"
	 width="132.108px" height="32.603px" viewBox="0 0 132.108 32.603" enable-background="new 0 0 132.108 32.603"
	 xml:space="preserve">
<path fill="#58585B" d="M33.409,9.117h-0.002c-1.148,0-2.141,0.658-2.623,1.62l-3.948,7.626c-0.442-0.783-1.144-1.4-1.991-1.731
	c0.946-0.685,1.562-1.8,1.562-3.06c0-1.458-0.828-2.723-2.04-3.348C23.3,9.662,22.081,9.346,20.79,9.346h-5.903
	c-1.214,0-2.195,0.98-2.195,2.193v10.984c0,1.212,0.981,2.194,2.195,2.194h2.132h4.252c1.231,0,2.402-0.255,3.465-0.71l0.405-0.195
	c0.023-0.012,0.046-0.023,0.067-0.034c0.383,0.636,1.079,1.063,1.877,1.063c0.889,0,1.654-0.527,1.999-1.289
	c0.173-0.4,0.56-0.686,1.017-0.707h6.616c0.458,0.021,0.845,0.307,1.018,0.707c0.345,0.762,1.11,1.289,1.999,1.289
	c1.213,0,2.193-0.984,2.193-2.192c0-0.393-0.102-0.761-0.283-1.079l-5.608-10.833C35.552,9.775,34.56,9.117,33.409,9.117
	L33.409,9.117z"/>
<g>
	<path fill="#58585B" d="M51.221,20.132h-0.998l-1.604-4.882h0.985l1.118,3.764l1.111-3.764h0.985L51.221,20.132z"/>
	<path fill="#58585B" d="M56.221,20.132h-0.887v-0.387c-0.281,0.296-0.668,0.464-1.111,0.464c-0.942,0-1.723-0.816-1.723-1.885
		c0-1.076,0.78-1.893,1.723-1.893c0.443,0,0.83,0.169,1.111,0.465V16.51h0.887V20.132z M54.363,17.29
		c-0.514,0-0.928,0.45-0.928,1.041c0,0.577,0.414,1.021,0.928,1.021s0.929-0.457,0.929-1.021
		C55.292,17.754,54.877,17.29,54.363,17.29z"/>
	<path fill="#58585B" d="M62.494,20.132h-0.93v-2.117c0-0.211-0.07-0.718-0.675-0.718c-0.415,0-0.703,0.31-0.703,0.718v2.117h-0.936
		v-2.117c0-0.211-0.063-0.718-0.675-0.718c-0.408,0-0.697,0.31-0.697,0.718v2.117h-0.936V16.51h0.894v0.352
		c0.226-0.275,0.542-0.443,0.936-0.443c0.45,0,0.83,0.189,1.083,0.514c0.261-0.316,0.641-0.514,1.104-0.514
		c0.971,0,1.534,0.646,1.534,1.597V20.132z"/>
	<path fill="#58585B" d="M66.613,18.324c0,1.083-0.823,1.893-1.829,1.893s-1.821-0.81-1.821-1.893c0-1.084,0.815-1.906,1.821-1.906
		S66.613,17.24,66.613,18.324z M65.678,18.331c0-0.626-0.4-1.062-0.894-1.062c-0.492,0-0.894,0.436-0.894,1.062
		c0,0.612,0.401,1.034,0.894,1.034C65.277,19.365,65.678,18.943,65.678,18.331z"/>
	<path fill="#58585B" d="M68.574,20.217c-0.922,0-1.604-0.486-1.717-1.267h0.943c0.127,0.31,0.499,0.422,0.773,0.422
		c0.373,0,0.654-0.112,0.654-0.323c0-0.204-0.127-0.289-0.76-0.387c-0.646-0.1-1.512-0.275-1.512-1.084
		c0-0.569,0.499-1.16,1.547-1.16c0.83,0,1.449,0.449,1.568,1.133h-0.963c-0.057-0.17-0.261-0.303-0.605-0.303
		c-0.43,0-0.605,0.154-0.605,0.288c0,0.19,0.268,0.253,0.719,0.323c0.9,0.148,1.547,0.346,1.547,1.133
		C70.164,19.71,69.503,20.217,68.574,20.217z"/>
	<path fill="#58585B" d="M75.107,20.132h-2.378V15.25h2.251c0.978,0,1.471,0.506,1.471,1.322c0,0.408-0.176,0.738-0.479,0.957
		c0.414,0.218,0.668,0.611,0.668,1.168C76.641,19.568,76.05,20.132,75.107,20.132z M73.658,16.094v1.076h1.322
		c0.316,0,0.57-0.218,0.57-0.541c0-0.324-0.219-0.535-0.57-0.535H73.658z M74.959,18.021h-1.301v1.26h1.322
		c0.359,0,0.711-0.141,0.711-0.619C75.691,18.254,75.431,18.021,74.959,18.021z"/>
	<path fill="#58585B" d="M80.283,20.132h-0.887v-0.331c-0.226,0.261-0.542,0.416-0.922,0.416c-0.857,0-1.428-0.641-1.428-1.59V16.51
		h0.928v2.117c0,0.203,0.07,0.71,0.676,0.71c0.415,0,0.703-0.31,0.703-0.71V16.51h0.93V20.132z"/>
	<path fill="#58585B" d="M81.723,18.683c0.12,0.443,0.472,0.718,0.908,0.718c0.309,0,0.611-0.134,0.766-0.422h0.992
		c-0.211,0.738-0.852,1.238-1.752,1.238c-1.02,0-1.856-0.845-1.856-1.893c0-1.049,0.837-1.906,1.856-1.906
		c1.07,0,1.956,0.83,1.822,2.265H81.723z M83.537,17.923c-0.111-0.422-0.463-0.688-0.906-0.688c-0.422,0-0.76,0.267-0.895,0.688
		H83.537z"/>
	<path fill="#58585B" d="M88.207,20.132h-0.928v-2.117c0-0.211-0.064-0.718-0.676-0.718c-0.415,0-0.703,0.31-0.703,0.718v2.117
		h-0.93V16.51h0.887v0.352c0.232-0.275,0.549-0.443,0.936-0.443c0.852,0,1.414,0.64,1.414,1.597V20.132z"/>
	<path fill="#58585B" d="M92.328,18.324c0,1.083-0.823,1.893-1.83,1.893c-1.006,0-1.821-0.81-1.821-1.893
		c0-1.084,0.815-1.906,1.821-1.906C91.505,16.418,92.328,17.24,92.328,18.324z M91.393,18.331c0-0.626-0.401-1.062-0.895-1.062
		c-0.492,0-0.893,0.436-0.893,1.062c0,0.612,0.4,1.034,0.893,1.034C90.991,19.365,91.393,18.943,91.393,18.331z"/>
	<path fill="#58585B" d="M94.295,20.217c-0.921,0-1.604-0.486-1.716-1.267h0.942c0.127,0.31,0.5,0.422,0.773,0.422
		c0.373,0,0.654-0.112,0.654-0.323c0-0.204-0.126-0.289-0.76-0.387c-0.646-0.1-1.512-0.275-1.512-1.084c0-0.569,0.5-1.16,1.547-1.16
		c0.83,0,1.449,0.449,1.569,1.133H94.83c-0.057-0.17-0.26-0.303-0.605-0.303c-0.429,0-0.604,0.154-0.604,0.288
		c0,0.19,0.268,0.253,0.718,0.323c0.9,0.148,1.547,0.346,1.547,1.133C95.885,19.71,95.225,20.217,94.295,20.217z"/>
	<path fill="#58585B" d="M99.357,19.154l-0.33,0.978h-0.984l1.702-4.882h1.175l1.702,4.882h-0.985l-0.33-0.978H99.357z
		 M100.328,16.284l-0.682,2.005h1.365L100.328,16.284z"/>
	<path fill="#58585B" d="M103.928,16.115H103V15.25h0.928V16.115z M103.928,20.132H103V16.51h0.928V20.132z"/>
	<path fill="#58585B" d="M107.902,18.197h-0.929v-0.183c0-0.211-0.063-0.718-0.675-0.718c-0.416,0-0.704,0.31-0.704,0.718v2.117
		h-0.929V16.51h0.887v0.352c0.232-0.275,0.549-0.443,0.936-0.443c0.852,0,1.414,0.64,1.414,1.597V18.197z"/>
	<path fill="#58585B" d="M109.117,18.683c0.12,0.443,0.472,0.718,0.908,0.718c0.309,0,0.611-0.134,0.766-0.422h0.992
		c-0.211,0.738-0.852,1.238-1.752,1.238c-1.02,0-1.856-0.845-1.856-1.893c0-1.049,0.837-1.906,1.856-1.906
		c1.07,0,1.956,0.83,1.822,2.265H109.117z M110.932,17.923c-0.111-0.422-0.463-0.688-0.906-0.688c-0.422,0-0.76,0.267-0.895,0.688
		H110.932z"/>
	<path fill="#58585B" d="M113.836,20.217c-0.922,0-1.604-0.486-1.717-1.267h0.943c0.127,0.31,0.499,0.422,0.773,0.422
		c0.373,0,0.654-0.112,0.654-0.323c0-0.204-0.127-0.289-0.76-0.387c-0.646-0.1-1.512-0.275-1.512-1.084
		c0-0.569,0.499-1.16,1.547-1.16c0.83,0,1.449,0.449,1.568,1.133h-0.963c-0.057-0.17-0.261-0.303-0.605-0.303
		c-0.43,0-0.605,0.154-0.605,0.288c0,0.19,0.268,0.253,0.719,0.323c0.9,0.148,1.547,0.346,1.547,1.133
		C115.426,19.71,114.765,20.217,113.836,20.217z"/>
</g>
</svg>
