<?xml version="1.0" encoding="utf-8"?>
<!-- Generator: Adobe Illustrator 16.0.0, SVG Export Plug-In . SVG Version: 6.00 Build 0)  -->
<!DOCTYPE svg PUBLIC "-//W3C//DTD SVG 1.1//EN" "http://www.w3.org/Graphics/SVG/1.1/DTD/svg11.dtd">
<svg version="1.1" id="Capa_1" xmlns="http://www.w3.org/2000/svg" xmlns:xlink="http://www.w3.org/1999/xlink" x="0px" y="0px"
	 width="28.587px" height="22.765px" viewBox="0 0 28.587 22.765" enable-background="new 0 0 28.587 22.765" xml:space="preserve">
<g>
	<g>
		<g>

				<polyline fill="none" stroke="#FF386A" stroke-width="0.9293" stroke-linecap="round" stroke-linejoin="round" stroke-miterlimit="10" points="
				10.064,17.423 6.347,17.423 6.347,2.09 14.478,2.09 17.036,5.146 			"/>

				<line fill="none" stroke="#FF386A" stroke-width="0.9293" stroke-linecap="round" stroke-linejoin="round" stroke-miterlimit="10" x1="14.478" y1="2.251" x2="14.478" y2="5.11"/>
		</g>
	</g>
</g>
<polyline fill="#FF386A" points="14.784,3.02 14.784,5.343 16.705,5.343 "/>
<polygon fill="none" stroke="#FF386A" stroke-width="0.9293" stroke-linecap="round" stroke-linejoin="round" stroke-miterlimit="10" points="
	22.144,20.675 10.064,20.675 10.064,5.343 18.195,5.343 22.144,9.989 "/>
<polyline fill="none" stroke="#FF386A" stroke-width="0.9293" stroke-linecap="round" stroke-linejoin="round" stroke-miterlimit="10" points="
	18.195,5.343 18.195,9.989 22.037,9.989 "/>
<polyline fill="#FF386A" points="18.398,5.343 18.398,9.989 22.24,9.989 "/>
<path fill="#FF386A" d="M19.124,12.681c0,0.181-0.141,0.328-0.313,0.328h-5.18c-0.174,0-0.314-0.147-0.314-0.328v-0.039
	c0-0.183,0.141-0.329,0.314-0.329h5.18c0.173,0,0.313,0.146,0.313,0.329V12.681z"/>
<path fill="#FF386A" d="M19.124,14.539c0,0.182-0.141,0.328-0.313,0.328h-5.18c-0.174,0-0.314-0.146-0.314-0.328v-0.04
	c0-0.182,0.141-0.328,0.314-0.328h5.18c0.173,0,0.313,0.146,0.313,0.328V14.539z"/>
<path fill="#FF386A" d="M19.124,16.396c0,0.183-0.141,0.329-0.313,0.329h-5.18c-0.174,0-0.314-0.146-0.314-0.329v-0.037
	c0-0.183,0.141-0.33,0.314-0.33h5.18c0.173,0,0.313,0.147,0.313,0.33V16.396z"/>
</svg>
