<?xml version="1.0" encoding="utf-8"?>
<!-- Generator: Adobe Illustrator 16.0.0, SVG Export Plug-In . SVG Version: 6.00 Build 0)  -->
<!DOCTYPE svg PUBLIC "-//W3C//DTD SVG 1.1//EN" "http://www.w3.org/Graphics/SVG/1.1/DTD/svg11.dtd">
<svg version="1.1" id="Capa_1" xmlns="http://www.w3.org/2000/svg" xmlns:xlink="http://www.w3.org/1999/xlink" x="0px" y="0px"
	 width="52.333px" height="46.583px" viewBox="0 0 52.333 46.583" enable-background="new 0 0 52.333 46.583" xml:space="preserve">
<!-- fill="#FF386A -->
<path id="XMLID_271_" fill="#FFFFFF" stroke="#FFFFFF" stroke-width="0.7138" stroke-miterlimit="10" d="M44.117,14.852
	c-8.344-4.201-26.164-4.463-35.119,0l-7.3,4.316L12.43,37.592l7.09-3.994c0,0,2.02-1.436,6.998-1.436c4.147,0,6.823,1.35,6.823,1.35
	l7.303,4.348l10.689-19.039L44.117,14.852z"/>
<line id="XMLID_269_" fill="none" stroke="#FFFFFF" stroke-width="1.3192" stroke-miterlimit="10" x1="10.184" y1="14.057" x2="20.433" y2="32.916"/>
<line id="XMLID_267_" fill="none" stroke="#FFFFFF" stroke-width="1.3192" stroke-miterlimit="10" x1="18.927" y1="12.105" x2="22.983" y2="32.549"/>
<line id="XMLID_265_" fill="none" stroke="#FFFFFF" stroke-width="1.3192" stroke-miterlimit="10" x1="35.658" y1="12.105" x2="30.181" y2="32.351"/>
<line id="XMLID_263_" fill="none" stroke="#FFFFFF" stroke-width="1.3192" stroke-miterlimit="10" x1="43.851" y1="14.498" x2="33.681" y2="33.492"/>
<line id="XMLID_261_" fill="none" stroke="#FFFFFF" stroke-width="1.2827" stroke-miterlimit="10" x1="26.518" y1="11.603" x2="26.518" y2="31.939"/>
<line id="XMLID_259_" fill="none" stroke="#FFFFFF" stroke-width="1.3192" stroke-linecap="round" stroke-miterlimit="10" x1="7.316" y1="20.943" x2="12.146" y2="18.076"/>
<line id="XMLID_257_" fill="none" stroke="#FFFFFF" stroke-width="1.3192" stroke-linecap="round" stroke-miterlimit="10" x1="9.359" y1="24.734" x2="14.141" y2="21.891"/>
<line id="XMLID_255_" fill="none" stroke="#FFFFFF" stroke-width="1.3192" stroke-linecap="round" stroke-miterlimit="10" x1="11.591" y1="28.832" x2="16.43" y2="25.957"/>
<line id="XMLID_253_" fill="none" stroke="#FFFFFF" stroke-width="1.3192" stroke-linecap="round" stroke-miterlimit="10" x1="13.852" y1="32.549" x2="18.676" y2="29.684"/>
<circle id="XMLID_251_" fill="#FFFFFF" cx="44.856" cy="19.395" r="1.142"/>
<circle id="XMLID_249_" fill="#FFFFFF" cx="45.467" cy="23.586" r="1.143"/>
<circle id="XMLID_247_" fill="#FFFFFF" cx="41.977" cy="25.395" r="1.144"/>
<circle id="XMLID_245_" fill="#FFFFFF" cx="41.977" cy="29.561" r="1.144"/>
<path id="XMLID_243_" fill="#FFFFFF" d="M39.51,31.611c0,0.627-0.511,1.141-1.141,1.141c-0.634,0-1.146-0.514-1.146-1.141
	c0-0.633,0.513-1.146,1.146-1.146C38.999,30.465,39.51,30.979,39.51,31.611z"/>
</svg>
