<?xml version="1.0" encoding="utf-8"?>
<!-- Generator: Adobe Illustrator 16.0.0, SVG Export Plug-In . SVG Version: 6.00 Build 0)  -->
<!DOCTYPE svg PUBLIC "-//W3C//DTD SVG 1.1//EN" "http://www.w3.org/Graphics/SVG/1.1/DTD/svg11.dtd">
<svg version="1.1" id="Capa_1" xmlns="http://www.w3.org/2000/svg" xmlns:xlink="http://www.w3.org/1999/xlink" x="0px" y="0px"
	 width="35.625px" height="39.547px" viewBox="0 0 35.625 39.547" enable-background="new 0 0 35.625 39.547" xml:space="preserve">
<path fill="#FFb600" d="M18.19,38.669c0.789-0.099,1.403-0.884,1.403-1.718v-3.224c2.509-0.143,5.233-1.174,6.781-2.855
	c1.321-1.433,1.989-3.312,1.88-5.434c-0.232-4.695-4.479-6.295-8.661-7.355V9.478c3.345,0.457,5.363,2.349,5.505,2.47
	c0.73,0.649,1.821,0.581,2.471-0.149c0.65-0.731,0.628-1.854-0.105-2.507c-0.18-0.159-3.688-2.892-7.87-3.381V2.632
	c0-0.98-0.692-1.776-1.673-1.776s-1.672,0.796-1.672,1.776v3.391c-0.836,0.136-1.752,0.335-2.58,0.644
	c-2.938,1.099-4.829,3.815-4.689,6.92c0.146,3.332,2.596,6.02,6.198,7.013c0.31,0.087,0.235,0.168,1.071,0.252v8.92
	c-2.51-0.572-4.518-1.665-5.856-2.961c-0.705-0.683-1.909-0.662-2.589,0.045c-0.681,0.703-0.544,1.827,0.162,2.506
	c1.977,1.913,4.936,3.43,8.283,4.068v3.522c0,0.834,0.428,1.605,1.216,1.718C17.674,38.7,17.978,38.696,18.19,38.669z
	 M16.249,17.183c0,0-0.166-0.002-0.169-0.002c-2.098-0.579-3.478-1.982-3.558-3.752c-0.068-1.538,0.959-2.887,2.431-3.438
	c0.397-0.149,0.46-0.262,1.296-0.354V17.183z M19.593,21.767c2.509,0.868,4.99,1.87,5.091,3.852
	c0.057,1.183-0.213,2.114-0.893,2.854c-0.881,0.955-2.525,1.576-4.198,1.703V21.767z"/>
</svg>
