<?xml version="1.0" encoding="utf-8"?>
<!-- Generator: Adobe Illustrator 16.0.0, SVG Export Plug-In . SVG Version: 6.00 Build 0)  -->
<!DOCTYPE svg PUBLIC "-//W3C//DTD SVG 1.1//EN" "http://www.w3.org/Graphics/SVG/1.1/DTD/svg11.dtd">
<svg version="1.1" id="Capa_1" xmlns="http://www.w3.org/2000/svg" xmlns:xlink="http://www.w3.org/1999/xlink" x="0px" y="0px"
	 width="44.746px" height="46.583px" viewBox="0 0 44.746 46.583" enable-background="new 0 0 44.746 46.583" xml:space="preserve">
<g>
	<g>
		<g>
			<g transform="translate(-450.000000, -45.000000)">
				<path fill="#FFFFFF" d="M461.702,81.779l-3.869,3.871c-0.282,0.281-0.747,0.285-1.034,0
					c-0.276-0.277-0.284-0.749,0-1.033l3.872-3.87"/>
			</g>
		</g>
		<!-- fill="#FF386A" -->
		<path fill="#FFFFFF" d="M11.603,36.805c1.422,0.918,4.362,1.938,7.263,2.185c4.703,0.396,9.086-0.942,12.603-4.464
			c0.771-0.77,1.479-1.65,2.132-2.651c2.279-3.5,3.784-8.236,4.635-13.718c0.392-2.512,0.619-5.014,0.721-7.387
			c0.033-0.832,0.038-2.349,0.038-2.349s-1.515,0.008-2.344,0.044c-2.377,0.099-4.878,0.326-7.391,0.718
			c-5.483,0.852-10.219,2.356-13.72,4.637c-1.003,0.651-1.89,1.36-2.659,2.127c-3.519,3.522-4.871,7.903-4.472,12.607
			c0.245,2.898,1.174,5.84,2.093,7.261l6.158-6.227v-7.959c0-0.404,0.253-0.731,0.645-0.731c0.406,0,0.646,0.314,0.646,0.733v6.496
			l5.808-5.769v-3.828c0-0.403,0.577-0.73,0.971-0.73c0.401,0,0.967,0.325,0.967,0.72v2.379l4.846-4.951
			c0.287-0.284,0.706-0.275,0.982,0c0.284,0.286,0.267,0.851-0.027,1.142l-4.977,5.058h2.382c0.395,0,0.716,0.253,0.716,0.646
			c0,0.404-0.332,0.645-0.73,0.645h-3.826l-5.771,5.809h6.496c0.406,0,0.733,0.254,0.733,0.646c0,0.402-0.322,0.645-0.729,0.645
			h-7.959L11.603,36.805z"/>
	</g>
</g>
</svg>
