<?xml version="1.0" encoding="utf-8"?>
<!-- Generator: Adobe Illustrator 16.0.0, SVG Export Plug-In . SVG Version: 6.00 Build 0)  -->
<!DOCTYPE svg PUBLIC "-//W3C//DTD SVG 1.1//EN" "http://www.w3.org/Graphics/SVG/1.1/DTD/svg11.dtd">
<svg version="1.1" id="Capa_1" xmlns="http://www.w3.org/2000/svg" xmlns:xlink="http://www.w3.org/1999/xlink" x="0px" y="0px"
	 width="44.746px" height="46.583px" viewBox="0 0 44.746 46.583" enable-background="new 0 0 44.746 46.583" xml:space="preserve">
<path fill="#FFb600" d="M36.581,37.389V12.733c0-0.813-0.24-1.455-0.507-1.92c-0.282-0.463-0.602-0.83-0.851-1.096
	c-0.267-0.248-0.659-0.598-1.123-0.881c-0.466-0.264-1.132-0.48-1.946-0.48H12.663c-0.813,0-1.455,0.217-1.92,0.482
	c-0.465,0.281-0.83,0.588-1.096,0.838c-0.25,0.266-0.658,0.65-0.941,1.117c-0.264,0.467-0.541,1.127-0.541,1.939v24.949l1.763,0.85
	l0.842,1.945h4.237l0.697-1.85h13.41l0.697,1.85h4.236l0.805-1.945l1.729-0.85 M14.343,10.209h16.061v2.471H14.343V10.209
	 M10.636,14.534h23.474v11.738H10.636V14.534 M10.636,30.594h5.561v1.854h-5.561V30.594 M28.55,30.594h5.56v1.854h-5.56V30.594
	 M18.666,34.301h8.03v1.854h-8.03V34.301"/>
</svg>
