<?xml version="1.0" encoding="utf-8"?>
<!-- Generator: Adobe Illustrator 16.0.0, SVG Export Plug-In . SVG Version: 6.00 Build 0)  -->
<!DOCTYPE svg PUBLIC "-//W3C//DTD SVG 1.1//EN" "http://www.w3.org/Graphics/SVG/1.1/DTD/svg11.dtd">
<svg version="1.1" id="Capa_1" xmlns="http://www.w3.org/2000/svg" xmlns:xlink="http://www.w3.org/1999/xlink" x="0px" y="0px"
	 width="44.746px" height="46.583px" viewBox="0 0 44.746 46.583" enable-background="new 0 0 44.746 46.583" xml:space="preserve">
<polygon fill="#FF386A" stroke="#FFFFFF" stroke-width="0.6851" stroke-miterlimit="10" points="4.056,31.21 4.484,21.308 
	12.628,5.685 20.855,2.156 26.871,7.085 31.539,8.677 37.593,15.796 39.117,16.212 39.945,16.97 39.335,19.72 41.171,26.507 
	40.658,30.111 37.511,33.619 31.927,35.744 25.757,34.644 16.302,44.777 "/>
<polyline fill="none" stroke="#FFFFFF" stroke-width="0.6391" stroke-miterlimit="10" points="18.014,3.375 19.052,5.238 
	19.052,5.707 14.242,8.554 13.763,8.121 10.697,9.391 "/>
<polyline fill="none" stroke="#FFFFFF" stroke-width="0.6391" stroke-miterlimit="10" points="10.199,9.921 13.863,14.244 
	18.562,11.724 17.537,9.851 "/>
<polyline fill="none" stroke="#FFFFFF" stroke-width="0.6391" stroke-miterlimit="10" points="15.632,7.708 16.996,10.029 
	19.195,9.128 17.824,6.404 "/>
<polyline fill="none" stroke="#FFFFFF" stroke-width="0.6391" stroke-miterlimit="10" points="18.562,11.724 19.589,12.408 
	22.183,10.435 22.859,10.785 24.939,9.451 24.777,8.435 26.994,6.816 "/>
<polyline fill="none" stroke="#FFFFFF" stroke-width="0.6391" stroke-miterlimit="10" points="19.753,12.408 23.183,14.974 
	24.425,13.894 23.724,12.894 24.425,12.166 22.994,10.701 "/>
<polyline fill="none" stroke="#FFFFFF" stroke-width="0.6391" stroke-miterlimit="10" points="14.05,14.244 16.322,15.949 
	17.646,15.353 16.611,12.771 "/>
<polyline fill="none" stroke="#FFFFFF" stroke-width="0.6391" stroke-miterlimit="10" points="13.671,14.244 10.458,16.111 
	8.621,13.029 "/>
<polyline fill="none" stroke="#FFFFFF" stroke-width="0.6391" stroke-miterlimit="10" points="10.566,16.082 11.646,17.095 
	15.632,17.812 16.537,15.949 "/>
<line fill="none" stroke="#FFFFFF" stroke-width="0.6391" stroke-miterlimit="10" x1="15.632" y1="17.703" x2="16.378" y2="19.658"/>
<polyline fill="none" stroke="#FFFFFF" stroke-width="0.6391" stroke-miterlimit="10" points="17.513,15.353 18.302,16.111 
	18.302,17.812 20.029,18.164 21.273,17.812 22.66,17.244 23.387,15.176 27.21,18.89 22.474,21.271 17.642,18.972 15.048,20.378 
	13.212,20.568 11.646,21.81 9.513,18.271 11.582,17.095 "/>
<polyline fill="none" stroke="#FFFFFF" stroke-width="0.6391" stroke-miterlimit="10" points="19.802,12.609 19.802,15.001 
	18.398,16.263 "/>
<polyline fill="none" stroke="#FFFFFF" stroke-width="0.6391" stroke-miterlimit="10" points="20.312,18.324 19.75,19.865 
	18.851,20.568 20.554,26.457 20.554,28.402 21.482,30.242 22.076,30.242 22.994,31.412 21.779,31.742 19.589,31.742 17.646,33.097 
	16.537,31.654 17.414,30.38 16.24,29.123 15.16,24.158 14.05,24.269 12.052,22.271 8.621,24.484 7.972,23.673 6.568,24.566 
	5.593,23.296 10.632,20.128 "/>
<line fill="none" stroke="#FFFFFF" stroke-width="0.6391" stroke-miterlimit="10" x1="6.785" y1="23.085" x2="4.894" y2="20.806"/>
<polyline fill="none" stroke="#FFFFFF" stroke-width="0.6391" stroke-miterlimit="10" points="4.324,25 4.919,25.738 5.187,25.738 
	7.349,28.531 5.836,29.4 5.324,28.792 4.056,29.358 "/>
<polyline fill="none" stroke="#FFFFFF" stroke-width="0.6391" stroke-miterlimit="10" points="10.697,23.148 15.16,28.439 
	15.976,27.921 "/>
<line fill="none" stroke="#FFFFFF" stroke-width="0.6391" stroke-miterlimit="10" x1="14.382" y1="27.718" x2="5.595" y2="32.15"/>
<polyline fill="none" stroke="#FFFFFF" stroke-width="0.6391" stroke-miterlimit="10" points="5.49,25.738 9.737,25.738 
	9.993,26.56 9.593,26.833 9.557,27.691 10.809,29.232 "/>
<line fill="none" stroke="#FFFFFF" stroke-width="0.6391" stroke-miterlimit="10" x1="10.836" y1="29.484" x2="20.257" y2="40.736"/>
<polyline fill="none" stroke="#FFFFFF" stroke-width="0.6391" stroke-miterlimit="10" points="13.935,33.187 12.248,34.203 
	11.376,34.021 8.458,36.662 "/>
<polyline fill="none" stroke="#FFFFFF" stroke-width="0.6391" stroke-miterlimit="10" points="19.195,39.464 16.167,41.949 
	13.935,39.464 12.134,40.736 "/>
<line fill="none" stroke="#FFFFFF" stroke-width="0.6391" stroke-miterlimit="10" x1="15.546" y1="34.923" x2="17.898" y2="33.187"/>
<polyline fill="none" stroke="#FFFFFF" stroke-width="0.6391" stroke-miterlimit="10" points="15.05,20.378 16.537,23.437 
	18.996,22.273 "/>
<line fill="none" stroke="#FFFFFF" stroke-width="0.6391" stroke-miterlimit="10" x1="16.537" y1="23.437" x2="15.05" y2="24.171"/>
<polyline fill="none" stroke="#FFFFFF" stroke-width="0.6391" stroke-miterlimit="10" points="34.361,11.607 32.521,13.248 
	33.441,14.556 32.847,15.941 31.586,15.791 28.957,19.035 29.746,19.394 28.806,22.273 28.806,27.431 28.806,29.699 28.056,30.779 
	28.056,32.078 30.533,32.257 33.347,30.886 33.423,29.015 36.269,28.285 37.568,27.99 37.962,27.99 37.785,33.522 "/>
<line fill="none" stroke="#FFFFFF" stroke-width="0.6391" stroke-miterlimit="10" x1="30.851" y1="35.732" x2="30.759" y2="32.15"/>
<polyline fill="none" stroke="#FFFFFF" stroke-width="0.6391" stroke-miterlimit="10" points="37.603,15.957 34.808,18.171 
	34.808,20.513 38.935,20.708 38.865,27.24 40.232,27.24 40.932,28.188 "/>
<polyline fill="none" stroke="#FFFFFF" stroke-width="0.6391" stroke-miterlimit="10" points="29.066,19.126 30.912,19.427 
	31.757,19.736 34.669,19.736 "/>
<polyline fill="none" stroke="#FFFFFF" stroke-width="0.6391" stroke-miterlimit="10" points="25.335,20 25.724,23.937 
	26.074,30.242 24.345,30.242 24.148,31.06 22.695,31.566 "/>
<polyline fill="none" stroke="#FFFFFF" stroke-width="0.6391" stroke-miterlimit="10" points="21.283,31.935 22.695,33.521 
	23.265,33.187 25.318,35.109 "/>
<line fill="none" stroke="#FFFFFF" stroke-width="0.6391" stroke-miterlimit="10" x1="20.292" y1="26.816" x2="25.867" y2="26.779"/>
<line fill="none" stroke="#FFFFFF" stroke-width="0.6391" stroke-miterlimit="10" x1="26.181" y1="24.99" x2="38.935" y2="24.99"/>
<line fill="none" stroke="#FFFFFF" stroke-width="0.6391" stroke-miterlimit="10" x1="33.855" y1="19.701" x2="33.587" y2="28.973"/>
<line fill="none" stroke="#FFFFFF" stroke-width="0.6391" stroke-miterlimit="10" x1="33.855" y1="22.765" x2="39.003" y2="22.929"/>
<line fill="none" stroke="#FFFFFF" stroke-width="0.6391" stroke-miterlimit="10" x1="27.218" y1="18.89" x2="29.066" y2="19.054"/>
<line fill="none" stroke="#FFFFFF" stroke-width="0.6391" stroke-miterlimit="10" x1="29.066" y1="27.501" x2="33.587" y2="27.322"/>
</svg>
